<?xml version="1.0" encoding="UTF-8"?><svg id="Layer_2" xmlns="http://www.w3.org/2000/svg" viewBox="0 0 130.1 40"><defs><style>.cls-1{fill:#253378;}</style></defs><g id="_레이어_1"><g><g><path class="cls-1" d="M20.71,3.98H5.02v14.08h15.68v-4.95H12.5v-3.79h13.09v7.66c0,2.04-.37,3.42-1.1,4.16-.74,.74-2.15,1.1-4.25,1.1H5.35c-2.1,0-3.51-.37-4.25-1.1-.73-.74-1.1-2.12-1.1-4.16V5.26C0,3.24,.37,1.86,1.1,1.12,1.84,.37,3.25,0,5.35,0h14.89c2.07,0,3.48,.36,4.23,1.09,.75,.73,1.12,2.05,1.12,3.96v.51l-4.88,.91V3.98Z"/><path class="cls-1" d="M54.91,3.89h-14.13v4.78h13.46c2.11,0,3.54,.37,4.28,1.12s1.11,2.13,1.11,4.15v3.05c0,2.02-.37,3.4-1.11,4.15s-2.17,1.12-4.28,1.12h-13.33c-2.11,0-3.54-.37-4.28-1.12-.74-.74-1.11-2.13-1.11-4.15v-.61l4.43-.95v2.63h15.25v-5.07h-13.46c-2.1,0-3.51-.37-4.25-1.12-.73-.74-1.1-2.13-1.1-4.15v-2.46c0-2.02,.37-3.4,1.1-4.15,.74-.74,2.15-1.12,4.25-1.12h12.25c2.03,0,3.43,.36,4.2,1.07,.77,.72,1.15,1.99,1.15,3.81v.46l-4.43,1.07V3.89Z"/><path class="cls-1" d="M69.59,5.26c0-2.02,.37-3.4,1.1-4.15,.74-.74,2.15-1.12,4.25-1.12h15.89c2.1,0,3.51,.37,4.25,1.12s1.1,2.13,1.1,4.15v11.73c0,2.04-.37,3.42-1.1,4.16-.74,.74-2.15,1.1-4.25,1.1h-15.89c-2.1,0-3.51-.37-4.25-1.1-.73-.74-1.1-2.12-1.1-4.16V5.26Zm5.02,12.8h16.56V3.98h-16.56v14.08Z"/><path class="cls-1" d="M106.76,22.25V0h18.46c1.72,0,2.96,.34,3.73,1.02,.77,.68,1.15,1.78,1.15,3.29v4.97c0,1.5-.38,2.59-1.15,3.27-.77,.68-2.01,1.02-3.73,1.02h-13.52v8.67h-4.94ZM122.99,3.85h-11.29v5.89h11.29c.87,0,1.47-.13,1.79-.39,.32-.26,.48-.72,.48-1.38v-2.38c0-.65-.16-1.1-.48-1.36-.32-.26-.92-.39-1.79-.39Z"/></g><g><path class="cls-1" d="M5.98,40l-3.56-9.54h2.22l2.35,6.4,2.46-6.4h1.51l2.5,6.4,2.24-6.4h1.93l-3.57,9.54h-1.45l-2.55-6.6-2.58,6.6h-1.49Z"/><path class="cls-1" d="M20.49,32.72c0-.87,.16-1.46,.47-1.78,.31-.32,.92-.48,1.82-.48h6.81c.9,0,1.51,.16,1.82,.48,.32,.32,.47,.91,.47,1.78v5.03c0,.87-.16,1.47-.47,1.78-.31,.31-.92,.47-1.82,.47h-6.81c-.9,0-1.51-.16-1.82-.47-.32-.32-.47-.91-.47-1.78v-5.03Zm2.15,5.49h7.1v-6.04h-7.1v6.04Z"/><path class="cls-1" d="M36.41,40v-9.54h7.91c.74,0,1.27,.15,1.6,.44,.33,.29,.49,.76,.49,1.41v2.24c0,.64-.16,1.11-.49,1.41-.33,.29-.86,.44-1.6,.44h-1.21l4.27,3.6h-3.09l-3.73-3.6h-2.04v3.6h-2.12Zm6.96-7.89h-4.84v2.65h4.84c.37,0,.63-.06,.77-.17,.14-.11,.21-.31,.21-.59v-1.15c0-.28-.07-.47-.21-.58-.14-.11-.39-.17-.77-.17Z"/><path class="cls-1" d="M50.78,40v-9.54h2.17v3.98l5.13-3.98h3.12l-6.13,4.49,6.88,5.04h-3.46l-5.54-4.2v4.2h-2.17Z"/><path class="cls-1" d="M65.01,40v-9.54h7.91c.74,0,1.27,.15,1.6,.44,.33,.29,.49,.76,.49,1.41v2.13c0,.64-.16,1.11-.49,1.4-.33,.29-.86,.44-1.6,.44h-5.79v3.72h-2.12Zm6.96-7.89h-4.84v2.53h4.84c.37,0,.63-.06,.77-.17,.14-.11,.21-.31,.21-.59v-1.02c0-.28-.07-.47-.21-.58-.14-.11-.39-.17-.77-.17Z"/><path class="cls-1" d="M78.33,40v-9.54h2.15v7.74h6.94v1.8h-9.09Z"/><path class="cls-1" d="M88.49,40l5.23-9.54h2.07l5.3,9.54h-2.42l-1.11-2.08h-5.86l-1.08,2.08h-2.14Zm4.14-3.81h4.05l-2-3.88-2.06,3.88Z"/><path class="cls-1" d="M111.53,32.17h-5.8v6.04h5.8v-2.05l2.15,.46v1.13c0,.87-.16,1.47-.48,1.78-.32,.31-.92,.47-1.82,.47h-5.52c-.9,0-1.51-.16-1.82-.47-.32-.32-.47-.91-.47-1.78v-5.03c0-.87,.16-1.46,.47-1.78,.31-.32,.92-.48,1.82-.48h5.52c.89,0,1.5,.16,1.82,.48,.32,.32,.48,.91,.48,1.78v.9l-2.15,.35v-1.8Z"/><path class="cls-1" d="M118.12,40v-9.54h9.47v1.62h-7.32v2.13h4.27v1.62h-4.27v2.36h7.4v1.8h-9.56Z"/></g></g></g></svg>