<svg xmlns="http://www.w3.org/2000/svg" xmlns:xlink="http://www.w3.org/1999/xlink" width="55" height="54" viewBox="0 0 55 54">
  <defs>
    <clipPath id="clip-path">
      <rect id="사각형_24" data-name="사각형 24" width="55" height="54" transform="translate(0 0)" fill="none"/>
    </clipPath>
  </defs>
  <g id="벡터_고급_개체" data-name="벡터 고급 개체" transform="translate(0 0)">
    <path id="패스_41" data-name="패스 41" d="M6.7,25.59l5.572,5.64,8.341-8.46" fill="none" stroke="#253378" stroke-linecap="round" stroke-linejoin="round" stroke-width="2.023"/>
    <g id="그룹_30" data-name="그룹 30">
      <g id="그룹_29" data-name="그룹 29" clip-path="url(#clip-path)">
        <path id="패스_42" data-name="패스 42" d="M13.061,15.018V1.008H38.8L53.986,17.184V52.992H13.061V38.981" fill="none" stroke="#253378" stroke-linejoin="round" stroke-width="2.023"/>
        <path id="패스_43" data-name="패스 43" d="M53.986,17.183H38.8V1.009Z" fill="none" stroke="#253378" stroke-linejoin="round" stroke-width="2.023"/>
        <path id="패스_44" data-name="패스 44" d="M25.107,27A12.047,12.047,0,1,1,13.06,15.018,12.015,12.015,0,0,1,25.107,27Z" fill="none" stroke="#253378" stroke-linecap="round" stroke-linejoin="round" stroke-width="2.023"/>
        <line id="선_13" data-name="선 13" x2="15.268" transform="translate(17.089 5.955)" fill="none" stroke="#253378" stroke-linecap="round" stroke-linejoin="round" stroke-width="2.028"/>
        <line id="선_14" data-name="선 14" x2="13.571" transform="translate(18.786 12.913)" fill="none" stroke="#253378" stroke-linecap="round" stroke-linejoin="round" stroke-width="2.028"/>
        <line id="선_15" data-name="선 15" x2="5.577" transform="translate(26.78 19.946)" fill="none" stroke="#253378" stroke-linecap="round" stroke-miterlimit="10" stroke-width="2.028"/>
        <line id="선_16" data-name="선 16" x2="19.631" transform="translate(28.948 28.775)" fill="none" stroke="#253378" stroke-linecap="round" stroke-miterlimit="10" stroke-width="2.028"/>
        <line id="선_17" data-name="선 17" x2="24.041" transform="translate(24.538 36.968)" fill="none" stroke="#253378" stroke-linecap="round" stroke-miterlimit="10" stroke-width="2.028"/>
        <line id="선_18" data-name="선 18" x2="28.599" transform="translate(19.979 44.428)" fill="none" stroke="#253378" stroke-linecap="round" stroke-miterlimit="10" stroke-width="2.028"/>
      </g>
    </g>
  </g>
</svg>
