<?xml version="1.0" encoding="utf-8"?>
<!-- Generator: Adobe Illustrator 25.1.0, SVG Export Plug-In . SVG Version: 6.00 Build 0)  -->
<svg version="1.0" id="Layer_1" xmlns="http://www.w3.org/2000/svg" xmlns:xlink="http://www.w3.org/1999/xlink" x="0px" y="0px"
	 width="219px" height="218px" viewBox="0 0 219 218" enable-background="new 0 0 219 218" xml:space="preserve">
<g>
	<g>
		<ellipse opacity="0.5" fill="#EBECED" cx="109.50001" cy="199.5285" rx="109.50001" ry="18.77032"/>
		<g>
			<g>
				
					<ellipse transform="matrix(0.97276 -0.23181 0.23181 0.97276 -20.35569 28.07132)" fill="#BAE4F0" cx="109.26812" cy="100.65096" rx="98.43722" ry="98.43695"/>
			</g>
			<g>
				<g>
					<path fill="#89C8D2" d="M109.26801,15.01232c0.47302,0,0.85906-0.38431,0.85906-0.85808V8.24347
						c0-0.47425-0.38604-0.85881-0.85906-0.85881c-0.474,0-0.85881,0.38456-0.85881,0.85881v5.91077
						C108.40919,14.62801,108.79401,15.01232,109.26801,15.01232z"/>
					<path fill="#89C8D2" d="M109.26801,193.91632c0.47302,0,0.85906-0.38432,0.85906-0.85809v-5.91077
						c0-0.47424-0.38604-0.85881-0.85906-0.85881c-0.474,0-0.85881,0.38457-0.85881,0.85881v5.91077
						C108.40919,193.532,108.79401,193.91632,109.26801,193.91632z"/>
				</g>
				<g>
					<path fill="#89C8D2" d="M87.10344,17.93043c0.4567-0.12235,0.73014-0.59366,0.60756-1.05134l-1.52973-5.70923
						c-0.12283-0.45793-0.59538-0.72966-1.05231-0.60709c-0.45767,0.12283-0.72989,0.59368-0.60731,1.05184l1.52973,5.70923
						C86.1742,17.78152,86.64529,18.05301,87.10344,17.93043z"/>
					<path fill="#89C8D2" d="M133.4068,190.73842c0.45694-0.12257,0.73062-0.59341,0.60803-1.05109l-1.52972-5.70923
						c-0.12305-0.45816-0.59535-0.72989-1.05231-0.60756c-0.4579,0.12283-0.72989,0.5939-0.60732,1.05206l1.52972,5.70924
						C132.47804,190.58954,132.94887,190.86102,133.4068,190.73842z"/>
				</g>
				<g>
					<path fill="#89C8D2" d="M66.4491,26.48587c0.40967-0.23665,0.55173-0.76256,0.31487-1.1727l-2.9554-5.11876
						c-0.23712-0.41064-0.76375-0.55076-1.17342-0.31436c-0.41042,0.23712-0.55151,0.76253-0.31439,1.17342l2.95539,5.11876
						C65.51304,26.58263,66.03847,26.7225,66.4491,26.48587z"/>
					<path fill="#89C8D2" d="M155.90085,181.42117c0.40967-0.2364,0.55225-0.76231,0.31511-1.1727l-2.95538-5.11874
						c-0.23738-0.41063-0.76376-0.55101-1.1732-0.31413c-0.41063,0.23688-0.55173,0.7623-0.31461,1.17294l2.9554,5.11874
						C154.96503,181.51767,155.49046,181.65829,155.90085,181.42117z"/>
				</g>
				<g>
					<path fill="#89C8D2" d="M48.71312,40.09547c0.33435-0.33435,0.33533-0.87927,0.00047-1.21437l-4.1795-4.17928
						c-0.3351-0.33532-0.88027-0.33435-1.21487,0c-0.3351,0.33535-0.33533,0.8793,0,1.21487l4.17952,4.17927
						C47.83382,40.43105,48.37752,40.43032,48.71312,40.09547z"/>
					<path fill="#89C8D2" d="M175.21677,166.59937c0.33459-0.33409,0.33632-0.87927,0.00098-1.21411l-4.1795-4.1795
						c-0.33557-0.3351-0.88049-0.33438-1.21463,0.00023c-0.33508,0.3351-0.33557,0.87904-0.00024,1.21439l4.17952,4.1795
						C174.33797,166.93497,174.88168,166.93497,175.21677,166.59937z"/>
				</g>
				<g>
					<path fill="#89C8D2" d="M35.10349,57.83146c0.2369-0.40941,0.09653-0.93582-0.31364-1.17294l-5.11874-2.95515
						c-0.41064-0.23713-0.93679-0.09503-1.17344,0.31438c-0.23687,0.41064-0.09625,0.93629,0.31439,1.17342l5.11874,2.95539
						C34.34121,58.38345,34.86637,58.2421,35.10349,57.83146z"/>
					<path fill="#89C8D2" d="M190.03856,147.28346c0.23662-0.40916,0.09723-0.93607-0.31366-1.1727l-5.1185-2.95564
						c-0.41113-0.23688-0.93704-0.09503-1.1734,0.31439c-0.23691,0.41063-0.09654,0.93607,0.31435,1.17342l5.11874,2.9554
						C189.2765,147.83519,189.80168,147.69435,190.03856,147.28346z"/>
				</g>
				<g>
					<path fill="#89C8D2" d="M26.54855,78.48605c0.12233-0.45693-0.14916-0.92924-0.60681-1.05231l-5.70925-1.52948
						c-0.4579-0.12258-0.92923,0.15086-1.05206,0.60756c-0.12233,0.4579,0.14938,0.92923,0.60756,1.05206l5.70898,1.52998
						C25.95489,79.21618,26.42572,78.94372,26.54855,78.48605z"/>
					<path fill="#89C8D2" d="M199.3558,124.78966c0.12259-0.45645-0.14815-0.92948-0.60634-1.05183l-5.70897-1.52995
						c-0.4584-0.12236-0.92973,0.15086-1.05206,0.60731c-0.1226,0.4579,0.14912,0.92923,0.60732,1.05231l5.70921,1.52948
						C198.76241,125.5198,199.23323,125.24781,199.3558,124.78966z"/>
				</g>
				<g>
					<path fill="#89C8D2" d="M23.63044,100.65061c0-0.47303-0.38431-0.85881-0.85806-0.85931l-5.91054,0.0005
						c-0.47425,0-0.85906,0.38603-0.85931,0.85881c0.00025,0.474,0.38481,0.85905,0.85931,0.85905l5.91054,0.00025
						C23.24613,101.50967,23.63044,101.12461,23.63044,100.65061z"/>
					<path fill="#89C8D2" d="M202.53397,100.65086c0-0.4728-0.38385-0.85956-0.85785-0.85906l-5.91078-0.00025
						c-0.47449,0.0005-0.85881,0.38628-0.85881,0.85881c0,0.47425,0.38432,0.85906,0.85881,0.85931l5.91078-0.00024
						C202.14987,101.50967,202.53397,101.12511,202.53397,100.65086z"/>
				</g>
				<g>
					<path fill="#89C8D2" d="M26.54855,122.81518c-0.12233-0.4567-0.59366-0.72989-1.05134-0.60781l-5.709,1.53024
						c-0.4579,0.12283-0.72964,0.59535-0.60753,1.05181c0.12305,0.45792,0.59391,0.73038,1.05206,0.60756l5.70948-1.52948
						C26.39964,123.74466,26.67113,123.27308,26.54855,122.81518z"/>
					<path fill="#89C8D2" d="M199.35606,76.51206c-0.12233-0.4567-0.59319-0.73112-1.05084-0.60806l-5.70926,1.52973
						c-0.4584,0.12333-0.72963,0.59538-0.60753,1.05183c0.1228,0.45815,0.59366,0.73037,1.05206,0.60779l5.70923-1.52998
						C199.2074,77.4408,199.47888,76.97021,199.35606,76.51206z"/>
				</g>
				<g>
					<path fill="#89C8D2" d="M35.10349,143.46951c-0.2359-0.40967-0.76205-0.55151-1.17244-0.31511l-5.11827,2.95587
						c-0.41064,0.23689-0.55101,0.76378-0.31486,1.17294c0.23737,0.41063,0.76281,0.55197,1.17367,0.31485l5.11876-2.95537
						C35.20049,144.40582,35.34087,143.88014,35.10349,143.46951z"/>
					<path fill="#89C8D2" d="M190.0388,54.01823c-0.23615-0.40966-0.76208-0.55271-1.17247-0.31533l-5.11873,2.95537
						c-0.41064,0.23763-0.55054,0.76353-0.31461,1.17272c0.23734,0.41086,0.76277,0.55221,1.1734,0.31511l5.11899-2.95565
						C190.13579,54.95383,190.27615,54.42865,190.0388,54.01823z"/>
				</g>
				<g>
					<path fill="#89C8D2" d="M48.71312,161.20551c-0.33413-0.33438-0.8788-0.3351-1.21414-0.00073l-4.17878,4.17975
						c-0.33532,0.3351-0.3346,0.88049-0.00047,1.21461c0.33557,0.33533,0.87977,0.33583,1.21509,0.00023l4.17927-4.17949
						C49.04919,162.08502,49.04844,161.54082,48.71312,161.20551z"/>
					<path fill="#89C8D2" d="M175.21725,34.70233c-0.33412-0.3346-0.87929-0.3368-1.21414-0.00122l-4.17924,4.17952
						c-0.33534,0.33582-0.33438,0.88-0.00026,1.21437c0.33533,0.33508,0.87953,0.33582,1.21487,0.00047l4.17926-4.17974
						C175.55309,35.58088,175.55283,35.03743,175.21725,34.70233z"/>
				</g>
				<g>
					<path fill="#89C8D2" d="M66.4491,174.81509c-0.40919-0.23688-0.93534-0.0965-1.17271,0.31342l-2.9549,5.11899
						c-0.23687,0.41064-0.09503,0.93704,0.31414,1.17342c0.41089,0.23688,0.93654,0.09651,1.17367-0.31436l2.95515-5.11876
						C67.00156,175.57765,66.85997,175.05197,66.4491,174.81509z"/>
					<path fill="#89C8D2" d="M155.90158,19.88053c-0.40942-0.23663-0.93629-0.09772-1.17294,0.31316l-2.9554,5.11874
						c-0.23712,0.41114-0.09528,0.93632,0.31413,1.17294c0.41042,0.2369,0.93633,0.09675,1.17369-0.31389l2.95515-5.11899
						C156.45331,20.64236,156.31247,20.11743,155.90158,19.88053z"/>
				</g>
				<g>
					<path fill="#89C8D2" d="M87.10344,183.37007c-0.45646-0.12236-0.92851,0.14938-1.05184,0.60681l-1.52898,5.709
						c-0.12258,0.45815,0.1506,0.92973,0.60681,1.05231c0.45818,0.12233,0.92973-0.14915,1.05256-0.6073l1.52948-5.70926
						C87.8343,183.96397,87.56159,183.49312,87.10344,183.37007z"/>
					<path fill="#89C8D2" d="M133.40804,10.56303c-0.45697-0.12233-0.92999,0.14793-1.05232,0.60634l-1.52972,5.709
						c-0.12259,0.45865,0.1506,0.92923,0.60681,1.05181c0.45792,0.12258,0.92973-0.14891,1.05281-0.60706l1.52922-5.70948
						C134.13791,11.15621,133.86618,10.68561,133.40804,10.56303z"/>
				</g>
			</g>
			<g>
				<g>
					<path fill="#89C8D2" d="M109.26801,18.45c1.1861,0,2.14532-0.96092,2.14532-2.14532V8.24347
						c0-1.18512-0.95923-2.14532-2.14532-2.14532c-1.18515,0-2.14532,0.9602-2.14532,2.14532v8.06121
						C107.12268,17.48907,108.08286,18.45,109.26801,18.45z"/>
					<path fill="#89C8D2" d="M109.26801,195.20453c1.1861,0,2.14532-0.96092,2.14532-2.14532v-8.06096
						c0-1.18538-0.95923-2.14532-2.14532-2.14532c-1.18515,0-2.14532,0.95995-2.14532,2.14532v8.06096
						C107.12268,194.24361,108.08286,195.20453,109.26801,195.20453z"/>
				</g>
				<g>
					<path fill="#89C8D2" d="M167.39293,42.52618c0.83907,0.83882,2.19673,0.8376,3.03433,0l5.69998-5.69999
						c0.83786-0.8381,0.83858-2.19526,0-3.03386c-0.83833-0.83834-2.19624-0.83834-3.0341,0l-5.70021,5.69975
						C166.55556,40.32993,166.55505,41.68809,167.39293,42.52618z"/>
					<path fill="#89C8D2" d="M42.40876,167.51059c0.83882,0.83859,2.19648,0.83737,3.0341,0l5.69972-5.69998
						c0.83834-0.83833,0.83884-2.19528,0-3.0341c-0.83785-0.83809-2.19576-0.83809-3.03386,0l-5.69997,5.69998
						C41.57114,165.3141,41.57066,166.67249,42.40876,167.51059z"/>
				</g>
				<g>
					<path fill="#89C8D2" d="M191.46935,100.65108c0,1.18659,0.96066,2.14558,2.14554,2.14558h8.06073
						c1.18513,0,2.14558-0.95898,2.14558-2.14532c0-1.18537-0.96021-2.14555-2.14558-2.14532l-8.0612-0.00023
						C192.43001,98.50601,191.46935,99.46621,191.46935,100.65108z"/>
					<path fill="#89C8D2" d="M14.71481,100.65134c0,1.18634,0.96093,2.14532,2.1453,2.14532h8.06073
						c1.18562,0,2.14532-0.95898,2.14532-2.14532c0.0005-1.18513-0.95995-2.14555-2.14532-2.14532h-8.06073
						C15.67574,98.50578,14.71456,99.46621,14.71481,100.65134z"/>
				</g>
				<g>
					<path fill="#89C8D2" d="M167.3934,158.7765c-0.83907,0.83882-0.83809,2.19626-0.00047,3.0341l5.70021,5.69998
						c0.83786,0.83784,2.19504,0.83859,3.0341,0c0.8381-0.83835,0.8381-2.19601,0-3.0341l-5.69998-5.70047
						C169.58916,157.93889,168.23125,157.93842,167.3934,158.7765z"/>
					<path fill="#89C8D2" d="M42.40876,33.79234c-0.83882,0.8386-0.83762,2.19626,0,3.03386l5.69972,5.69999
						c0.83835,0.8381,2.19529,0.83857,3.03411,0c0.83834-0.8381,0.83834-2.19626,0-3.0341l-5.69972-5.69975
						C44.60524,32.95449,43.24685,32.95399,42.40876,33.79234z"/>
				</g>
			</g>
			<g>
				<path fill="#FFFFFF" d="M45.91516,104.60958l63.3572,0.00022c2.18628,0,3.95824-1.77197,3.95824-3.95822
					c0-2.18625-1.77197-3.95847-3.95824-3.95847h-63.3572c-2.1853,0-3.9575,1.77222-3.9575,3.95847
					C41.95767,102.83784,43.72986,104.6098,45.91516,104.60958z"/>
				<path fill="#89C8D2" d="M42.96755,60.61529c-0.2471,0.06409-0.47033,0.22153-0.6107,0.45865
					c-0.28125,0.47425-0.12503,1.0874,0.34948,1.36912l77.45375,45.76918c0.47447,0.28122,1.08787,0.12502,1.36937-0.34972
					c0.28146-0.47472,0.125-1.0874-0.34972-1.36937L43.72647,60.72397C43.48812,60.58287,43.21566,60.55143,42.96755,60.61529z"/>
				<path fill="#FFFFFF" d="M128.53639,178.22086c0.44183,0.25467,0.98138,0.34241,1.51389,0.20032
					c1.06668-0.28268,1.70251-1.37837,1.41861-2.44505L111.1974,100.0416c-0.28417-1.06768-1.37913-1.70227-2.44582-1.41982
					c-1.06716,0.28391-1.70324,1.37984-1.4198,2.44653l20.27197,75.93378
					C127.74632,177.53777,128.09212,177.96425,128.53639,178.22086z"/>
				<g>
					<path fill="#19405A" d="M99.40897,100.65134c0,5.4453,4.4142,9.85925,9.85903,9.85925
						c5.44555,0,9.85876-4.41396,9.85876-9.85925c0-5.4453-4.41321-9.85901-9.85876-9.85901
						C103.82317,90.79233,99.40897,95.20603,99.40897,100.65134z"/>
				</g>
				<g>
					<path fill="#2C6D92" d="M104.99954,100.65134c0,2.35759,1.91137,4.26821,4.26846,4.26821
						c2.35757,0,4.26796-1.91062,4.26796-4.26821c0-2.35782-1.91039-4.26869-4.26796-4.26869
						C106.91091,96.38264,104.99954,98.29352,104.99954,100.65134z"/>
				</g>
			</g>
		</g>
		<g>
			<g>
				<ellipse fill="#2E8DA3" cx="109.26801" cy="56.59905" rx="22.21014" ry="30.21774"/>
			</g>
			<g>
				<defs>
					<path id="SVGID_1_" d="M109.26801,86.81679c-12.26681,0-22.21014-13.52869-22.21014-30.21774
						c0-3.47544,0.43135-6.81395,1.22485-9.92164l-22.93588-6.79835l2.24596-11.22985l43.67162-19.21551l32.69133-9.73253h34.68773
						v87.11562H109.26801z"/>
				</defs>
				<clipPath id="SVGID_2_">
					<use xlink:href="#SVGID_1_"  overflow="visible"/>
				</clipPath>
				<g clip-path="url(#SVGID_2_)">
					<g>
						<g>
							<polygon fill="#E2E6F4" points="140.30774,72.26259 140.13593,75.78459 129.14955,76.0049 130.21014,71.7374 							"/>
							<path fill="#E2E6F4" d="M141.08929,76.83568c-0.55344-0.02705-0.98018-0.49738-0.95337-1.05109l0.17181-3.522
								c0.02756-0.55344,0.49763-0.98042,1.05135-0.95361l4.0233,0.19692c0.55321,0.02657,0.97992,0.49741,0.95287,1.05061
								l-0.17204,3.52248c-0.02658,0.5537-0.49767,0.98042-1.05037,0.95312L141.08929,76.83568z"/>
							<polygon fill="#E2E6F4" points="141.00377,71.34214 145.53029,68.75693 146.15395,69.46733 143.06596,72.41856 							"/>
							<g>
								<g>
									<polygon fill="#E2E6F4" points="144.94957,71.52516 151.4072,71.39025 151.46301,72.21215 145.31607,72.95751 									"/>
								</g>
							</g>
							<g>
								<g>
									<polygon fill="#E2E6F4" points="145.06825,74.40572 151.5137,74.82319 151.49908,75.64691 145.31096,75.86527 									"/>
								</g>
							</g>
							<g>
								<g>
									<polygon fill="#E2E6F4" points="145.02193,75.73244 150.41753,76.75562 150.31857,77.44885 145.07556,76.98946 									
										"/>
								</g>
							</g>
							<g>
								<g>
									<polygon fill="#E2E6F4" points="145.13989,72.90853 151.99696,73.10934 151.99185,73.93319 145.39967,74.36514 									
										"/>
								</g>
							</g>
						</g>
						<g>
							<path fill="#E2E6F4" d="M117.03751,46.0416c-0.46499-2.36343-2.75775-3.90267-5.12118-3.43793
								c-2.36394,0.46474-3.90314,2.758-3.43841,5.12118l5.69118,28.70019l6.51955-7.35058L117.03751,46.0416z"/>
							<polygon fill="#E2E6F4" points="133.97025,70.05854 120.68865,69.07446 114.16911,76.42504 132.15709,84.7458 							"/>
						</g>
					</g>
					<path fill="#194667" d="M87.28279,80.11934c2.93224,0,12.19541-0.64996,19.07491-6.67552
						c4.88918-4.28187,11.79134-1.99641,14.06339-8.12409c1.28746-3.47227-0.17646-6.84609-0.83079-12.03917
						c-0.39799-3.1601,0.20129-5.41972,0.20129-5.41972l-6.40792-7.84043c-3.07773,0.71918-7.81727,3.64239-12.02798,11.93782
						c-2.86156,5.63758-8.6076,5.55885-15.52364,3.72232c-3.11941-0.82836-6.23881-0.95314-14.22447-0.95314v25.39193
						C71.60757,80.11934,77.25417,80.11934,87.28279,80.11934z"/>
					<path fill="#719AB7" d="M119.5903,53.28056c-0.39799-3.1601,0.20129-5.41972,0.20129-5.41972l-6.40792-7.84043
						c-3.07773,0.71918-7.81727,3.64239-12.02798,11.93782c-0.74816,1.47366-1.69471,2.55352-2.80649,3.3168
						c1.22121,6.57974,3.25538,13.30839,7.78387,18.1895c0.00806-0.00706,0.01657-0.01363,0.02464-0.02071
						c4.88918-4.28187,11.79134-1.99641,14.06339-8.12409C121.70855,61.84746,120.24463,58.47364,119.5903,53.28056z"/>
					<g>
						<g>
							<g>
								<path fill="#FFFFFF" d="M120.86292,60.93502c-0.2364-2.79428-0.35728-3.50152-0.68626-6.11403
									c-0.39799-3.1601,0.62388-6.45716,0.62388-6.45716l-4.63843-4.9435
									C115.52972,47.07392,114.59706,56.41798,120.86292,60.93502z"/>
							</g>
							<g>
								<path fill="#E2E6F4" d="M115.89551,45.30293c0.08066-0.72186,0.17644-1.36156,0.26659-1.8826l4.63843,4.9435
									c0,0-0.41992,1.35672-0.61634,3.16302C118.18266,49.88552,116.53207,47.86328,115.89551,45.30293z"/>
							</g>
							
								<rect x="114.23757" y="33.11895" transform="matrix(0.52273 -0.8525 0.8525 0.52273 25.41324 120.49433)" fill="#F8D1C4" width="12.16557" height="8.8632"/>
							<polygon fill="#F3B4A4" points="120.20784,37.38354 119.72261,30.04833 127.27815,34.68209 124.38686,39.39605 							"/>
							<path fill="#F8D1C4" d="M115.89843,33.70265V23.09524c0-1.85362,1.50268-3.3558,3.3558-3.3558h7.33449
								c1.85359,0,3.35603,1.50218,3.35603,3.3558v11.32585c0,1.85362-1.50244,3.3563-3.35603,3.3563h-7.33449L115.89843,33.70265z"
								/>
							
								<ellipse transform="matrix(0.20708 -0.97832 0.97832 0.20708 63.09364 137.55669)" fill="#F8D1C4" cx="116.40729" cy="29.85507" rx="2.09145" ry="2.09147"/>
							<polygon fill="#F3B4A4" points="129.94475,22.89784 132.5887,31.62824 129.94475,31.62824 							"/>
							<polygon fill="#FFFFFF" points="114.65139,36.7375 121.9162,44.85548 120.93968,48.97067 110.91665,40.58557 							"/>
						</g>
						<g>
							<path fill="#515FA8" d="M126.73932,54.23125c-0.10576,0.08285-0.2532,0.10576-0.38456,0.04679
								c-2.92859-1.31796-4.66642-3.56954-5.41508-4.73735c-0.52933,1.54922-1.8546,5.03052-3.95288,7.95617
								c-0.11989,0.16523-0.35384,0.20641-0.52249,0.08577c-0.16792-0.12063-0.20643-0.35434-0.08602-0.52248
								c2.65953-3.7077,4.09007-8.48989,4.10397-8.5379c0.04387-0.14769,0.17398-0.25322,0.32703-0.26662
								c0.15355-0.0134,0.29926,0.06898,0.36777,0.2069c0.01704,0.03414,1.74247,3.44841,5.48478,5.13264
								c0.18861,0.08504,0.27268,0.30635,0.18789,0.49496C126.82414,54.1474,126.78586,54.19469,126.73932,54.23125z"/>
							<path fill="#717CB8" d="M120.5222,48.65189c-0.00853-0.10187,0.02511-0.20298,0.09286-0.27952
								c0.06801-0.07652,0.16401-0.12208,0.26662-0.126c0.30853-0.01146,0.67626,0.06581,1.09251,0.22959
								c1.3506,0.53175,2.97659,1.86747,3.24832,3.09891c0.1121,0.50667-0.00976,0.9641-0.35142,1.32283
								c-0.48448,0.50789-1.10692,0.64729-1.75371,0.3931c-0.00022,0,0,0-0.00022,0
								C121.8187,52.77973,120.70303,50.78529,120.5222,48.65189z M121.32327,49.04888
								c0.27927,1.80853,1.24899,3.22299,2.06831,3.54541c0.35921,0.1411,0.66603,0.07165,0.93752-0.21299
								c0.16865-0.17719,0.22031-0.38214,0.16231-0.6451c-0.20251-0.91827-1.64085-2.11096-2.79114-2.56352
								C121.55575,49.11591,121.4305,49.07643,121.32327,49.04888z"/>
							<path fill="#717CB8" d="M117.85634,52.81167c-0.17643-1.37718,0.91705-3.26733,2.60008-4.49366
								c0.08213-0.05994,0.18472-0.08358,0.28439-0.06628c0.10064,0.01657,0.18864,0.07434,0.24541,0.15817
								c0.72892,1.07035,0.60147,3.80981-0.23493,5.05393c-0.41258,0.61412-0.98505,0.87877-1.6116,0.74474
								c-0.10601-0.02266-0.20763-0.05288-0.30219-0.09016C118.28502,53.90102,117.93652,53.437,117.85634,52.81167z
								 M118.59916,52.71662c0.0541,0.42429,0.28316,0.67067,0.69697,0.76011c0.20448,0.04337,0.5135,0.04632,0.83395-0.43085
								c0.62291-0.92634,0.73186-2.85817,0.41016-3.8437C119.18086,50.34101,118.48631,51.83807,118.59916,52.71662z"/>
						</g>
						<path fill="#F3B4A4" d="M116.999,30.86107c-0.50739,0-0.91902-0.41136-0.91902-0.919c0-0.50764,0.41164-0.919,0.91902-0.919
							h1.40104l-0.4735,1.838H116.999z"/>
						<path fill="#4D3E2E" d="M101.41076,26.79025c3.10016-1.32525,4.74271-0.03703,8.0505-0.39479
							c2.92028-0.31536,3.93092-1.70202,3.93092-3.80519c0-1.99397,1.61697-3.61069,3.6112-3.61069h13.30621
							c1.50705,0,2.72873,1.22143,2.72873,2.7285c0,1.50754-1.22168,2.72898-2.72873,2.72898h-8.49892
							c0,0-0.43502,3.98552-2.89323,3.98552h-1.91406c-0.83929,0-1.51923,0.68043-1.51923,1.5195
							c0,0.83907,0.67993,1.5195,1.51923,1.5195c0,0,1.29115,0.88024,1.21854,3.06383
							c-0.10554,3.17984-2.83526,3.58487-4.82973,3.61072c-4.59283,0.05897-5.76358,2.16602-8.98215,1.75613
							c-2.5779-0.32829-6.27317-0.3217-9.73181,1.16903c-4.82459,2.07952-7.73611,1.74686-12.22805-0.41575
							c-4.49194-2.16262-6.98746-2.32907-9.23343-2.49552s-1.97862-3.84832,0.58221-4.24239
							c7.56991-1.16466,7.85894-4.78753,11.06364-5.98925c3.32728-1.24776,5.49015,0.16645,7.98567,0.4991
							S100.15763,27.32592,101.41076,26.79025z"/>
						<path fill="#1B2B57" d="M127.40415,27.89814c0,0.56002-0.23835,1.01428-0.53275,1.01428
							c-0.29414,0-0.53275-0.45426-0.53275-1.01428c0-0.5603,0.2386-1.01431,0.53275-1.01431
							C127.1658,26.88383,127.40415,27.33784,127.40415,27.89814z"/>
					</g>
					<g>
						<g>
							<rect x="145.45818" y="10.59447" fill="#F0967C" width="20.69648" height="5.8211"/>
							<path fill="#FFFFFF" d="M148.04555,13.50477c0,0.74451,0.60318,1.34768,1.34769,1.34768
								c0.74403,0,1.34695-0.60317,1.34695-1.34768c0-0.74426-0.60292-1.34718-1.34695-1.34718
								C148.64873,12.15759,148.04555,12.76051,148.04555,13.50477z"/>
							<rect x="156.72238" y="11.67261" fill="#FFFFFF" width="8.19282" height="3.66482"/>
							<g>
								<polygon fill="#F3B29B" points="145.45818,10.59447 145.45818,16.41557 135.00256,16.41557 135.00256,15.82239 
									144.70366,15.82239 144.70366,11.18766 135.00256,11.18766 135.00256,10.59447 								"/>
								<rect x="135.68883" y="11.18766" fill="#FFFFFF" width="9.01482" height="4.63473"/>
							</g>
						</g>
						<g>
							<rect x="147.95222" y="50.98218" fill="#4AB1A7" width="20.6965" height="5.8211"/>
							<path fill="#FFFFFF" d="M150.53963,53.89248c0,0.74451,0.60316,1.34768,1.34769,1.34768
								c0.74426,0,1.34718-0.60317,1.34718-1.34768c0-0.74426-0.60292-1.34718-1.34718-1.34718
								C151.14279,52.5453,150.53963,53.14822,150.53963,53.89248z"/>
							<rect x="159.21643" y="52.06032" fill="#FFFFFF" width="8.19282" height="3.66482"/>
							<g>
								<polygon fill="#72C4B8" points="147.95222,50.98218 147.95222,56.80328 137.49664,56.80328 137.49664,56.2101 
									147.19772,56.2101 147.19772,51.57537 137.49664,51.57537 137.49664,50.98218 								"/>
								<rect x="138.18291" y="51.57537" fill="#FFFFFF" width="9.01482" height="4.63473"/>
							</g>
						</g>
						<g>
							<rect x="130.73215" y="56.80328" fill="#FFFFFF" width="24.95888" height="5.67"/>
							<rect x="155.69104" y="56.80328" fill="#CED9EF" width="18.44783" height="5.67"/>
							<rect x="132.12735" y="62.47328" fill="#FFFFFF" width="23.56369" height="22.99024"/>
							<rect x="132.12735" y="62.47328" fill="#CED9EF" width="23.56369" height="1.05451"/>
							<rect x="155.69104" y="62.47328" fill="#BFC8E5" width="17.05264" height="22.99024"/>
							<path fill="#717CB8" d="M166.36424,65.70334h-3.82393c-0.54614,0-0.98872,0.44255-0.98872,0.98845
								c0,0.54637,0.44258,0.98895,0.98872,0.98895h3.82393c0.54616,0,0.98871-0.44257,0.98871-0.98895
								C167.35295,66.14589,166.9104,65.70334,166.36424,65.70334z"/>
						</g>
						<g>
							<rect x="135.9574" y="22.23643" fill="#192751" width="20.69673" height="5.82108"/>
							<path fill="#FFFFFF" d="M154.06674,25.14698c0,0.74451-0.60316,1.34743-1.34767,1.34743
								c-0.74426,0-1.34744-0.60292-1.34744-1.34743c0-0.74404,0.60318-1.34746,1.34744-1.34746
								C153.46358,23.79952,154.06674,24.40294,154.06674,25.14698z"/>
							<rect x="137.19713" y="23.31457" fill="#FFFFFF" width="8.19257" height="3.6648"/>
							<g>
								<polygon fill="#0A183C" points="156.65413,22.23643 156.65413,28.0575 167.10974,28.0575 167.10974,27.46434 
									157.40865,27.46434 157.40865,22.82959 167.10974,22.82959 167.10974,22.23643 								"/>
								<rect x="157.40865" y="22.82959" fill="#FFFFFF" width="9.01482" height="4.63476"/>
							</g>
						</g>
						<g>
							<rect x="139.03682" y="16.41533" fill="#8DB0DC" width="20.6965" height="5.8211"/>
							<path fill="#FFFFFF" d="M157.14592,19.32612c0,0.74426-0.60316,1.34718-1.34769,1.34718
								c-0.74426,0-1.34718-0.60292-1.34718-1.34718c0-0.74429,0.60292-1.34768,1.34718-1.34768
								C156.54276,17.97844,157.14592,18.58184,157.14592,19.32612z"/>
							<rect x="140.27629" y="17.49371" fill="#FFFFFF" width="8.19282" height="3.66457"/>
							<g>
								<polygon fill="#769BD1" points="159.73332,16.41533 159.73332,22.23643 170.18893,22.23643 170.18893,21.64324 
									160.48782,21.64324 160.48782,17.00848 170.18893,17.00848 170.18893,16.41533 								"/>
								<rect x="160.48782" y="17.00848" fill="#FFFFFF" width="9.01484" height="4.63476"/>
							</g>
						</g>
						<g>
							<rect x="136.34927" y="28.0575" fill="#FFFFFF" width="20.04165" height="22.92468"/>
							<g>
								<path fill="#CED9EF" d="M156.39093,28.0575h-20.04166v4.15369h16.74484
									C153.68777,29.19511,156.39093,28.0575,156.39093,28.0575z"/>
							</g>
							<path fill="#FFFFFF" d="M156.39093,28.0575c0,0-2.83475,0.59366-3.7574,2.50528h-20.04166
								c0.92314-1.91162,3.7574-2.50528,3.7574-2.50528H156.39093z"/>
							<rect x="156.39093" y="28.0575" fill="#CED9EF" width="14.50377" height="22.92468"/>
							<g>
								<path fill="#BFC8E5" d="M156.39093,33.2986h14.50377v4.15367h-11.20744
									C159.22496,34.6336,156.39093,33.2986,156.39093,33.2986z"/>
							</g>
							<path fill="#FFFFFF" d="M156.39093,33.2986c0,0,2.83403,0.59366,3.75743,2.50528h14.50327
								c-0.92267-1.91162-3.75693-2.50528-3.75693-2.50528H156.39093z"/>
							<g>
								<polygon fill="#CED9EF" points="136.34927,38.17462 136.34927,39.9239 145.21619,37.15495 								"/>
								<polygon fill="#FFFFFF" points="134.30606,37.15495 145.21619,37.15495 136.34927,38.17462 								"/>
							</g>
							<g>
								<polygon fill="#CED9EF" points="136.34927,48.13671 136.34927,49.46977 140.89824,47.36026 								"/>
								<polygon fill="#FFFFFF" points="134.30606,47.36026 140.89824,47.36026 136.34927,48.13671 								"/>
							</g>
							<g>
								<polygon fill="#BFC8E5" points="170.8947,46.17441 170.8947,47.50747 166.34573,45.39798 								"/>
								<polygon fill="#FFFFFF" points="174.35454,45.39798 166.34573,45.39798 170.8947,46.17441 								"/>
							</g>
							<g>
								<polygon fill="#CED9EF" points="156.39093,41.96906 156.39093,43.71837 147.52354,40.94941 								"/>
								<polygon fill="#BFC8E5" points="156.39093,41.96906 156.39093,43.71837 161.59837,40.94941 								"/>
								<polygon fill="#FFFFFF" points="161.59837,40.94941 147.52354,40.94941 156.39093,41.96906 								"/>
							</g>
						</g>
					</g>
					<g>
						<g>
							<polygon fill="#F8D1C4" points="136.49306,74.3063 136.11726,77.81245 125.1365,77.39497 126.44298,73.19621 							"/>
							<path fill="#F8D1C4" d="M137.00801,78.91692c-0.55103-0.05899-0.94972-0.55321-0.89075-1.10446l0.37579-3.50616
								c0.05948-0.55101,0.5537-0.94997,1.10495-0.89098l4.005,0.42988c0.5508,0.05874,0.94948,0.55345,0.89026,1.10422
								l-0.37602,3.5064c-0.05875,0.55126-0.55371,0.94997-1.10397,0.89075L137.00801,78.91692z"/>
							<polygon fill="#F8D1C4" points="137.24123,73.42775 141.9101,71.10938 142.49158,71.85487 139.23764,74.62188 							"/>
							<g>
								<g>
									<polygon fill="#F8D1C4" points="141.17044,73.83898 147.62494,74.07893 147.63297,74.90275 141.45338,75.29025 									
										"/>
								</g>
							</g>
							<g>
								<g>
									<polygon fill="#F8D1C4" points="141.12123,76.72176 147.5316,77.51244 147.46921,78.33397 141.27866,78.19299 									"/>
								</g>
							</g>
							<g>
								<g>
									<polygon fill="#F8D1C4" points="140.99742,78.04371 146.32454,79.37811 146.18562,80.06451 140.97816,79.30173 									
										"/>
								</g>
							</g>
							<g>
								<g>
									<polygon fill="#F8D1C4" points="141.27866,75.23126 148.11356,75.82981 148.05971,76.65181 141.45338,76.70055 									
										"/>
								</g>
							</g>
						</g>
						<g>
							<path fill="#FFFFFF" d="M114.783,46.77953c-0.32706-2.38634-2.52672-4.05619-4.91306-3.72916
								c-2.38684,0.32681-4.05669,2.52671-3.72963,4.91306l4.01672,28.98193l6.9348-6.95993L114.783,46.77953z"/>
							<polygon fill="#FFFFFF" points="130.29399,71.73838 117.09184,69.98543 110.15704,76.94536 127.63202,86.29575 							"/>
						</g>
					</g>
				</g>
			</g>
		</g>
		<g>
			<path fill="#4AB1A7" d="M190.76358,176.60364c0.46082-3.57121,1.72832-5.41386,5.76016-6.68135
				c4.03206-1.26726,5.87521-5.18358,3.57098-8.98511c-2.30374-3.80177-5.64441-4.95375-3.45572-7.83409
				c2.18871-2.87958,8.23814-1.97693,8.75504-8.75478c0.39676-5.20161-6.45107-5.2991-5.18382-11.75017
				c1.26703-6.45155,0.08385-10.03155-4.60817-9.44642c-4.11031,0.51225-3.91705,8.29469-8.29419,9.79224
				c-4.3774,1.49707-9.91776,3.63847-8.40971,9.44569c1.4203,5.46844,7.2682,6.91409,1.38252,11.28979
				c-3.47009,2.58009-3.68648,7.25772-1.15198,10.59814c2.53452,3.34071,4.72272,8.40974,3.11014,12.32603H190.76358z"/>
			<path fill="#72C4B8" d="M177.52951,177.10347c-0.5527-2.91907-1.68594-4.37567-5.0683-5.22426
				c-3.38283-0.84908-5.09023-3.98576-3.377-7.22847c1.71373-3.24321,4.40956-4.35376,2.46725-6.62022
				c-1.94232-2.26643-6.88145-1.22922-7.6357-6.78786c-0.57904-4.2653,5.05707-4.67714,3.70087-9.92993
				c-1.3562-5.25252-0.55516-8.25885,3.338-8.00418c3.41063,0.22322,3.62827,6.6431,7.30646,7.66422
				c3.67848,1.02112,8.34587,2.51698,7.3847,7.37349c-0.90486,4.57285-5.65244,6.0475-0.59146,9.36674
				c2.98315,1.95715,3.38821,5.79892,1.46196,8.67387c-1.92574,2.87497-3.48299,7.15585-1.96472,10.30426L177.52951,177.10347z"/>
			<path fill="#00708A" d="M169.63695,175.8445c0,0,0,8.11142,0,11.35609c0,6.04677,1.76974,11.50352,5.16161,14.60074h17.99286
				c3.39186-3.09721,5.16214-8.55397,5.16214-14.60074c0-3.24467,0-11.35609,0-11.35609H169.63695z"/>
			<path fill="#4AB1A7" d="M171.63237,137.38376c0,0,6.50981,18.38985,9.11354,35.80292
				C180.74591,173.18668,181.55937,157.23778,171.63237,137.38376z"/>
		</g>
		<g>
			<g>
				<g>
					<path fill="#4AB1A7" d="M24.56114,158.28008v20.33607h0.65385v-20.33607c0-4.93571,4.75417-6.96819,11.86812-10.74316
						c7.11393-3.77448,7.40419-13.93689,7.40419-13.93689C26.2673,137.44662,24.56114,150.51254,24.56114,158.28008z"/>
					<path fill="#4AB1A7" d="M5.28911,140.71323c0,0,0.29023,10.16292,7.40369,13.93787
						c7.11396,3.77425,11.86835,5.80647,11.86835,10.74294h0.65385C25.21499,157.62672,23.50883,144.56058,5.28911,140.71323z"/>
					<path fill="#4AB1A7" d="M37.07994,158.0181c0,0-0.17865,6.25685-4.55847,8.58055
						c-4.37959,2.3242-7.30648,3.57513-7.30648,6.61435h-0.40235C24.81264,168.4308,25.86275,160.38664,37.07994,158.0181z"/>
					<path fill="#4AB1A7" d="M12.69571,163.42149c0,0,0.17913,6.25682,4.55897,8.58031
						c4.37984,2.3242,7.30646,3.57535,7.30646,6.61435h0.4026C24.96374,173.83469,23.91313,165.78979,12.69571,163.42149z"/>
					<path fill="#4AB1A7" d="M37.07994,125.2717c0,0-0.17865,6.25635-4.55847,8.58029
						c-4.37959,2.32373-7.30648,3.57539-7.30648,6.61389h-0.40235C24.81264,135.6844,25.86275,127.64002,37.07994,125.2717z"/>
					<rect x="24.56114" y="133.00562" fill="#4AB1A7" width="0.65385" height="45.61053"/>
					<path fill="#4AB1A7" d="M12.69571,130.67509c0,0,0.17913,6.25682,4.55897,8.58031
						c4.37984,2.32346,7.30646,3.57513,7.30646,6.61435h0.4026C24.96374,141.08755,23.91313,133.0434,12.69571,130.67509z"/>
					<path fill="#4AB1A7" d="M22.03662,113.44917c0,0-3.51517,5.17896-1.32232,9.6258
						c2.19259,4.44684,3.84685,6.89168,3.84685,9.93065h0.65385C25.21499,128.22417,29.74861,121.93199,22.03662,113.44917z"/>
				</g>
			</g>
			<path fill="#00708A" d="M11.84958,177.83897c0,0,0,7.48851,0,10.48389c0,5.582,1.63379,10.61935,4.7649,13.47847h16.61006
				c3.13111-2.85912,4.76537-7.89647,4.76537-13.47847c0-2.99538,0-10.48389,0-10.48389H11.84958z"/>
		</g>
		<g>
			<g>
				<rect x="36.05566" y="175.30153" fill="#F3B29B" width="20.69673" height="5.8211"/>
				<path fill="#FFFFFF" d="M54.16501,178.21233c0,0.74426-0.60317,1.34769-1.34768,1.34769
					c-0.74429,0-1.34746-0.60342-1.34746-1.34769s0.60317-1.34769,1.34746-1.34769
					C53.56184,176.86464,54.16501,177.46806,54.16501,178.21233z"/>
				<rect x="37.29536" y="176.38016" fill="#FFFFFF" width="8.19257" height="3.66432"/>
				<g>
					<polygon fill="#F0967C" points="56.75239,175.30153 56.75239,181.12262 67.20799,181.12262 67.20799,180.52946 
						57.50691,180.52946 57.50691,175.89471 67.20799,175.89471 67.20799,175.30153 					"/>
					<rect x="57.50691" y="175.89471" fill="#FFFFFF" width="9.01482" height="4.63476"/>
				</g>
			</g>
			<g>
				<rect x="41.6869" y="169.48045" fill="#4AB1A7" width="20.6965" height="5.82108"/>
				<path fill="#FFFFFF" d="M44.27406,172.39122c0,0.74429,0.60342,1.34769,1.34768,1.34769
					c0.74427,0,1.34743-0.60339,1.34743-1.34769c0-0.74426-0.60317-1.34767-1.34743-1.34767
					C44.87748,171.04355,44.27406,171.64696,44.27406,172.39122z"/>
				<rect x="52.95111" y="170.55907" fill="#FFFFFF" width="8.19257" height="3.66432"/>
				<g>
					<polygon fill="#72C4B8" points="41.6869,169.48045 41.6869,175.30153 31.23107,175.30153 31.23107,174.70836 
						40.93241,174.70836 40.93241,170.07411 31.23107,170.07411 31.23107,169.48045 					"/>
					<rect x="31.91734" y="170.07411" fill="#FFFFFF" width="9.01507" height="4.63426"/>
				</g>
			</g>
			<g>
				<rect x="33.99221" y="181.12262" fill="#FFFFFF" width="20.04143" height="22.92468"/>
				<g>
					<path fill="#CED9EF" d="M54.03364,181.12262H33.99221v4.15367h16.74485
						C51.33049,182.26024,54.03364,181.12262,54.03364,181.12262z"/>
				</g>
				<path fill="#FFFFFF" d="M54.03364,181.12262c0,0-2.83451,0.59367-3.75743,2.50528h-20.0414
					c0.92289-1.91161,3.75741-2.50528,3.75741-2.50528H54.03364z"/>
				<rect x="54.03364" y="181.12262" fill="#CED9EF" width="14.50374" height="22.92468"/>
				<g>
					<path fill="#BFC8E5" d="M54.03364,186.36372h14.50374v4.15367H57.3302
						C56.86816,187.69873,54.03364,186.36372,54.03364,186.36372z"/>
				</g>
				<path fill="#FFFFFF" d="M54.03364,186.36372c0,0,2.83451,0.59366,3.7574,2.50525h14.50352
					c-0.92267-1.91159-3.75718-2.50525-3.75718-2.50525H54.03364z"/>
				<g>
					<polygon fill="#CED9EF" points="33.99221,191.23972 33.99221,192.98903 42.85912,190.22008 					"/>
					<polygon fill="#FFFFFF" points="31.94876,190.22008 42.85912,190.22008 33.99221,191.23972 					"/>
				</g>
				<g>
					<polygon fill="#CED9EF" points="33.99221,201.20232 33.99221,202.53537 38.54095,200.42538 					"/>
					<polygon fill="#FFFFFF" points="31.94876,200.42538 38.54095,200.42538 33.99221,201.20232 					"/>
				</g>
				<g>
					<polygon fill="#BFC8E5" points="68.53738,199.23953 68.53738,200.57259 63.98842,198.46307 					"/>
					<polygon fill="#FFFFFF" points="70.58059,198.46307 63.98842,198.46307 68.53738,199.23953 					"/>
				</g>
				<g>
					<polygon fill="#CED9EF" points="54.03364,195.03418 54.03364,196.78349 45.16651,194.01454 					"/>
					<polygon fill="#BFC8E5" points="54.03364,195.03418 54.03364,196.78349 59.24134,194.01454 					"/>
					<polygon fill="#FFFFFF" points="59.24134,194.01454 45.16651,194.01454 54.03364,195.03418 					"/>
				</g>
			</g>
		</g>
		<g>
			<g>
				<path fill="#72C4B8" d="M172.75488,182.49419c-4.01527,5.48431-3.2281,10.91304-3.2281,10.91304l3.2281,1.34329l3.22807-1.34329
					C175.98296,193.40723,176.77013,187.9785,172.75488,182.49419z"/>
				<path fill="#97D0CC" d="M171.74741,193.07141c0,0-1.90257-6.49178-8.00298-8.00275c0,0,1.23145,5.37268,3.35799,8.84253
					L171.74741,193.07141z"/>
				<path fill="#97D0CC" d="M173.76234,193.07141c0,0,1.90234-6.49178,8.00273-8.00275c0,0-1.23119,5.37268-3.35774,8.84253
					L173.76234,193.07141z"/>
			</g>
			<path fill="#FFFFFF" d="M165.58466,192.50894c0,0,0,2.50136,0,4.14441c0,3.06238,0.89633,5.82547,2.61395,7.39395h9.11206
				c1.71762-1.56848,2.61397-4.33157,2.61397-7.39395c0-1.64305,0-4.14441,0-4.14441H165.58466z"/>
		</g>
		<g>
			<rect x="81.2141" y="189.43024" fill="#FFFFFF" width="20.04118" height="20.12475"/>
			<g>
				<path fill="#CED9EF" d="M101.25529,189.43024H81.2141v4.15343h16.74485
					C98.55211,190.5676,101.25529,189.43024,101.25529,189.43024z"/>
			</g>
			<path fill="#FFFFFF" d="M101.25529,189.43024c0,0-2.83427,0.59341-3.75743,2.505H77.45667
				c0.92267-1.91159,3.75743-2.505,3.75743-2.505H101.25529z"/>
			<rect x="101.25529" y="189.43024" fill="#CED9EF" width="14.50374" height="20.12475"/>
			<g>
				<path fill="#BFC8E5" d="M101.25529,194.67131h14.50374v4.15344h-11.20693
					C104.09002,196.00632,101.25529,194.67131,101.25529,194.67131z"/>
			</g>
			<path fill="#FFFFFF" d="M101.25529,194.67131c0,0,2.83473,0.59341,3.7574,2.50502h14.50378
				c-0.92268-1.91161-3.75744-2.50502-3.75744-2.50502H101.25529z"/>
			<g>
				<polygon fill="#CED9EF" points="81.2141,199.54709 81.2141,201.29639 90.08099,198.52766 				"/>
				<polygon fill="#FFFFFF" points="79.1704,198.52766 90.08099,198.52766 81.2141,199.54709 				"/>
			</g>
			<g>
				<polygon fill="#BFC8E5" points="115.75903,205.81171 115.75903,207.14478 111.21007,205.03528 				"/>
				<polygon fill="#FFFFFF" points="117.80224,205.03528 111.21007,205.03528 115.75903,205.81171 				"/>
			</g>
		</g>
	</g>
</g>
</svg>
