<?xml version="1.0" encoding="utf-8"?>
<!-- Generator: Adobe Illustrator 24.1.3, SVG Export Plug-In . SVG Version: 6.00 Build 0)  -->
<svg version="1.1" id="레이어_1" xmlns="http://www.w3.org/2000/svg" xmlns:xlink="http://www.w3.org/1999/xlink" x="0px"
	 y="0px" viewBox="0 0 595.28 263" style="enable-background:new 0 0 595.28 263;" xml:space="preserve">
<style type="text/css">
	.st0{fill:url(#SVGID_1_);}
	.st1{fill:#189AC9;}
	.st2{fill:#44A6D5;}
	.st3{fill:#168AC3;}
	.st4{fill:#FFFFFF;}
	.st5{fill:#1777B2;}
	.st6{fill:#08609D;}
</style>
<g>
	
		<linearGradient id="SVGID_1_" gradientUnits="userSpaceOnUse" x1="-658.789" y1="122.0802" x2="-657.663" y2="122.0802" gradientTransform="matrix(191.1199 -5.0741 5.0741 191.1199 125322.5781 -26540.2813)">
		<stop  offset="0" style="stop-color:#4ABDE5"/>
		<stop  offset="1" style="stop-color:#A8DAF1"/>
	</linearGradient>
	<path class="st0" d="M124.52,33.39C58.67,33.4,27.39,84.82,27.39,135.74c0,44.44,23.34,82.17,73.38,95.64
		c-22.13-16.98-33.22-41.02-26.12-72.41c4.93-21.82,14.75-40.77,27.99-56.75c1.17-5.07,2.77-10.05,4.84-14.87
		c10.39-24.22,27.1-39.57,49.89-50.49c-4.31-0.74-8.72-1.41-13.21-2.05C137.3,33.85,130.75,33.39,124.52,33.39"/>
	<g>
		<g>
			<path id="SVGID_2_" class="st1" d="M102.64,102.22c-13.24,15.98-23.06,34.93-27.99,56.75c-7.1,31.39,3.99,55.43,26.12,72.41
				c12.72,3.43,27.16,5.27,43.39,5.27c25.1,0,48.71-4.44,69.3-12.25C125.48,214.7,91.01,153.29,102.64,102.22"/>
		</g>
	</g>
	<g>
		<g>
			<path id="SVGID_4_" class="st2" d="M157.37,36.87c-22.79,10.91-39.5,26.26-49.89,50.49c-2.07,4.82-3.67,9.8-4.84,14.87
				c23.55-28.39,57.94-47.37,95.1-56.28C185.35,42.35,171.87,39.32,157.37,36.87"/>
		</g>
	</g>
	<g>
		<g>
			<path id="SVGID_6_" class="st3" d="M197.74,45.95c-37.16,8.91-71.55,27.89-95.1,56.28C91.01,153.29,125.48,214.7,213.46,224.4
				c45.09-17.1,75.69-50.4,75.69-88.66C289.16,92.14,255.42,62.73,197.74,45.95"/>
		</g>
	</g>
	<path class="st4" d="M196.03,84.98l-23.15,121.93h-26.06l23.15-121.93H196.03z"/>
	<path class="st4" d="M202.18,178.68c7.24,4.35,17.55,7.78,28.77,7.78c10.11,0,19.34-4.69,19.34-14.28c0-6.88-5.25-11.4-16.45-17.19
		c-13.03-7.05-25.33-16.46-25.33-32.38c0-24.59,21.53-39.61,48.13-39.61c14.82,0,23.51,3.26,28.76,6.16l-8.15,21.71
		c-3.97-2.18-12.66-5.62-22.78-5.43c-12.12,0-18.46,6.16-18.46,12.85c0,7.05,7.42,11.4,17.73,17.19
		c14.83,7.78,24.24,17.72,24.24,32.2c0,27.13-22.43,41.25-49.55,41.25c-17.01-0.37-29.14-4.52-34.92-8.87L202.18,178.68z"/>
	<path class="st5" d="M305.96,87.33c7.77-1.99,20.07-3.24,31.83-3.24c10.85,0,23.52,1.81,32.39,8.14
		c8.14,5.61,13.2,14.11,13.2,25.86c0,15.39-7.05,26.97-16.64,34.38c-9.94,7.78-24.06,11.22-38.9,11.22c-4.34,0-7.95-0.37-10.67-0.72
		l-8.32,43.96h-25.5L305.96,87.33z M321.15,141.79c2.71,0.54,5.6,0.9,9.95,0.9c15.73,0,26.04-10.13,26.04-22.25
		c0-11.76-8.5-15.56-18.63-15.56c-4.88,0-8.32,0.36-10.5,0.91L321.15,141.79z"/>
	<path class="st6" d="M408.15,207.42c0.14-3.92,0.54-8.38,0.95-13.11h-0.41c-6.08,10.95-14.45,14.6-22.17,14.6
		c-11.88,0-20-9.19-20-22.98c0-22.31,14.72-46.09,47.3-46.09c7.84,0,16.36,1.49,21.9,3.23l-7.03,34.61
		c-1.62,8.52-2.84,21.5-2.57,29.74L408.15,207.42L408.15,207.42z M413.83,155.1c-1.49-0.27-3.38-0.54-5.27-0.54
		c-12.57,0-21.75,15.41-21.75,27.72c0,6.49,2.57,10.95,7.96,10.95c5.83,0,12.98-6.63,15.95-22.85L413.83,155.1z"/>
	<path class="st6" d="M440.45,207.42l7.45-39.34c1.88-9.99,2.69-21.09,3.38-26.75h16.89c-0.41,4.46-0.81,8.92-1.22,13.51h0.41
		c4.59-8.79,12.03-14.99,21.08-14.99c1.23,0,2.44,0,3.65,0.13l-3.77,18.92c-0.95,0-2.03-0.13-3.11-0.13
		c-12.44,0-18.25,11.09-20.68,24.06l-4.6,24.6L440.45,207.42L440.45,207.42z"/>
	<path class="st6" d="M490.47,207.42l18.1-95.97h19.33l-10.81,57.45h0.27c2.03-2.57,4.06-5.14,5.95-7.57l16.9-20h23.93l-28.12,27.16
		l18.38,38.94h-21.62l-11.62-28.25l-7.3,7.03l-4.06,21.23h-19.33V207.42z"/>
</g>
</svg>
