<?xml version="1.0" encoding="utf-8"?>
<!-- Generator: Adobe Illustrator 24.1.3, SVG Export Plug-In . SVG Version: 6.00 Build 0)  -->
<svg version="1.1" id="Layer_1" xmlns="http://www.w3.org/2000/svg" xmlns:xlink="http://www.w3.org/1999/xlink" x="0px" y="0px"
	 viewBox="0 0 531 356" style="enable-background:new 0 0 531 356;" xml:space="preserve">
<style type="text/css">
	.st0{fill:#DBDBDB;}
	.st1{fill:url(#SVGID_1_);}
	.st2{fill:url(#SVGID_2_);}
	.st3{fill:url(#SVGID_3_);}
	.st4{fill:#8D3269;}
	.st5{fill:#66C3CA;}
	.st6{fill:#00B4BD;}
	.st7{fill:#E5E7ED;}
	.st8{fill:#FFFFFF;}
	.st9{fill:#D7DBE2;}
	.st10{fill:#2B2B75;}
	.st11{fill:#F19106;}
	.st12{fill:url(#SVGID_4_);}
	.st13{fill:#1A1455;}
	.st14{fill:#F6BDB7;}
	.st15{fill:url(#SVGID_5_);}
	.st16{fill:url(#SVGID_6_);}
	.st17{fill:#E8557D;}
	.st18{fill:#F19D98;}
	.st19{fill:#CA4374;}
	.st20{fill:url(#SVGID_7_);}
	.st21{fill:#C64C68;}
	.st22{fill:#EF874A;}
	.st23{fill:url(#SVGID_8_);}
	.st24{fill:#F2F2F2;}
	.st25{fill:#C6DBF1;}
	.st26{fill:#9BD4D5;}
	.st27{fill:#F2A6B2;}
	.st28{fill:#C2C8D7;}
	.st29{fill:#F3A26A;}
	.st30{fill:#FFD524;}
	.st31{fill:url(#SVGID_9_);}
	.st32{fill:#0095A5;}
	.st33{fill:url(#SVGID_10_);}
	.st34{fill:url(#SVGID_11_);}
	.st35{fill:url(#SVGID_12_);}
	.st36{fill:url(#SVGID_13_);}
	.st37{fill:#58308D;}
	.st38{fill:#4763C2;}
	.st39{fill:#FFCB36;}
	.st40{fill:#090749;}
</style>
<g>
	<path class="st0" d="M493.97,303.1c0,1.36-7.21,2.46-16.09,2.46c-8.89,0-16.09-1.1-16.09-2.46s7.21-2.46,16.09-2.46
		S493.97,301.74,493.97,303.1z"/>
	<path class="st0" d="M447.53,303.1c0,1.69-8.96,3.06-20.02,3.06s-20.02-1.37-20.02-3.06s8.96-3.06,20.02-3.06
		C438.57,300.05,447.53,301.41,447.53,303.1z"/>
	<ellipse class="st0" cx="255.1" cy="315.3" rx="134.38" ry="12.28"/>
	<g>
		
			<linearGradient id="SVGID_1_" gradientUnits="userSpaceOnUse" x1="451.685" y1="79.55" x2="451.685" y2="244.55" gradientTransform="matrix(1 0 0 -1 0 358)">
			<stop  offset="0" style="stop-color:#CCC4E2"/>
			<stop  offset="0.0417" style="stop-color:#D3CDE5"/>
			<stop  offset="0.1501" style="stop-color:#E1DEEB"/>
			<stop  offset="0.285" style="stop-color:#EBE9EF"/>
			<stop  offset="0.4744" style="stop-color:#F0F0F1"/>
			<stop  offset="1" style="stop-color:#F2F2F2"/>
		</linearGradient>
		<polygon class="st1" points="451.69,113.45 502.08,278.45 401.29,278.45 		"/>
		
			<linearGradient id="SVGID_2_" gradientUnits="userSpaceOnUse" x1="392.605" y1="79.55" x2="392.605" y2="208.5" gradientTransform="matrix(1 0 0 -1 0 358)">
			<stop  offset="0" style="stop-color:#CCC4E2"/>
			<stop  offset="0.0417" style="stop-color:#D3CDE5"/>
			<stop  offset="0.1501" style="stop-color:#E1DEEB"/>
			<stop  offset="0.285" style="stop-color:#EBE9EF"/>
			<stop  offset="0.4744" style="stop-color:#F0F0F1"/>
			<stop  offset="1" style="stop-color:#F2F2F2"/>
		</linearGradient>
		<polygon class="st2" points="392.61,149.5 431.99,278.45 353.22,278.45 		"/>
		
			<linearGradient id="SVGID_3_" gradientUnits="userSpaceOnUse" x1="124.745" y1="79.55" x2="124.745" y2="208.5" gradientTransform="matrix(1 0 0 -1 0 358)">
			<stop  offset="0" style="stop-color:#CCC4E2"/>
			<stop  offset="0.0417" style="stop-color:#D3CDE5"/>
			<stop  offset="0.1501" style="stop-color:#E1DEEB"/>
			<stop  offset="0.285" style="stop-color:#EBE9EF"/>
			<stop  offset="0.4744" style="stop-color:#F0F0F1"/>
			<stop  offset="1" style="stop-color:#F2F2F2"/>
		</linearGradient>
		<polygon class="st3" points="124.75,149.5 164.13,278.45 85.36,278.45 		"/>
	</g>
	<path class="st4" d="M228.39,68.96c0,8.73,7.07,15.8,15.8,15.8h27.82c8.73,0,15.8-7.07,15.8-15.8s-7.08-15.8-15.8-15.8h-5.45V42.44
		c4.24-2.92,7.03-7.8,7.03-13.34c0-8.94-7.24-16.18-16.18-16.18s-16.18,7.24-16.18,16.18c0,5.54,2.78,10.42,7.03,13.34v10.72h-4.06
		C235.47,53.16,228.39,60.24,228.39,68.96z M266.35,29.1c0,4.94-4,8.94-8.94,8.94s-8.94-4-8.94-8.94s4-8.94,8.94-8.94
		C262.35,20.16,266.35,24.16,266.35,29.1z"/>
	<g>
		<g>
			<g>
				<path class="st5" d="M164.78,64.73h168.88v252.62H164.78c-3.68,0-6.66-2.98-6.66-6.66V71.4
					C158.12,67.72,161.1,64.73,164.78,64.73z"/>
				<path class="st6" d="M168.44,310.69c0,3.68,2.98,6.66,6.66,6.66h168.88c3.68,0,6.66-2.98,6.66-6.66V71.4
					c0-3.68-2.98-6.66-6.66-6.66H175.1c-3.68,0-6.66,2.98-6.66,6.66V310.69z"/>
			</g>
			<g>
				<g>
					<g>
						<rect x="176.93" y="79.16" class="st7" width="162.77" height="229.42"/>
					</g>
				</g>
				<g>
					<g>
						<polygon class="st8" points="180.54,76.33 343.31,76.33 343.31,305.75 207.56,305.75 180.54,278.73 						"/>
					</g>
					<g>
						<rect x="193.8" y="94.08" class="st9" width="42.63" height="25.12"/>
						<rect x="239.32" y="94.08" class="st9" width="42.63" height="25.12"/>
						<rect x="284.84" y="94.08" class="st9" width="42.63" height="25.12"/>
						<rect x="296.47" y="123.08" class="st10" width="31" height="9.84"/>
					</g>
				</g>
			</g>
		</g>
	</g>
	<g>
		<path class="st11" d="M195.53,34.58c0.05-1.59-1.91-1.82-2.49-0.5s-0.49,2.36-1.71,2.88c-1.22,0.51-2.27,0.93-2.31,2.36
			c-0.03,1.32-0.4,2.75-1.92,2.4c-0.88-0.2-1.37,0.25,0.08,0.61c1.84,0.47,2.74-0.83,3.21-2.21c0.47-1.38,1.11-0.83,2.94-1.85
			C195.37,37.13,195.5,35.54,195.53,34.58z"/>
		<path class="st11" d="M200.73,37.52c0-1.7-1.27-3.1-2.97-3.1s-3.6,0.52-3.55,3.01c0.02,1.13,0.23,3.25,2.36,3.48
			c1.9,0.2,2.35-0.23,2.35-0.23S200.73,40.88,200.73,37.52z"/>
		<g>
			
				<linearGradient id="SVGID_4_" gradientUnits="userSpaceOnUse" x1="-7287.8423" y1="1894.5967" x2="-7284.8809" y2="1877.0308" gradientTransform="matrix(0.4875 -0.8731 -0.8731 -0.4875 5404.8457 -5378.0332)">
				<stop  offset="0" style="stop-color:#2B2B75"/>
				<stop  offset="1" style="stop-color:#1A1455"/>
			</linearGradient>
			<path class="st12" d="M198.16,56.97c4.38,2.11,14.35,8.19,17.33,9.99c2.44,1.48,1.17,2.26,0.58,2.83
				c-0.89,0.84-7.18,0.6-13.45-2.36c-5.74-2.71-6.71-5.91-7.39-6.9C194.55,59.54,195.89,55.88,198.16,56.97z"/>
			<g>
				<path class="st13" d="M217.82,69.3c1.81,2.96,9.99,16.19,10.77,17.52c0.45,0.77-0.46,1.18-0.86,0.77
					c-1.3-1.34-8.1-8.62-9.86-10.86c-0.86-1.1-2.81-4.68-3.14-5.9C213.83,67.38,215.9,66.16,217.82,69.3z"/>
				<path class="st14" d="M224.32,83.96c1.55,1.68,2.9,3.11,3.41,3.63c0.4,0.41,1.31,0,0.86-0.77c-0.24-0.41-1.19-1.97-2.44-4
					C225.61,83.28,224.98,83.66,224.32,83.96z"/>
				<g>
					<g>
						<path class="st14" d="M227.73,87.59c0.7,0.95,0.63,1.57,1.41,1.84c0,0,1.67-1.23,2.52-1.86c0.25-0.19,0.25-0.4-0.09-0.39
							c-0.31,0.01-0.64,0.12-1.14,0.31c-0.96,0.36-1.21,0.18-1.84-0.68C227.96,85.96,227.25,86.93,227.73,87.59z"/>
					</g>
					<g>
						<path class="st13" d="M231.58,87.19c-0.31,0.01-0.64,0.12-1.14,0.31c-0.06,0.02-0.13,0.05-0.19,0.06
							c-0.25,0.37-0.87,1.12-1.81,1.24c0.16,0.29,0.34,0.5,0.71,0.63c0,0,1.67-1.23,2.52-1.86
							C231.92,87.39,231.92,87.17,231.58,87.19z"/>
					</g>
				</g>
			</g>
		</g>
		<g>
			<path class="st10" d="M196.52,57.26c3.55,3.32,11.19,12.16,13.5,14.77c1.89,2.14,0.45,2.51-0.29,2.87
				c-1.1,0.54-6.99-1.6-12.1-6.3c-4.67-4.29-4.98-7.61-4.96-8.82C192.68,58.59,194.69,55.55,196.52,57.26z"/>
			<g>
				<path class="st10" d="M210.3,75.85c-1.74,3-9.47,16.51-10.26,17.82c-0.46,0.76-1.25,0.15-1.09-0.39
					c0.56-1.79,3.72-11.23,4.84-13.84c0.55-1.28,2.77-4.7,3.69-5.57C210.08,71.44,212.14,72.67,210.3,75.85z"/>
				<path class="st14" d="M200.51,88.56c-0.73,2.17-1.35,4.03-1.57,4.73c-0.17,0.54,0.63,1.15,1.09,0.39
					c0.25-0.41,1.16-1.99,2.35-4.06C201.72,89.37,201.09,89,200.51,88.56z"/>
				<g>
					<g>
						<path class="st14" d="M198.95,93.29c-0.5,1.07-1.08,1.31-0.95,2.12c0,0,1.88,0.88,2.83,1.33c0.28,0.13,0.48,0.03,0.3-0.26
							c-0.16-0.26-0.41-0.5-0.82-0.86c-0.77-0.67-0.73-0.98-0.28-1.94C200.49,92.71,199.3,92.55,198.95,93.29z"/>
					</g>
					<g>
						<path class="st13" d="M201.13,96.48c-0.16-0.26-0.41-0.5-0.82-0.86c-0.05-0.05-0.1-0.09-0.15-0.13c-0.45-0.04-1.4-0.23-1.96-1
							c-0.18,0.28-0.28,0.54-0.21,0.93c0,0,1.88,0.88,2.83,1.33C201.12,96.87,201.31,96.77,201.13,96.48z"/>
					</g>
				</g>
			</g>
		</g>
		<g>
			
				<linearGradient id="SVGID_5_" gradientUnits="userSpaceOnUse" x1="-5854.8911" y1="722.87" x2="-5854.7817" y2="719.482" gradientTransform="matrix(0.82 -0.5724 -0.5724 -0.82 5417.4419 -2713.6821)">
				<stop  offset="0" style="stop-color:#E8557D"/>
				<stop  offset="1" style="stop-color:#CA4374"/>
			</linearGradient>
			<path class="st15" d="M200.59,44.77c1.74,0.12,6.53,1.04,7.71,1.31c1.19,0.27,1.47,2.3-0.86,2.16s-5.24,0.01-6.51-0.02
				C198.77,48.17,198.11,44.6,200.59,44.77z"/>
			<g>
				<g>
					<g>
						<path class="st14" d="M210.36,38.17c-0.13,0.53,0.24,1.07-0.19,2.34c-0.25,0.73,0.82,1.45,1.11,0.35
							c0.28-1.1,0.47-1.59,0.36-2.24C211.56,38.23,210.47,37.69,210.36,38.17z"/>
					</g>
					<g>
						
							<rect x="210.03" y="26.16" transform="matrix(0.9476 -0.3194 0.3194 0.9476 -0.2146 68.9972)" class="st10" width="0.45" height="17.98"/>
						<polygon class="st6" points="207.88,27.41 216.25,28.06 209.82,33.17 						"/>
					</g>
					<path class="st14" d="M210.77,38.46c0.31-0.42,0.61-1.05,0.63-1.26s-0.4-0.22-0.86,0.54C210.08,38.5,210.52,38.81,210.77,38.46
						z"/>
					<path class="st14" d="M211.54,37.4c-0.39-0.01-0.69,0.5-0.52,0.98s0.22,0.99,0.73,0.88s0.43-0.56,0.34-0.95
						C211.99,37.92,212.01,37.41,211.54,37.4z"/>
				</g>
				
					<linearGradient id="SVGID_6_" gradientUnits="userSpaceOnUse" x1="-8115.0664" y1="4791.563" x2="-8114.957" y2="4788.1743" gradientTransform="matrix(-0.2195 -0.9756 -0.9756 0.2195 3095.8191 -8922.8047)">
					<stop  offset="0" style="stop-color:#E8557D"/>
					<stop  offset="1" style="stop-color:#CA4374"/>
				</linearGradient>
				<path class="st16" d="M211.27,40.87c-0.36,1.18-1.49,5.91-2.26,6.85c-0.77,0.94-2.51,0.4-1.56-1.73
					c1.23-2.74,2.08-4.38,2.71-5.47C210.54,39.86,211.39,40.46,211.27,40.87z"/>
				<path class="st14" d="M210.16,40.52c-0.4,0.69-0.89,1.6-1.5,2.87c0.67-0.08,1.28,0.08,1.8,0.4c0.35-1.24,0.65-2.41,0.8-2.92
					C211.39,40.46,210.54,39.86,210.16,40.52z"/>
			</g>
		</g>
		<path class="st17" d="M196.1,39.93c0.1,0.84,0.61,2.84,0.2,3.5c-0.74,1.21-2.29,0.89-3.28,1.24c-1.33,0.47-1.02,1.27-0.71,2.73
			c0.49,2.32,2.07,4.72,2.21,5.89c0.23,1.84-0.82,3.02-1.7,5.19c0,0,1.82,0.59,4.65,0.59c2.83,0,3.96-0.46,3.96-0.46
			c-0.19-2.02-0.62-4.31-0.6-5.52c0.02-1.21,0.22-1.83,0.22-1.83s1.03-0.18,1.15-1.23s-0.79-2.51-0.79-2.51s0.18-1.5-0.07-2.05
			s-1.24-0.85-1.98-1.17c-0.74-0.33-0.42-2.78-0.5-3.42C198.79,40.24,195.96,38.76,196.1,39.93z"/>
		<g>
			<path class="st14" d="M198.36,46.88c1.64-0.03,1.89-2.23,1.89-2.23c-0.29-0.13-0.61-0.25-0.88-0.37
				c-0.74-0.33-0.42-2.78-0.5-3.42c-0.08-0.64-2.91-2.11-2.77-0.94c0.1,0.84,0.61,2.84,0.2,3.5c-0.38,0.63-0.99,0.84-1.62,0.95
				C194.69,44.39,195.84,46.93,198.36,46.88z"/>
		</g>
		<g>
			<path class="st18" d="M196.84,40.75c-0.08-0.77-0.1-1.06-0.16-1.54c-0.14-1.17,2.1,1.03,2.18,1.66c0.05,0.39-0.05,1.48,0.04,2.33
				C197.91,43.04,197.42,41.41,196.84,40.75z"/>
		</g>
		<g>
			<path class="st14" d="M195.04,37.52c0,1.08,0.2,1.45,0.81,2.1c0.83,0.88,1.19,1.91,2.28,2.07c1.39,0.2,2.24-1.95,2.25-4.08
				c0.01-1.5-1.12-2.74-2.63-2.74S195.04,36.02,195.04,37.52z"/>
			<path class="st11" d="M200.46,38.54c0,0,0.95-4.14-3.05-3.85c-3.09,0.23-2.5,3.53-2.4,3.91l0.92,0.49c0,0,0.1-0.25,0.14-1.02
				c0,0,0.86-0.7,0.9-1.29C196.98,36.77,198.13,38.5,200.46,38.54z"/>
			<path class="st14" d="M195.66,38.58c-0.38-0.32-0.95-0.11-0.96,0.5c-0.01,0.62,0.64,0.69,0.89,1s0.67,0.17,0.66-0.1
				C196.23,39.52,195.91,38.79,195.66,38.58z"/>
		</g>
		<g>
			<path class="st17" d="M192.49,44.81c-1.61,0.67-5.84,3.09-6.88,3.73c-1.04,0.64-0.65,2.66,1.51,1.77
				c2.16-0.88,4.97-1.68,6.16-2.11C195.31,47.45,194.79,43.86,192.49,44.81z"/>
			<g>
				<g>
					<g>
						<path class="st14" d="M181.12,41.71c0.29,0.46,0.12,1.09,0.94,2.16c0.47,0.61-0.31,1.64-0.93,0.69s-0.96-1.35-1.06-2
							C180,42.15,180.86,41.29,181.12,41.71z"/>
					</g>
					<g>
						
							<rect x="180.02" y="29.83" transform="matrix(1 -2.278541e-03 2.278541e-03 1 -0.088 0.4108)" class="st10" width="0.45" height="17.98"/>
						<polygon class="st17" points="180,30.73 172.28,34.03 180.01,36.8 						"/>
					</g>
					<path class="st14" d="M180.82,42.12c-0.43-0.3-0.91-0.8-1-0.99c-0.09-0.2,0.31-0.34,0.99,0.24
						C181.49,41.93,181.17,42.37,180.82,42.12z"/>
					<path class="st14" d="M179.76,41.37c0.37-0.13,0.81,0.25,0.81,0.76c-0.01,0.5,0.11,1.01-0.41,1.07s-0.59-0.39-0.62-0.79
						C179.5,41.99,179.31,41.53,179.76,41.37z"/>
				</g>
				<path class="st17" d="M181.13,44.56c0.72,1,3.31,5.11,4.35,5.76c1.03,0.65,2.51-0.43,0.92-2.14c-2.04-2.2-3.37-3.47-4.33-4.31
					C181.49,43.37,180.88,44.21,181.13,44.56z"/>
				<path class="st14" d="M182.06,43.87c0.6,0.53,1.36,1.23,2.35,2.23c-0.66,0.14-1.19,0.49-1.58,0.96c-0.73-1.06-1.39-2.07-1.7-2.5
					C180.88,44.21,181.49,43.37,182.06,43.87z"/>
			</g>
		</g>
	</g>
	<g>
		<rect x="254.46" y="39.75" class="st19" width="18.31" height="18.95"/>
		<g>
			<path class="st17" d="M247.44,29.1c0,8.94,7.24,16.18,16.18,16.18c8.94,0,16.18-7.24,16.18-16.18s-7.24-16.18-16.18-16.18
				C254.68,12.92,247.44,20.17,247.44,29.1z M254.68,29.1c0-4.94,4-8.94,8.94-8.94s8.94,4,8.94,8.94s-4,8.94-8.94,8.94
				C258.68,38.04,254.68,34.04,254.68,29.1z"/>
		</g>
		<path class="st17" d="M250.41,53.16h27.82c8.73,0,15.8,7.07,15.8,15.8s-7.07,15.8-15.8,15.8h-27.82c-8.73,0-15.8-7.07-15.8-15.8
			C234.6,60.24,241.68,53.16,250.41,53.16z"/>
		<path class="st19" d="M294.03,68.96c0,8.73-7.07,15.8-15.8,15.8h-27.82c-8.73,0-15.8-7.07-15.8-15.8H294.03z"/>
	</g>
	<g>
		<g>
			<g>
				<path class="st14" d="M61.61,254.45c-0.45-1.29,0.7-1.3,1.09-1.69c0.4-0.39,0.5-1.19,0.34-1.79c-0.16-0.59-0.44-0.22-0.67,0.16
					c-0.22,0.38-0.12,0.75-1.32,1.26c-1.56,0.66-0.88,1.3-0.58,2.43C60.78,255.94,61.87,255.19,61.61,254.45z"/>
			</g>
			<path class="st17" d="M55.7,262.33c1.66-0.64,6.5-1.84,7.72-2.1c1.22-0.26,2.36,1.5,0.14,2.38c-2.22,0.87-4.86,2.26-6.05,2.78
				C55.47,266.27,53.33,263.24,55.7,262.33z"/>
			<path class="st17" d="M60.48,254.81c0.37,1.2,1.57,6.03,2.37,6.99s2.57,0.39,1.58-1.78c-1.28-2.79-2.16-4.46-2.82-5.57
				C61.21,253.78,60.35,254.4,60.48,254.81z"/>
			<path class="st14" d="M61.94,255.03c-0.12-0.21-0.23-0.4-0.33-0.58c-0.39-0.66-1.26-0.04-1.13,0.37
				c0.04,0.13,0.09,0.31,0.15,0.52C60.97,255.07,61.39,254.91,61.94,255.03z"/>
		</g>
		<g>
			<g>
				<g>
					<g>
						<path class="st14" d="M33.07,306.51c-1.12,0.45-1.72,0.23-2.18,0.93c0,0,0.8,1.97,1.2,2.96c0.12,0.3,0.34,0.35,0.41,0.01
							c0.06-0.31,0.04-0.66-0.02-1.21c-0.11-1.04,0.13-1.24,1.14-1.65C34.62,307.14,33.84,306.19,33.07,306.51z"/>
					</g>
					<g>
						<path class="st13" d="M32.49,310.42c0.06-0.31,0.04-0.66-0.02-1.21c-0.01-0.07-0.01-0.14-0.02-0.2
							c-0.31-0.34-0.89-1.14-0.77-2.11c-0.33,0.09-0.58,0.21-0.8,0.55c0,0,0.8,1.97,1.2,2.96C32.21,310.7,32.42,310.76,32.49,310.42
							z"/>
					</g>
				</g>
				<path class="st14" d="M53.7,301.32c-3.39,1.04-18.58,5.8-20.09,6.23c-0.87,0.25-1.05-0.76-0.55-1.05
					c1.66-0.95,10.59-5.84,13.26-7.02c1.3-0.58,5.35-1.61,6.64-1.61C56.6,297.85,57.3,300.21,53.7,301.32z"/>
				<path class="st13" d="M52.96,297.88c-1.3,0.01-5.34,1.04-6.64,1.61c-2.04,0.9-9.67,4.51-12.98,6.33
					c-0.07,0.65,0.39,1.66,0.67,2.11c4.55-1.4,16.89-5.75,19.69-6.61C57.3,300.21,56.6,297.85,52.96,297.88z"/>
			</g>
			
				<linearGradient id="SVGID_7_" gradientUnits="userSpaceOnUse" x1="260.7967" y1="574.5861" x2="256.2969" y2="563.2043" gradientTransform="matrix(0.9928 0.1195 0.1195 -0.9928 -271.8453 823.6341)">
				<stop  offset="0" style="stop-color:#2B2B75"/>
				<stop  offset="1" style="stop-color:#1A1455"/>
			</linearGradient>
			<path class="st20" d="M56.62,276.23c0.27,4.97-0.29,18.62-0.44,22.19c-0.12,2.92-1.45,2.17-2.25,1.91
				c-1.2-0.38-3.22-7.05-3.66-14.13c-0.4-6.47,1.15-9.74,1.71-10.84C52.55,274.26,56.49,273.66,56.62,276.23z"/>
		</g>
		<g>
			<g>
				<g>
					<g>
						<path class="st14" d="M53.27,320.5c0.2,1.19-0.15,1.72,0.44,2.34c0,0,2.09-0.35,3.16-0.53c0.32-0.05,0.42-0.25,0.1-0.39
							c-0.29-0.13-0.64-0.18-1.18-0.25c-1.04-0.12-1.19-0.4-1.37-1.47C54.23,319.12,53.13,319.67,53.27,320.5z"/>
					</g>
					<g>
						<path class="st13" d="M56.96,321.91c-0.29-0.13-0.64-0.18-1.18-0.25c-0.07-0.01-0.14-0.02-0.2-0.03
							c-0.4,0.22-1.31,0.62-2.23,0.29c0.01,0.34,0.08,0.61,0.36,0.9c0,0,2.09-0.35,3.16-0.53
							C57.18,322.25,57.28,322.05,56.96,321.91z"/>
					</g>
				</g>
				<path class="st14" d="M52.7,299.23c0.28,3.54,1.62,19.39,1.72,20.96c0.05,0.91-0.97,0.86-1.14,0.31
					c-0.57-1.83-3.39-11.61-3.97-14.46c-0.28-1.4-0.4-5.57-0.13-6.84C49.94,295.64,52.4,295.48,52.7,299.23z"/>
				<path class="st10" d="M49.18,299.2c-0.27,1.27-0.15,5.44,0.13,6.84c0.44,2.19,2.3,10.42,3.36,14.04
					c0.62,0.21,1.71-0.01,2.2-0.19c-0.38-4.75-1.94-17.74-2.17-20.65C52.4,295.48,49.94,295.64,49.18,299.2z"/>
			</g>
			<path class="st10" d="M53.21,276.5c0.23,4.97-0.42,18.62-0.59,22.18c-0.14,2.92-1.47,2.16-2.26,1.89
				c-1.19-0.39-3.17-7.07-3.56-14.16c-0.35-6.48,1.22-9.74,1.78-10.82C49.15,274.51,53.09,273.94,53.21,276.5z"/>
		</g>
		<path class="st21" d="M49.29,255.12c0,1.25,0.24,1.9,0.8,2.78c0.71,1.12,1.24,1.87,2.78,0.61c1.26-1.03,2.58-0.81,2.59-3.28
			c0.01-1.74-1.28-3.17-3.02-3.17C50.7,252.06,49.29,253.38,49.29,255.12z"/>
		<path class="st17" d="M50.74,257.69c0.11,0.86,0.62,2.91,0.21,3.58c-0.75,1.24-3.1,0.62-4.11,0.98c-1.35,0.48-1.36,1.34-1.05,2.84
			c0.5,2.37,0.92,4.24,1.1,6.47c0.16,1.89,0.14,6.21-0.29,8.33c0,0,2.75,0.85,5.64,0.85s4.66-0.82,4.66-0.82
			c-0.2-2.07-0.11-7.01-0.09-8.25s0.62-4.59,0.78-6.07s0.45-2.31-0.22-2.78c-0.5-0.36-2.54-0.32-3.3-0.66
			c-0.75-0.33-0.43-2.84-0.51-3.49C53.49,258,50.59,256.49,50.74,257.69z"/>
		<g>
			<path class="st14" d="M53.04,263.31c1.68-0.03,1.04-1.17,1.04-1.17c-0.75-0.33-0.43-2.84-0.51-3.49
				c-0.08-0.65-2.98-2.16-2.83-0.96c0.11,0.86,0.62,2.91,0.21,3.58c-0.12,0.19-0.25,0.34-0.4,0.47
				C50.55,261.74,50.47,263.35,53.04,263.31z"/>
		</g>
		<g>
			<path class="st18" d="M53.57,258.65c-0.07-0.51-1.83-1.53-2.54-1.39c0.34,1.52,1.31,2.65,2.55,3.36
				C53.54,259.84,53.61,258.99,53.57,258.65z"/>
		</g>
		<g>
			<path class="st14" d="M49.65,255.22c0,1.1,0.2,1.48,0.83,2.15c0.84,0.9,1.22,1.95,2.33,2.12c1.43,0.21,2.29-1.99,2.31-4.17
				c0.01-1.54-1.15-2.8-2.68-2.8C50.89,252.52,49.65,253.69,49.65,255.22z"/>
			<path class="st21" d="M55.2,254.59c0,0,0.97-2.57-3.13-2.27c-3.16,0.23-2.56,3.6-2.45,4l0.94,0.5c0,0,0.1-0.25,0.15-1.05
				c0,0,0.86-0.57,0.9-1.17C51.62,254.6,52.81,254.55,55.2,254.59z"/>
			<path class="st21" d="M55.45,255.23c0-2.57-0.53-3.4-1.35-4.17c0,0-0.67,1-1.67,1L55.45,255.23z"/>
			<path class="st14" d="M50.29,256.3c-0.39-0.32-0.97-0.12-0.98,0.51s0.65,0.71,0.91,1.03s0.68,0.18,0.67-0.1
				C50.87,257.26,50.55,256.52,50.29,256.3z"/>
		</g>
		<g>
			<g>
				<path class="st14" d="M46.7,249.18c0.35-1.33-0.8-1.24-1.22-1.6c-0.43-0.36-0.59-1.15-0.48-1.75c0.11-0.61,0.42-0.26,0.68,0.11
					c0.25,0.36,0.18,0.74,1.41,1.15c1.61,0.53,0.98,1.23,0.77,2.37C47.65,250.6,46.5,249.94,46.7,249.18z"/>
			</g>
			<path class="st17" d="M49.09,263.25c-0.47-1.72-2.36-6.33-2.87-7.47c-0.51-1.14-2.61-1.02-2,1.29c0.61,2.31,1.04,5.26,1.33,6.53
				C46.05,265.76,49.76,265.7,49.09,263.25z"/>
			<path class="st17" d="M47.86,249.45c-0.28,1.23-1.09,6.13-1.81,7.15c-0.72,1.02-2.53,0.59-1.71-1.65
				c1.05-2.88,1.8-4.62,2.37-5.78C47.04,248.48,47.95,249.03,47.86,249.45z"/>
			<path class="st14" d="M46.42,249.78c0.1-0.22,0.2-0.42,0.29-0.6c0.34-0.69,1.25-0.15,1.15,0.28c-0.03,0.13-0.07,0.31-0.11,0.53
				C47.38,249.75,46.95,249.63,46.42,249.78z"/>
		</g>
	</g>
	<g>
		<g>
			<g>
				<path class="st14" d="M69.74,253.71c0.49-1.28-0.66-1.32-1.05-1.72s-0.46-1.21-0.29-1.8s0.45-0.21,0.66,0.18
					c0.21,0.39,0.1,0.75,1.28,1.29c1.54,0.7,0.84,1.33,0.51,2.44C70.53,255.22,69.46,254.45,69.74,253.71z"/>
			</g>
			<path class="st22" d="M75.29,262.53c-1.56-0.85-6.2-2.69-7.38-3.11c-1.17-0.42-2.54,1.18-0.45,2.34
				c2.09,1.16,4.52,2.89,5.63,3.56C74.99,266.46,77.52,263.75,75.29,262.53z"/>
			<path class="st22" d="M70.86,254.11c-0.41,1.19-1.74,5.98-2.56,6.92s-2.58,0.32-1.53-1.82c1.36-2.75,2.28-4.4,2.97-5.49
				C70.15,253.06,71,253.7,70.86,254.11z"/>
			<path class="st14" d="M69.39,254.28c0.12-0.21,0.24-0.4,0.35-0.57c0.41-0.65,1.26-0.01,1.12,0.4c-0.04,0.13-0.1,0.31-0.17,0.51
				C70.36,254.35,69.94,254.18,69.39,254.28z"/>
		</g>
		<g>
			<g>
				<g>
					<g>
						<path class="st14" d="M88.18,311.96c0.91,0.79,1.55,0.77,1.77,1.59c0,0-1.39,1.6-2.1,2.42c-0.21,0.24-0.43,0.23-0.39-0.12
							c0.04-0.31,0.18-0.64,0.41-1.14c0.44-0.95,0.28-1.22-0.54-1.93C86.5,312.06,87.54,311.41,88.18,311.96z"/>
					</g>
					<g>
						<path class="st13" d="M87.46,315.85c0.04-0.31,0.18-0.64,0.41-1.14c0.03-0.06,0.06-0.13,0.08-0.18
							c0.4-0.23,1.22-0.79,1.41-1.75c0.28,0.19,0.48,0.39,0.58,0.78c0,0-1.39,1.6-2.1,2.42C87.63,316.21,87.41,316.2,87.46,315.85z"
							/>
					</g>
				</g>
				<path class="st14" d="M70.32,300.39c2.87,2.08,15.71,11.49,17,12.39c0.75,0.52,1.24-0.38,0.85-0.81
					c-1.26-1.44-8.14-8.95-10.28-10.92c-1.05-0.97-4.54-3.25-5.77-3.67C68.69,296.17,67.28,298.18,70.32,300.39z"/>
				<path class="st13" d="M72.13,297.37c1.23,0.43,4.72,2.71,5.77,3.67c1.64,1.52,7.69,7.39,10.24,10.18
					c-0.14,0.64-0.9,1.45-1.31,1.78c-3.86-2.8-14.13-10.9-16.5-12.62C67.28,298.18,68.69,296.17,72.13,297.37z"/>
			</g>
			
				<linearGradient id="SVGID_8_" gradientUnits="userSpaceOnUse" x1="-4794.9673" y1="795.6864" x2="-4799.4673" y2="784.3048" gradientTransform="matrix(-0.9782 -0.2076 0.2076 -0.9782 -4781.7471 66.5767)">
				<stop  offset="0" style="stop-color:#2B2B75"/>
				<stop  offset="1" style="stop-color:#1A1455"/>
			</linearGradient>
			<path class="st23" d="M75.66,275.7c-1.86,4.61-5.74,17.72-6.75,21.14c-0.82,2.8,0.67,2.52,1.51,2.54
				c1.26,0.02,5.33-5.63,8.03-12.19c2.47-6,2.06-9.59,1.88-10.81C80.16,275.15,76.62,273.31,75.66,275.7z"/>
		</g>
		<g>
			<g>
				<g>
					<g>
						<path class="st14" d="M81.1,320.59c-0.01,1.2,0.43,1.68-0.05,2.38c0,0-2.12-0.01-3.2-0.01c-0.32,0-0.45-0.18-0.16-0.37
							c0.26-0.17,0.6-0.28,1.13-0.43c1.01-0.29,1.11-0.58,1.11-1.67C79.93,319.38,81.1,319.75,81.1,320.59z"/>
					</g>
					<g>
						<path class="st13" d="M77.68,322.57c0.26-0.17,0.6-0.28,1.13-0.43c0.07-0.02,0.13-0.04,0.19-0.06
							c0.43,0.16,1.39,0.4,2.25-0.07c0.04,0.34,0.02,0.62-0.21,0.95c0,0-2.12-0.01-3.2-0.01C77.52,322.94,77.39,322.77,77.68,322.57
							z"/>
					</g>
				</g>
				<path class="st14" d="M78.23,299.5c0.3,3.54,1.53,19.4,1.69,20.96c0.09,0.9,1.09,0.69,1.17,0.12
					c0.27-1.89,1.47-12.01,1.58-14.91c0.05-1.43-0.5-5.56-0.97-6.77C80.37,295.52,77.92,295.75,78.23,299.5z"/>
				<path class="st10" d="M81.7,298.9c0.47,1.21,1.03,5.34,0.97,6.77c-0.08,2.23-0.59,10.65-1.04,14.4
					c-0.58,0.31-1.69,0.26-2.21,0.17c-0.39-4.75-0.95-17.82-1.19-20.73C77.92,295.75,80.37,295.52,81.7,298.9z"/>
			</g>
			<path class="st10" d="M77.53,276.5c-0.23,4.97,0.42,18.62,0.59,22.18c0.14,2.92,1.47,2.16,2.26,1.89
				c1.19-0.39,3.17-7.07,3.56-14.16c0.35-6.48-1.22-9.74-1.78-10.82C81.59,274.51,77.65,273.94,77.53,276.5z"/>
		</g>
		<path class="st10" d="M81.45,255.12c0,1.25-0.24,1.9-0.8,2.78c-0.71,1.12-1.24,1.87-2.78,0.61c-1.26-1.03-2.58-0.81-2.59-3.28
			c-0.01-1.74,1.28-3.17,3.02-3.17C80.04,252.06,81.45,253.38,81.45,255.12z"/>
		<path class="st22" d="M80,257.69c-0.11,0.86-0.62,2.91-0.21,3.58c0.75,1.24,3.1,0.62,4.11,0.98c1.35,0.48,1.36,1.34,1.05,2.84
			c-0.5,2.37-0.92,4.24-1.1,6.47c-0.16,1.89-0.14,6.21,0.29,8.33c0,0-2.75,0.85-5.64,0.85s-4.66-0.82-4.66-0.82
			c0.2-2.07,0.11-7.01,0.09-8.25c-0.02-1.24-0.62-4.59-0.78-6.07s-0.45-2.31,0.22-2.78c0.5-0.36,2.54-0.32,3.3-0.66
			c0.75-0.33,0.43-2.84,0.51-3.49C77.25,258,80.15,256.49,80,257.69z"/>
		<g>
			<path class="st14" d="M77.7,263.31c-1.68-0.03-1.04-1.17-1.04-1.17c0.75-0.33,0.43-2.84,0.51-3.49s2.98-2.16,2.83-0.96
				c-0.11,0.86-0.62,2.91-0.21,3.58c0.12,0.19,0.25,0.34,0.4,0.47C80.19,261.74,80.27,263.35,77.7,263.31z"/>
		</g>
		<g>
			<path class="st18" d="M77.17,258.65c0.07-0.51,1.83-1.53,2.54-1.39c-0.34,1.52-1.31,2.65-2.55,3.36
				C77.19,259.84,77.13,258.99,77.17,258.65z"/>
		</g>
		<g>
			<path class="st14" d="M81.09,255.22c0,1.1-0.2,1.48-0.83,2.15c-0.84,0.9-1.22,1.95-2.33,2.12c-1.43,0.21-2.29-1.99-2.31-4.17
				c-0.01-1.54,1.15-2.8,2.68-2.8C79.84,252.52,81.09,253.69,81.09,255.22z"/>
			<path class="st10" d="M75.53,255.95c0,0-0.97-3.93,3.13-3.63c3.16,0.23,2.56,3.6,2.45,4l-0.94,0.5c0,0-0.1-0.25-0.15-1.05
				c0,0-0.86-0.57-0.9-1.17C79.12,254.6,77.92,255.91,75.53,255.95z"/>
			<path class="st14" d="M80.45,256.3c0.39-0.32,0.97-0.12,0.98,0.51s-0.65,0.71-0.91,1.03s-0.68,0.18-0.67-0.1
				C79.86,257.26,80.19,256.52,80.45,256.3z"/>
		</g>
		<g>
			<g>
				<path class="st14" d="M84.03,249.18c-0.35-1.33,0.8-1.24,1.22-1.6c0.43-0.36,0.59-1.15,0.48-1.75
					c-0.11-0.61-0.42-0.26-0.68,0.11c-0.25,0.36-0.18,0.74-1.41,1.15c-1.61,0.53-0.98,1.23-0.77,2.37
					C83.09,250.6,84.24,249.94,84.03,249.18z"/>
			</g>
			<path class="st22" d="M81.64,263.25c0.47-1.72,2.36-6.33,2.87-7.47c0.51-1.14,2.61-1.02,2,1.29c-0.61,2.31-1.04,5.26-1.33,6.53
				C84.69,265.76,80.98,265.7,81.64,263.25z"/>
			<path class="st22" d="M82.88,249.45c0.28,1.23,1.09,6.13,1.81,7.15c0.72,1.02,2.53,0.59,1.71-1.65c-1.05-2.88-1.8-4.62-2.37-5.78
				C83.69,248.48,82.79,249.03,82.88,249.45z"/>
			<path class="st14" d="M84.32,249.78c-0.1-0.22-0.2-0.42-0.29-0.6c-0.34-0.69-1.25-0.15-1.15,0.28c0.03,0.13,0.07,0.31,0.11,0.53
				C83.35,249.75,83.78,249.63,84.32,249.78z"/>
		</g>
	</g>
	<g>
		<rect x="193.38" y="137.47" class="st24" width="134.09" height="62.45"/>
		<g>
			<path class="st25" d="M219.47,152.91c0,5.47-4.43,9.9-9.9,9.9s-9.9-4.43-9.9-9.9s4.43-9.9,9.9-9.9
				C215.04,143.01,219.47,147.44,219.47,152.91z"/>
			<path class="st6" d="M217.89,152.91c0,4.59-3.72,8.31-8.31,8.31s-8.31-3.72-8.31-8.31s3.72-8.31,8.31-8.31
				S217.89,148.32,217.89,152.91z"/>
			<g>
				<path class="st26" d="M211.04,153.6h-0.68v-0.74c0.68-0.33,1.24-1.06,1.55-1.91c0.29,0.02,0.58-0.28,0.65-0.62
					c0.07-0.34-0.11-0.58-0.39-0.66c0-0.06,0.01-0.12,0.01-0.17c0-1.71-1.17-2.66-2.6-2.66c-1.44,0-2.6,0.95-2.6,2.66
					c0,0.05,0,0.11,0.01,0.16l0,0c-0.3,0.06-0.5,0.31-0.42,0.67c0.07,0.35,0.39,0.68,0.69,0.62c0.31,0.85,0.87,1.58,1.55,1.91v0.74
					h-0.68c-1.66,0-3,1.34-3,3v3.31c1.29,0.83,2.82,1.31,4.47,1.31s3.18-0.49,4.47-1.31v-3.31
					C214.04,154.95,212.7,153.6,211.04,153.6z"/>
			</g>
		</g>
	</g>
	<g>
		<rect x="193.38" y="245.47" class="st24" width="134.09" height="39.45"/>
		<g>
			<path class="st25" d="M219.23,258.77c0,5.25-4.25,9.5-9.5,9.5s-9.5-4.25-9.5-9.5s4.25-9.5,9.5-9.5
				C214.98,249.27,219.23,253.53,219.23,258.77z"/>
			<path class="st17" d="M217.71,258.77c0,4.41-3.57,7.98-7.98,7.98c-4.41,0-7.98-3.57-7.98-7.98s3.57-7.98,7.98-7.98
				S217.71,254.37,217.71,258.77z"/>
			<g>
				<path class="st27" d="M211.14,259.44h-0.65v-0.71c0.65-0.32,1.19-1.02,1.49-1.83c0.28,0.02,0.56-0.27,0.63-0.59
					c0.07-0.33-0.11-0.56-0.38-0.63c0-0.06,0.01-0.11,0.01-0.17c0-1.64-1.12-2.55-2.5-2.55s-2.5,0.91-2.5,2.55
					c0,0.05,0,0.1,0.01,0.16l0,0c-0.29,0.06-0.48,0.3-0.41,0.64c0.07,0.34,0.38,0.65,0.66,0.6c0.3,0.81,0.83,1.51,1.48,1.83v0.71
					h-0.65c-1.59,0-2.88,1.29-2.88,2.88v3.18c1.24,0.79,2.71,1.26,4.29,1.26c1.58,0,3.05-0.47,4.29-1.26v-3.18
					C214.02,260.73,212.73,259.44,211.14,259.44z"/>
			</g>
		</g>
	</g>
	<g>
		<rect x="193.38" y="202.47" class="st24" width="134.09" height="39.45"/>
		<g>
			<path class="st25" d="M219.23,215.77c0,5.25-4.25,9.5-9.5,9.5s-9.5-4.25-9.5-9.5s4.25-9.5,9.5-9.5S219.23,210.53,219.23,215.77z"
				/>
			<path class="st17" d="M217.71,215.77c0,4.41-3.57,7.98-7.98,7.98c-4.41,0-7.98-3.57-7.98-7.98c0-4.41,3.57-7.98,7.98-7.98
				C214.14,207.79,217.71,211.37,217.71,215.77z"/>
			<g>
				<path class="st27" d="M211.14,216.44h-0.65v-0.71c0.65-0.32,1.19-1.02,1.49-1.83c0.28,0.02,0.56-0.27,0.63-0.59
					c0.07-0.33-0.11-0.56-0.38-0.63c0-0.06,0.01-0.11,0.01-0.17c0-1.64-1.12-2.55-2.5-2.55s-2.5,0.91-2.5,2.55
					c0,0.05,0,0.1,0.01,0.16l0,0c-0.29,0.06-0.48,0.3-0.41,0.64c0.07,0.34,0.38,0.65,0.66,0.6c0.3,0.81,0.83,1.51,1.48,1.83v0.71
					h-0.65c-1.59,0-2.88,1.29-2.88,2.88v3.18c1.24,0.79,2.71,1.26,4.29,1.26c1.58,0,3.05-0.47,4.29-1.26v-3.18
					C214.02,217.73,212.73,216.44,211.14,216.44z"/>
			</g>
		</g>
	</g>
	<polygon class="st28" points="207.47,305.94 180.45,278.92 207.47,278.92 	"/>
	<g>
		<g>
			<g>
				<g>
					<path class="st17" d="M178.82,281.96c0.25,1.58,2.02,3.38,0.21,4.72c-1.82,1.34-3.38-1.85-5.87-0.13
						c-3.13,2.17-0.29,5.76,2.93,7.14c2.68,1.15,3.03,3.35,0.64,4.02c-2.39,0.67-3.17,0.7-3.94,2.61
						c-0.76,1.91,0.18,6.69,10.33,10.2v-34.11C180.16,276.42,178.32,278.84,178.82,281.96z"/>
				</g>
				<g>
					<path class="st19" d="M187.43,281.96c-0.25,1.58-2.03,3.38-0.21,4.72c1.82,1.34,3.38-1.85,5.86-0.13
						c3.13,2.17,0.29,5.76-2.93,7.14c-2.68,1.15-3.03,3.35-0.64,4.02c2.39,0.67,3.17,0.7,3.94,2.61c0.76,1.91-0.18,6.69-10.33,10.2
						v-34.11C186.09,276.42,187.92,278.84,187.43,281.96z"/>
				</g>
			</g>
		</g>
		<g>
			<path class="st29" d="M174.65,307.61c0,0,0,4.84,0,6.78c0,3.61,1.06,6.87,3.08,8.71h10.74c2.02-1.85,3.08-5.11,3.08-8.71
				c0-1.94,0-6.78,0-6.78H174.65z"/>
		</g>
	</g>
	<polygon class="st30" points="225.97,143.45 227.14,145.81 229.75,146.19 227.86,148.03 228.31,150.63 225.97,149.41 
		223.64,150.63 224.09,148.03 222.2,146.19 224.81,145.81 	"/>
	<polygon class="st30" points="234.72,143.45 235.89,145.81 238.5,146.19 236.61,148.03 237.06,150.63 234.72,149.41 232.39,150.63 
		232.84,148.03 230.95,146.19 233.56,145.81 	"/>
	<polygon class="st30" points="243.47,143.45 244.64,145.81 247.25,146.19 245.36,148.03 245.81,150.63 243.47,149.41 
		241.14,150.63 241.59,148.03 239.7,146.19 242.31,145.81 	"/>
	<polygon class="st28" points="252.22,143.45 253.39,145.81 256,146.19 254.11,148.03 254.56,150.63 252.22,149.41 249.89,150.63 
		250.34,148.03 248.45,146.19 251.06,145.81 	"/>
	<polygon class="st28" points="260.97,143.45 262.14,145.81 264.75,146.19 262.86,148.03 263.31,150.63 260.97,149.41 
		258.64,150.63 259.09,148.03 257.2,146.19 259.81,145.81 	"/>
	<polygon class="st30" points="225.97,207.45 227.14,209.81 229.75,210.19 227.86,212.03 228.31,214.63 225.97,213.41 
		223.64,214.63 224.09,212.03 222.2,210.19 224.81,209.81 	"/>
	<polygon class="st30" points="234.72,207.45 235.89,209.81 238.5,210.19 236.61,212.03 237.06,214.63 234.72,213.41 232.39,214.63 
		232.84,212.03 230.95,210.19 233.56,209.81 	"/>
	<polygon class="st30" points="243.47,207.45 244.64,209.81 247.25,210.19 245.36,212.03 245.81,214.63 243.47,213.41 
		241.14,214.63 241.59,212.03 239.7,210.19 242.31,209.81 	"/>
	<polygon class="st30" points="252.22,207.45 253.39,209.81 256,210.19 254.11,212.03 254.56,214.63 252.22,213.41 249.89,214.63 
		250.34,212.03 248.45,210.19 251.06,209.81 	"/>
	<polygon class="st28" points="260.97,207.45 262.14,209.81 264.75,210.19 262.86,212.03 263.31,214.63 260.97,213.41 
		258.64,214.63 259.09,212.03 257.2,210.19 259.81,209.81 	"/>
	<polygon class="st30" points="225.97,250.45 227.14,252.81 229.75,253.19 227.86,255.03 228.31,257.63 225.97,256.41 
		223.64,257.63 224.09,255.03 222.2,253.19 224.81,252.81 	"/>
	<polygon class="st30" points="234.72,250.45 235.89,252.81 238.5,253.19 236.61,255.03 237.06,257.63 234.72,256.41 232.39,257.63 
		232.84,255.03 230.95,253.19 233.56,252.81 	"/>
	<polygon class="st30" points="243.47,250.45 244.64,252.81 247.25,253.19 245.36,255.03 245.81,257.63 243.47,256.41 
		241.14,257.63 241.59,255.03 239.7,253.19 242.31,252.81 	"/>
	<polygon class="st28" points="252.22,250.45 253.39,252.81 256,253.19 254.11,255.03 254.56,257.63 252.22,256.41 249.89,257.63 
		250.34,255.03 248.45,253.19 251.06,252.81 	"/>
	<polygon class="st28" points="260.97,250.45 262.14,252.81 264.75,253.19 262.86,255.03 263.31,257.63 260.97,256.41 
		258.64,257.63 259.09,255.03 257.2,253.19 259.81,252.81 	"/>
	<g>
		<g>
			<path class="st19" d="M237.7,218.9l9.19,120.82h2.15l-0.87-11.38h19.52l0.87,11.38h2.15l-9.19-120.82h-2.15l0.78,10.28h-19.52
				l-0.78-10.28H237.7z M246.94,312.17h19.52l1.07,14.08h-19.52L246.94,312.17z M245.71,295.99h19.52l1.07,14.08h-19.52
				L245.71,295.99z M244.48,279.81H264l1.07,14.08h-19.52L244.48,279.81z M243.25,263.64h19.52l1.07,14.08h-19.52L243.25,263.64z
				 M242.02,247.46h19.52l1.07,14.08h-19.52L242.02,247.46z M240.79,231.28h19.52l1.07,14.08h-19.52L240.79,231.28z"/>
		</g>
		<g>
			<g>
				<g>
					<g>
						<g>
							<path class="st14" d="M251.76,273.55c0,1.2,0.43,1.68-0.04,2.38c0,0-2.12,0-3.2,0c-0.32,0-0.45-0.18-0.16-0.37
								c0.26-0.17,0.6-0.29,1.13-0.44c1.01-0.29,1.1-0.59,1.1-1.68C250.58,272.34,251.76,272.71,251.76,273.55z"/>
						</g>
						<g>
							<path class="st13" d="M248.35,275.55c0.26-0.17,0.6-0.29,1.13-0.44c0.07-0.02,0.13-0.04,0.19-0.06
								c0.43,0.15,1.4,0.4,2.25-0.08c0.04,0.33,0.02,0.62-0.2,0.95c0,0-2.12,0-3.2,0C248.2,275.92,248.06,275.75,248.35,275.55z"/>
						</g>
					</g>
					<path class="st14" d="M248.43,253.28c0.31,3.53,1.98,18.59,2.15,20.16c0.1,0.9,1.1,0.68,1.17,0.11
						c0.26-1.9,1.06-11.21,1.15-14.12c0.04-1.43-0.53-5.56-1.01-6.76C250.55,249.28,248.1,249.53,248.43,253.28z"/>
					<path class="st13" d="M251.9,252.66c0.48,1.21,1.05,5.34,1.01,6.76c-0.07,2.23-0.19,9.86-0.62,13.6
						c-0.57,0.31-1.69,0.27-2.2,0.18c-0.42-4.75-1.39-17.01-1.65-19.93C248.1,249.53,250.55,249.28,251.9,252.66z"/>
				</g>
				
					<linearGradient id="SVGID_9_" gradientUnits="userSpaceOnUse" x1="-4023.6582" y1="53.4131" x2="-4015.4001" y2="52.6192" gradientTransform="matrix(-0.9997 0.0246 -0.0246 -0.9997 -3757.052 403.4752)">
					<stop  offset="0" style="stop-color:#2B2B75"/>
					<stop  offset="1" style="stop-color:#1A1455"/>
				</linearGradient>
				<path class="st31" d="M269.51,247.13c-4.96,0.3-15.22,2.28-18.74,2.83c-2.88,0.45-1.99,1.68-1.65,2.45
					c0.52,1.15,7.37,2.41,14.45,2.04c6.48-0.34,7.51-1.8,7.75-2.28C271.87,251.07,272.07,246.98,269.51,247.13z"/>
			</g>
			<g>
				<g>
					<g>
						<g>
							<path class="st14" d="M261.34,289.72c0.03,1.2,0.47,1.67,0.01,2.38c0,0-2.12,0.05-3.2,0.07c-0.32,0.01-0.46-0.17-0.17-0.37
								c0.26-0.18,0.59-0.3,1.12-0.46c1-0.31,1.09-0.61,1.07-1.7C260.14,288.55,261.33,288.89,261.34,289.72z"/>
						</g>
						<g>
							<path class="st13" d="M257.98,291.8c0.26-0.18,0.59-0.3,1.12-0.46c0.07-0.02,0.13-0.04,0.19-0.06
								c0.44,0.15,1.4,0.37,2.25-0.13c0.05,0.33,0.04,0.62-0.18,0.95c0,0-2.12,0.05-3.2,0.07C257.83,292.17,257.7,292,257.98,291.8z
								"/>
						</g>
					</g>
					<path class="st14" d="M257.93,268.72c0.39,3.53,2.03,19.35,2.24,20.91c0.12,0.9,1.11,0.66,1.18,0.09
						c0.22-1.9,1.16-12.04,1.19-14.95c0.01-1.43-0.64-5.54-1.15-6.74C259.96,264.68,257.52,264.98,257.93,268.72z"/>
					<path class="st10" d="M261.38,268.03c0.51,1.2,1.16,5.31,1.15,6.74c-0.02,2.23-0.31,10.66-0.67,14.42
						c-0.57,0.32-1.68,0.3-2.2,0.22c-0.52-4.74-1.41-17.79-1.73-20.7C257.52,264.98,259.96,264.68,261.38,268.03z"/>
				</g>
				<path class="st10" d="M261.61,245.24c-1.17,4.84-3.12,18.36-3.62,21.89c-0.41,2.89,1.03,2.4,1.86,2.29
					c1.25-0.16,4.45-6.34,6.17-13.23c1.57-6.29,0.65-9.79,0.3-10.97C265.98,244.05,262.21,242.74,261.61,245.24z"/>
			</g>
			<g>
				<g>
					<path class="st14" d="M275.73,220.48c0.29-1.34,0.92-1.62,1.06-2.16c0.15-0.54,0.01-1.98-0.42-2.41
						c-0.43-0.43-0.49,0.03-0.49,0.48c0,0.44,0.06,1.35-0.42,1.82s-0.55,0.89-0.88,2C274.25,221.32,275.57,221.25,275.73,220.48z"/>
					<path class="st14" d="M274.85,219.11c-0.05-0.53,0.02-1.24,0.11-1.44s0.47,0.02,0.47,0.93
						C275.43,219.51,274.89,219.56,274.85,219.11z"/>
				</g>
				<path class="st6" d="M268.89,233.8c0.74-1.62,3.34-5.87,4.03-6.92c0.68-1.04,2.73-0.58,1.76,1.6c-0.97,2.18-1.87,5.03-2.36,6.23
					C271.49,236.77,267.84,236.12,268.89,233.8z"/>
				<path class="st6" d="M274.58,220.21c-0.31,1.22-1.8,5.96-1.62,7.2c0.18,1.23,1.99,1.67,2.28-0.7c0.36-3.05,0.48-4.93,0.5-6.23
					C275.74,219.71,274.68,219.79,274.58,220.21z"/>
				<path class="st14" d="M275.73,220.48c0,0.25-0.01,0.53-0.02,0.83c-0.45-0.19-0.89-0.34-1.34-0.35c0.09-0.31,0.16-0.57,0.21-0.75
					C274.68,219.79,275.74,219.71,275.73,220.48z"/>
			</g>
			<path class="st10" d="M262.37,225.62c0.24,1.27,0.6,1.88,1.34,2.67c0.94,1,1.61,1.66,2.94,0.08c1.09-1.29,2.48-1.32,2.02-3.83
				c-0.32-1.77-1.93-2.97-3.69-2.63C263.21,222.24,262.03,223.85,262.37,225.62z"/>
			<g>
				<g>
					<path class="st6" d="M264.52,227.94c0.2,0.85,0.94,2.82,0.61,3.54c-0.61,1.31-2.21,1.22-3.18,1.68c-1.29,0.62-2,1.23-1.52,2.68
						c0.76,2.3,1.68,3.18,1.79,5.41c0.09,1.9-0.92,4.94-1.43,7.04c0,0,3.55,2.22,6.44,2.33s4.69-0.65,4.69-0.65
						c-0.12-2.07,0.15-7.01,0.21-8.25c0.07-1.23,0.09-5.21,0.09-6.7c-0.01-1.49,0.15-1.72-0.56-2.12c-0.54-0.3-2.53-0.66-3.32-0.91
						s-0.74-2.78-0.9-3.41C267.28,227.94,264.24,226.77,264.52,227.94z"/>
				</g>
				<path class="st14" d="M268.57,232.06c-0.09-0.02-0.17-0.05-0.24-0.07c-0.79-0.25-0.74-2.78-0.9-3.41
					c-0.16-0.64-3.2-1.81-2.92-0.64c0.2,0.85,0.94,2.82,0.61,3.54c-0.15,0.32-0.36,0.55-0.6,0.73
					C265.83,232.78,267.5,232.73,268.57,232.06z"/>
			</g>
			<g>
				<path class="st18" d="M269.16,225.81c0.27,1.3,0.75,1.42-0.19,1.51L269.16,225.81z"/>
				<path class="st14" d="M263.48,225.52c0.21,1.12,0.49,1.46,1.26,2.02c1.03,0.75,1.61,1.75,2.77,1.7
					c1.49-0.06,1.95-2.46,1.54-4.67c-0.29-1.56-1.7-2.62-3.26-2.33C264.22,222.53,263.18,223.96,263.48,225.52z"/>
				<path class="st10" d="M263.66,226.64c-0.16-0.4-1.45-3.69,1.72-4.53c4.1-1.09,3.92,3.4,3.92,3.4c-1.13,0.14-1.71-0.59-1.71-0.59
					c0.03,0.47-0.3,0.92-0.3,0.92c0.11,0.82-0.06,1.29-0.06,1.29s-0.65,2.03-2.25,2.66C264.98,229.8,264.6,229.03,263.66,226.64z"/>
				<path class="st14" d="M267.09,226.08c-0.35-0.39-0.97-0.26-1.08,0.38c-0.1,0.64,0.57,0.82,0.78,1.18c0.22,0.36,0.67,0.28,0.7,0
					C267.55,227.15,267.32,226.33,267.09,226.08z"/>
			</g>
			<g>
				<g>
					<path class="st14" d="M249.88,230.11c-0.81-1.1-0.6-1.76-0.91-2.23c-0.3-0.47-1.47-1.32-2.08-1.28
						c-0.61,0.04-0.3,0.39,0.03,0.68s1.05,0.85,1.08,1.52s0.3,1,0.91,1.98C249.52,231.78,250.35,230.75,249.88,230.11z"/>
				</g>
				<path class="st6" d="M261.62,233.41c-1.77,0.2-6.62,1.36-7.82,1.69c-1.2,0.33-1.4,2.42,0.97,2.17s5.36-0.23,6.65-0.32
					C263.63,236.81,264.15,233.13,261.62,233.41z"/>
				<path class="st6" d="M248.91,230.79c0.71,1.04,3.26,5.31,4.31,5.99c1.04,0.68,2.57-0.38,0.99-2.16
					c-2.04-2.3-3.37-3.63-4.32-4.51C249.31,229.59,248.66,230.43,248.91,230.79z"/>
				<path class="st14" d="M250.37,230.57c-0.17-0.17-0.34-0.32-0.49-0.46c-0.57-0.52-1.21,0.32-0.97,0.68
					c0.08,0.11,0.18,0.27,0.3,0.45C249.45,230.89,249.81,230.62,250.37,230.57z"/>
			</g>
		</g>
	</g>
	<polygon class="st30" points="280.5,210.57 278.82,212.6 279.55,215.14 277.09,214.17 274.91,215.65 275.07,213.01 272.99,211.39 
		275.54,210.73 276.45,208.25 277.86,210.47 	"/>
	<g>
		<g>
			<g>
				<path class="st6" d="M137.95,272.36c-0.93-7.77-5.06-9.78-7.2-15.2c-1.48-3.77-1.47-7.62-1.47-11.9
					c0-6.31-4.59-11.43-11.73-11.43c-7.14,0-11.73,5.12-11.73,11.43c0,4.28,0.02,8.13-1.47,11.9c-2.13,5.42-6.26,7.42-7.2,15.2
					c-1.19,9.9,9.13,15.61,20.39,15.61C128.82,287.97,139.14,282.26,137.95,272.36z"/>
				<path class="st32" d="M137.95,272.36c-0.93-7.77-5.06-9.78-7.2-15.2c-1.48-3.77-1.47-7.62-1.47-11.9
					c0-6.31-4.59-11.43-11.73-11.43v54.13C128.82,287.97,139.14,282.26,137.95,272.36z"/>
			</g>
			<path class="st10" d="M127.96,274.22c-0.12-0.29-0.46-0.42-0.74-0.3l-9.1,3.9v-15.36l8.86-5.9c0.26-0.17,0.33-0.52,0.16-0.78
				c-0.17-0.26-0.52-0.33-0.78-0.16l-8.23,5.49v-19.7c0-0.31-0.25-0.56-0.56-0.56c-0.31,0-0.56,0.25-0.56,0.56v19.7l-8.23-5.49
				c-0.26-0.17-0.61-0.1-0.78,0.16c-0.17,0.26-0.1,0.61,0.16,0.78l8.85,5.9v15.36l-9.1-3.9c-0.28-0.12-0.62,0.01-0.74,0.3
				c-0.12,0.29,0.01,0.62,0.3,0.74l9.54,4.09v37.94h1.13v-37.94l9.54-4.09C127.95,274.84,128.09,274.51,127.96,274.22z"/>
		</g>
	</g>
	<g>
		<g>
			<g>
				<path class="st6" d="M452.65,247.2c-1.18-9.82-6.39-12.34-9.08-19.18c-1.87-4.76-1.85-9.62-1.85-15.02
					c0-7.97-5.79-14.43-14.81-14.43c-9.01,0-14.81,6.46-14.81,14.43c0,5.4,0.02,10.26-1.85,15.02c-2.69,6.84-7.91,9.37-9.08,19.18
					c-1.5,12.5,11.52,19.71,25.74,19.71C441.12,266.91,454.15,259.7,452.65,247.2z"/>
				<path class="st32" d="M452.65,247.2c-1.18-9.82-6.39-12.34-9.08-19.18c-1.87-4.76-1.85-9.62-1.85-15.02
					c0-7.97-5.79-14.43-14.81-14.43v68.34C441.12,266.91,454.15,259.7,452.65,247.2z"/>
			</g>
			<path class="st10" d="M440.04,249.55c-0.15-0.36-0.57-0.53-0.94-0.37l-11.48,4.92v-19.39l11.18-7.45
				c0.33-0.22,0.42-0.66,0.2-0.99c-0.22-0.33-0.66-0.42-0.99-0.2l-10.39,6.93v-24.87c0-0.39-0.32-0.71-0.71-0.71
				c-0.39,0-0.71,0.32-0.71,0.71v24.87l-10.39-6.93c-0.33-0.22-0.77-0.13-0.99,0.2c-0.22,0.33-0.13,0.77,0.2,0.99l11.18,7.45v19.39
				l-11.48-4.92c-0.36-0.16-0.78,0.01-0.94,0.37c-0.16,0.36,0.01,0.78,0.38,0.94l12.04,5.16v47.9h1.43v-47.9l12.04-5.16
				C440.03,250.33,440.2,249.91,440.04,249.55z"/>
		</g>
	</g>
	<g>
		<g>
			<g>
				<path class="st14" d="M423.23,293.63c-1.33-0.16-1.66-0.74-2.2-0.84c-0.54-0.09-1.93,0.17-2.31,0.63s0.08,0.48,0.51,0.44
					c0.43-0.04,1.31-0.18,1.81,0.25s0.91,0.45,2.03,0.67C424.18,295.01,424,293.73,423.23,293.63z"/>
				<path class="st14" d="M421.98,294.62c-0.52,0.1-1.21,0.09-1.41,0.02s-0.02-0.45,0.86-0.54
					C422.32,294.02,422.41,294.54,421.98,294.62z"/>
			</g>
			
				<linearGradient id="SVGID_10_" gradientUnits="userSpaceOnUse" x1="-5531.0181" y1="946.2798" x2="-5530.2588" y2="941.5177" gradientTransform="matrix(-0.999 -0.0456 0.0456 -0.999 -5134.3535 982.4133)">
				<stop  offset="0" style="stop-color:#FFFFFF"/>
				<stop  offset="1" style="stop-color:#D7DBE2"/>
			</linearGradient>
			<path class="st33" d="M435.52,288.6c-1.41,1.03-4.96,4.37-5.82,5.23c-0.86,0.86-0.02,2.73,1.88,1.37c1.9-1.36,4.44-2.79,5.49-3.5
				C438.88,290.5,437.53,287.13,435.52,288.6z"/>
			
				<linearGradient id="SVGID_11_" gradientUnits="userSpaceOnUse" x1="-7287.3936" y1="2936.4382" x2="-7286.6343" y2="2931.6755" gradientTransform="matrix(-0.7845 -0.6201 0.6201 -0.7845 -7104.7246 -1926.4744)">
				<stop  offset="0" style="stop-color:#FFFFFF"/>
				<stop  offset="1" style="stop-color:#D7DBE2"/>
			</linearGradient>
			<path class="st34" d="M423.07,294.78c1.21,0.19,5.97,1.21,7.15,0.93c1.18-0.29,1.45-2.09-0.88-2.15c-3-0.08-4.84-0.02-6.11,0.08
				C422.48,293.69,422.65,294.72,423.07,294.78z"/>
			<path class="st14" d="M423.23,293.63c0.8-0.06,1.83-0.11,3.23-0.11c-0.36,0.57-0.48,1.19-0.42,1.8
				c-1.27-0.22-2.45-0.46-2.98-0.54C422.65,294.72,422.48,293.69,423.23,293.63z"/>
		</g>
		<g>
			<g>
				
					<linearGradient id="SVGID_12_" gradientUnits="userSpaceOnUse" x1="779.6377" y1="256.2921" x2="785.1274" y2="244.6022" gradientTransform="matrix(0.9957 0.0928 0.0928 -0.9957 -365.666 488.5069)">
					<stop  offset="0" style="stop-color:#2B2B75"/>
					<stop  offset="1" style="stop-color:#1A1455"/>
				</linearGradient>
				<path class="st35" d="M433.89,300.67c-0.45,4.84-0.28,16.52-0.27,20.01c0.01,2.85,1.33,2.17,2.12,1.95
					c1.18-0.33,4.17-5.84,4.87-12.75c0.64-6.31-1.65-8.8-2.15-9.89C437.95,298.91,434.12,298.16,433.89,300.67z"/>
				<g>
					<path class="st13" d="M433.61,320.68c-0.02,3.47-0.18,19.03-0.16,20.57c0.01,0.89,1,0.77,1.13,0.22
						c0.42-1.82,2.47-11.57,2.82-14.39c0.17-1.38-0.01-5.46-0.37-6.68C436.04,316.98,433.63,317,433.61,320.68z"/>
					<path class="st14" d="M435.63,336.59c-0.46,2.24-0.88,4.16-1.04,4.87c-0.13,0.55-1.12,0.67-1.13-0.22
						c-0.01-0.48,0-2.3,0.02-4.69C434.18,336.67,434.91,336.68,435.63,336.59z"/>
					<g>
						<g>
							<path class="st14" d="M434.6,341.46c-0.11,1.17,0.27,1.67-0.26,2.31c0,0-2.07-0.19-3.12-0.29c-0.31-0.03-0.43-0.21-0.13-0.38
								c0.27-0.15,0.61-0.22,1.14-0.33c1.01-0.19,1.13-0.47,1.23-1.53C433.56,340.18,434.67,340.64,434.6,341.46z"/>
						</g>
						<g>
							<path class="st13" d="M431.1,343.1c0.27-0.15,0.61-0.22,1.14-0.33c0.07-0.01,0.13-0.03,0.19-0.04
								c0.41,0.19,1.32,0.51,2.2,0.13c0.01,0.33-0.03,0.6-0.29,0.91c0,0-2.07-0.19-3.12-0.29
								C430.91,343.45,430.8,343.26,431.1,343.1z"/>
						</g>
					</g>
				</g>
			</g>
			<g>
				<path class="st10" d="M430.79,300.68c-0.48,4.84-0.55,16.51-0.56,20c-0.01,2.86,1.32,2.18,2.11,1.97
					c1.19-0.32,4.29-5.82,5.02-12.72c0.67-6.31-1.51-8.8-2.01-9.9C434.86,298.94,431.04,298.18,430.79,300.68z"/>
				<g>
					<path class="st10" d="M432.3,323.61c3.12,1.52,17.08,8.4,18.47,9.04c0.81,0.37,1.13-0.57,0.68-0.93
						c-1.46-1.17-9.36-7.23-11.75-8.77c-1.17-0.75-4.92-2.35-6.18-2.56C430.02,319.82,428.99,322,432.3,323.61z"/>
					<path class="st14" d="M447.52,328.68c1.82,1.39,3.37,2.59,3.94,3.05c0.44,0.35,0.12,1.3-0.68,0.93c-0.43-0.2-2.07-1-4.22-2.05
						C446.97,330.02,447.29,329.36,447.52,328.68z"/>
					<g>
						<g>
							<path class="st14" d="M451.42,331.69c1.04,0.56,1.64,0.4,2.03,1.13c0,0-0.98,1.83-1.48,2.76c-0.15,0.28-0.36,0.31-0.4-0.03
								c-0.03-0.31,0.03-0.65,0.14-1.17c0.21-1,0-1.22-0.93-1.73C449.85,332.14,450.7,331.3,451.42,331.69z"/>
						</g>
						<g>
							<path class="st13" d="M451.58,335.55c-0.03-0.31,0.03-0.65,0.14-1.17c0.01-0.07,0.03-0.13,0.04-0.19
								c0.33-0.3,0.99-1.02,0.97-1.97c0.31,0.12,0.54,0.27,0.72,0.62c0,0-0.98,1.83-1.48,2.76
								C451.82,335.85,451.61,335.89,451.58,335.55z"/>
						</g>
					</g>
				</g>
			</g>
			
				<linearGradient id="SVGID_13_" gradientUnits="userSpaceOnUse" x1="431.7931" y1="65.5852" x2="427.8563" y2="65.1232" gradientTransform="matrix(1 0 0 -1 0 358)">
				<stop  offset="0" style="stop-color:#FFFFFF"/>
				<stop  offset="1" style="stop-color:#D7DBE2"/>
			</linearGradient>
			<path class="st36" d="M436.59,282.6c-0.1,0.84-0.61,2.84-0.21,3.5c0.74,1.21,1.2,1.2,1.82,1.6c1.07,0.68,1.21,2.79,0.9,4.24
				c-0.49,2.32-0.8,2.84-0.94,4.01c-0.23,1.84-0.01,3.02,0.87,5.18c0,0-1.82,0.59-4.65,0.59s-3.96-0.46-3.96-0.46
				c0.5-2.22,1.45-4.31,1.43-5.52c-0.02-1.21-0.61-1.83-0.61-1.83s-1.03-0.18-1.15-1.23c-0.12-1.05,0.79-2.51,0.79-2.51
				s-0.18-1.5,0.07-2.05s1.64-0.85,2.38-1.17c0.74-0.33,0.42-2.78,0.5-3.42C433.9,282.91,436.73,281.43,436.59,282.6z"/>
			<g>
				<path class="st14" d="M438.05,287.61c-0.55-0.31-0.99-0.4-1.66-1.5c-0.4-0.66,0.1-2.66,0.21-3.5c0.14-1.17-2.68,0.31-2.77,0.94
					c-0.08,0.64,0.24,3.09-0.5,3.42c-0.26,0.12-0.61,0.23-0.96,0.35c0.43,0.18,1.24,0.44,2.32,0.45
					C436.65,287.79,437.68,287.67,438.05,287.61z"/>
			</g>
			<g>
				<path class="st18" d="M432.44,281.02c-0.31,1.22-0.77,1.31,0.12,1.44L432.44,281.02z"/>
				<path class="st14" d="M437.82,280.97c-0.25,1.05-0.52,1.36-1.27,1.86c-1,0.67-1.6,1.59-2.69,1.5c-1.4-0.12-1.74-2.41-1.27-4.48
					c0.33-1.46,1.72-2.41,3.18-2.07C437.24,278.12,438.17,279.51,437.82,280.97z"/>
				<path class="st37" d="M437.6,282.03c0.16-0.37,1.52-3.43-1.44-4.36c-3.83-1.2-3.85,3.06-3.85,3.06
					c1.06,0.18,1.64-0.49,1.64-0.49c-0.05,0.44,0.25,0.88,0.25,0.88c-0.14,0.77,0.01,1.22,0.01,1.22s0.53,1.94,2.02,2.61
					C436.22,284.96,436.62,284.25,437.6,282.03z"/>
				<path class="st37" d="M442.6,286.4c-1.08-1.27-2.46-2.24-2.61-3.07c-0.18-1-0.86-1.55-0.8-2.77c0.08-1.7-1.23-3.06-2.93-3.14
					c-1.7-0.08-2.31,0.71-2.38,2.41c-0.1,2.41,0.54,2.22,1.72,3.29l-0.87,0.31c1.27,2.75,0.96,3.96,0.97,5.97s0.86,2.56,0.93,4.39
					c0.07,1.83,2.41,2.05,4.7,1.81c2.29-0.23,0.66-0.92,2.79-2.88C446.26,290.76,443.68,287.67,442.6,286.4z"/>
				<path class="st14" d="M434.39,281.36c0.35-0.35,0.93-0.21,1,0.41c0.07,0.61-0.57,0.75-0.79,1.09c-0.22,0.33-0.65,0.24-0.66-0.03
					C433.91,282.35,434.16,281.59,434.39,281.36z"/>
			</g>
			<g>
				<g>
					<path class="st14" d="M418.23,289.41c-1.27-0.42-1.48-1.07-1.98-1.27c-0.51-0.2-1.92-0.23-2.39,0.15s-0.02,0.48,0.41,0.53
						s1.32,0.09,1.72,0.61s0.8,0.63,1.85,1.07C418.88,290.95,418.96,289.66,418.23,289.41z"/>
				</g>
				<path class="st8" d="M431.72,287.61c-1.66,0.52-6.1,2.55-7.19,3.1c-1.09,0.54-0.89,2.59,1.34,1.9s5.1-1.23,6.32-1.56
					C434.29,290.49,434.09,286.86,431.72,287.61z"/>
				<path class="st8" d="M417.84,290.5c1.15,0.43,5.6,2.39,6.82,2.35s1.84-1.76-0.43-2.29c-2.92-0.68-4.74-1-6-1.16
					C417.48,289.32,417.44,290.36,417.84,290.5z"/>
				<path class="st14" d="M418.23,289.41c0.79,0.1,1.81,0.26,3.19,0.54c-0.47,0.49-0.71,1.07-0.77,1.68
					c-1.2-0.47-2.31-0.94-2.81-1.13C417.44,290.36,417.48,289.32,418.23,289.41z"/>
			</g>
		</g>
	</g>
	<g>
		
			<rect x="369.43" y="285.93" transform="matrix(0.3268 -0.9451 0.9451 0.3268 3.086 586.9574)" class="st38" width="88.25" height="10.77"/>
		<g>
			<polygon class="st39" points="394.04,331.26 404.22,334.77 396.67,343.42 394.63,342.72 			"/>
			<polygon class="st40" points="394.63,342.72 396.67,343.42 394.78,345.6 			"/>
		</g>
	</g>
	<g>
		<g>
			<g>
				<path class="st6" d="M499.97,256.66c-0.98-8.15-5.31-10.25-7.55-15.93c-1.56-3.95-1.54-7.99-1.54-12.48
					c0-6.62-4.81-11.98-12.3-11.98s-12.3,5.36-12.3,11.98c0,4.48,0.02,8.52-1.54,12.48c-2.24,5.68-6.57,7.78-7.55,15.93
					c-1.25,10.38,9.57,16.37,21.38,16.37C490.4,273.03,501.22,267.04,499.97,256.66z"/>
				<path class="st32" d="M499.97,256.66c-0.98-8.15-5.31-10.25-7.55-15.93c-1.56-3.95-1.54-7.99-1.54-12.48
					c0-6.62-4.81-11.98-12.3-11.98v56.77C490.4,273.03,501.22,267.04,499.97,256.66z"/>
			</g>
			<path class="st10" d="M489.5,258.61c-0.13-0.3-0.48-0.44-0.78-0.31l-9.54,4.09v-16.11l9.29-6.19c0.27-0.18,0.35-0.55,0.16-0.82
				c-0.18-0.27-0.55-0.35-0.82-0.17l-8.63,5.75V224.2c0-0.33-0.26-0.59-0.59-0.59c-0.33,0-0.59,0.26-0.59,0.59v20.66l-8.63-5.75
				c-0.27-0.18-0.64-0.11-0.82,0.17c-0.18,0.27-0.11,0.64,0.16,0.82l9.29,6.19v16.11l-9.54-4.09c-0.3-0.13-0.65,0.01-0.78,0.31
				c-0.13,0.3,0.01,0.65,0.31,0.78l10,4.29v39.79h1.18v-39.79l10-4.29C489.49,259.26,489.63,258.91,489.5,258.61z"/>
		</g>
	</g>
</g>
</svg>
