<?xml version="1.0" encoding="utf-8"?>
<!-- Generator: Adobe Illustrator 24.1.3, SVG Export Plug-In . SVG Version: 6.00 Build 0)  -->
<svg version="1.1" id="Layer_1" xmlns="http://www.w3.org/2000/svg" xmlns:xlink="http://www.w3.org/1999/xlink" x="0px" y="0px"
	 viewBox="0 0 486 307" style="enable-background:new 0 0 486 307;" xml:space="preserve">
<style type="text/css">
	.st0{fill:url(#SVGID_1_);}
	.st1{fill:url(#SVGID_2_);}
	.st2{fill:url(#SVGID_3_);}
	.st3{fill:url(#SVGID_4_);}
	.st4{fill:#00BA96;}
	.st5{fill:#C6DBF1;}
	.st6{fill:#00CCB8;}
	.st7{fill:#FFFFFF;}
	.st8{fill:#5962AA;}
	.st9{fill:#959FCF;}
	.st10{fill:#333F72;}
	.st11{fill:#E8E8E8;}
	.st12{fill:#3D3C4C;}
	.st13{fill:#C1C1C1;}
	.st14{fill:#DBDBDB;}
	.st15{fill:url(#SVGID_5_);}
	.st16{fill:url(#SVGID_6_);}
	.st17{fill:#2B2B75;}
	.st18{fill:url(#SVGID_7_);}
	.st19{fill:#1A1455;}
	.st20{fill:#F6BDB7;}
	.st21{fill:url(#SVGID_8_);}
	.st22{fill:url(#SVGID_9_);}
	.st23{fill:url(#SVGID_10_);}
	.st24{fill:#E8557D;}
	.st25{fill:#F19D98;}
	.st26{fill:#F2A6B2;}
	.st27{fill:#FFD524;}
	.st28{fill:#848FC6;}
	.st29{fill:#727FBC;}
	.st30{fill:url(#SVGID_11_);}
	.st31{fill:url(#SVGID_12_);}
	.st32{fill:url(#SVGID_13_);}
	.st33{fill:#F19106;}
	.st34{fill:url(#SVGID_14_);}
	.st35{fill:#63637A;}
	.st36{fill:url(#SVGID_15_);}
	.st37{fill:#D6D6D6;}
	.st38{fill:#603829;}
	.st39{fill:#00B4BD;}
	.st40{fill:#9B9B9B;}
	.st41{fill:url(#SVGID_16_);}
	.st42{fill:url(#SVGID_17_);}
	.st43{fill:url(#SVGID_18_);}
	.st44{fill:url(#SVGID_19_);}
	.st45{fill:url(#SVGID_20_);}
	.st46{fill:url(#SVGID_21_);}
	.st47{fill:url(#SVGID_22_);}
	.st48{fill:url(#SVGID_23_);}
	.st49{fill:#F08F67;}
	.st50{fill:url(#SVGID_24_);}
	.st51{fill:url(#SVGID_25_);}
	.st52{fill:url(#SVGID_26_);}
	.st53{fill:url(#SVGID_27_);}
	.st54{fill:#EF874A;}
	.st55{fill:url(#SVGID_28_);}
	.st56{fill:url(#SVGID_29_);}
	.st57{fill:url(#SVGID_30_);}
	.st58{fill:url(#SVGID_31_);}
	.st59{fill:url(#SVGID_32_);}
	.st60{fill:#58308D;}
</style>
<g>
	
		<linearGradient id="SVGID_1_" gradientUnits="userSpaceOnUse" x1="431.025" y1="52.6732" x2="431.025" y2="217.6732" gradientTransform="matrix(1 0 0 -1 0 308)">
		<stop  offset="0" style="stop-color:#CCC4E2"/>
		<stop  offset="0.0417" style="stop-color:#D3CDE5"/>
		<stop  offset="0.1501" style="stop-color:#E1DEEB"/>
		<stop  offset="0.285" style="stop-color:#EBE9EF"/>
		<stop  offset="0.4744" style="stop-color:#F0F0F1"/>
		<stop  offset="1" style="stop-color:#F2F2F2"/>
	</linearGradient>
	<polygon class="st0" points="431.03,90.33 481.42,255.33 380.63,255.33 	"/>
	
		<linearGradient id="SVGID_2_" gradientUnits="userSpaceOnUse" x1="54.1453" y1="52.6732" x2="54.1453" y2="192.245" gradientTransform="matrix(1 0 0 -1 0 308)">
		<stop  offset="0" style="stop-color:#CCC4E2"/>
		<stop  offset="0.0417" style="stop-color:#D3CDE5"/>
		<stop  offset="0.1501" style="stop-color:#E1DEEB"/>
		<stop  offset="0.285" style="stop-color:#EBE9EF"/>
		<stop  offset="0.4744" style="stop-color:#F0F0F1"/>
		<stop  offset="1" style="stop-color:#F2F2F2"/>
	</linearGradient>
	<polygon class="st1" points="54.15,115.75 96.77,255.33 11.52,255.33 	"/>
	
		<linearGradient id="SVGID_3_" gradientUnits="userSpaceOnUse" x1="119.1703" y1="52.6732" x2="119.1703" y2="135.1732" gradientTransform="matrix(1 0 0 -1 0 308)">
		<stop  offset="0" style="stop-color:#CCC4E2"/>
		<stop  offset="0.0417" style="stop-color:#D3CDE5"/>
		<stop  offset="0.1501" style="stop-color:#E1DEEB"/>
		<stop  offset="0.285" style="stop-color:#EBE9EF"/>
		<stop  offset="0.4744" style="stop-color:#F0F0F1"/>
		<stop  offset="1" style="stop-color:#F2F2F2"/>
	</linearGradient>
	<polygon class="st2" points="119.17,172.83 144.37,255.33 93.97,255.33 	"/>
</g>
<linearGradient id="SVGID_4_" gradientUnits="userSpaceOnUse" x1="255.2" y1="281.65" x2="255.2" y2="258.45">
	<stop  offset="0" style="stop-color:#E8E8E8"/>
	<stop  offset="0.9894" style="stop-color:#CFCFCF"/>
</linearGradient>
<path class="st3" d="M428.34,270.05c0,6.41-77.52,11.6-173.14,11.6s-173.14-5.19-173.14-11.6s77.52-11.6,173.14-11.6
	C350.82,258.45,428.34,263.64,428.34,270.05z"/>
<g>
	<path class="st4" d="M370.16,268.28V66.46c0-7-5.67-12.67-12.67-12.67H143.35c-6.99,0-12.67,5.67-12.67,12.67v201.82H370.16z"/>
	<rect x="130.69" y="66.46" class="st5" width="239.47" height="201.82"/>
	<path class="st6" d="M359.03,268.28V66.46c0-7-5.67-12.67-12.67-12.67H136.08c-6.99,0-12.67,5.67-12.67,12.67v201.82H359.03z"/>
	<rect x="123.42" y="66.46" class="st7" width="235.61" height="201.82"/>
	<rect x="123.42" y="66.46" class="st8" width="58.93" height="201.82"/>
	<path class="st7" d="M141.37,60.31c0,1.88-1.52,3.4-3.4,3.4c-1.88,0-3.4-1.52-3.4-3.4s1.52-3.4,3.4-3.4
		C139.85,56.92,141.37,58.44,141.37,60.31z"/>
	<path class="st7" d="M152.11,60.31c0,1.88-1.52,3.4-3.4,3.4c-1.88,0-3.4-1.52-3.4-3.4s1.52-3.4,3.4-3.4
		C150.59,56.92,152.11,58.44,152.11,60.31z"/>
	<path class="st7" d="M162.85,60.31c0,1.88-1.52,3.4-3.4,3.4c-1.88,0-3.4-1.52-3.4-3.4s1.52-3.4,3.4-3.4
		C161.33,56.92,162.85,58.44,162.85,60.31z"/>
	<path class="st5" d="M168.97,164.6h-33.29c-0.99,0-1.79,0.8-1.79,1.79c0,0.99,0.8,1.79,1.79,1.79h33.29c0.99,0,1.79-0.8,1.79-1.79
		C170.75,165.4,169.95,164.6,168.97,164.6z"/>
	<path class="st5" d="M168.49,122.4h-31.47c-1.25,0-2.27,1.02-2.27,2.27s1.02,2.27,2.27,2.27h31.47c1.25,0,2.27-1.02,2.27-2.27
		S169.75,122.4,168.49,122.4z"/>
	<path class="st9" d="M168.97,154.1h-16.53c-0.99,0-1.79,0.8-1.79,1.79c0,0.99,0.8,1.79,1.79,1.79h16.53c0.99,0,1.79-0.8,1.79-1.79
		C170.75,154.9,169.95,154.1,168.97,154.1z"/>
	<path class="st5" d="M168.97,174.88h-33.29c-0.99,0-1.79,0.8-1.79,1.79c0,0.99,0.8,1.79,1.79,1.79h33.29c0.99,0,1.79-0.8,1.79-1.79
		C170.75,175.68,169.95,174.88,168.97,174.88z"/>
	<path class="st10" d="M168.97,185.15h-33.29c-0.99,0-1.79,0.8-1.79,1.79c0,0.99,0.8,1.79,1.79,1.79h33.29
		c0.99,0,1.79-0.8,1.79-1.79C170.75,185.95,169.95,185.15,168.97,185.15z"/>
</g>
<g>
	<path class="st11" d="M264.06,200.82h-66c-3.3,0-6-2.7-6-6v-110c0-3.3,2.7-6,6-6h66c3.3,0,6,2.7,6,6v110
		C270.06,198.12,267.36,200.82,264.06,200.82z"/>
	<path class="st12" d="M270.06,88.82v-4c0-3.3-2.7-6-6-6h-66c-3.3,0-6,2.7-6,6v4H270.06z"/>
</g>
<g>
	<path class="st13" d="M262.88,195.5h-63c-1.65,0-3-1.35-3-3v-17c0-1.65,1.35-3,3-3h63c1.65,0,3,1.35,3,3v17
		C265.88,194.15,264.53,195.5,262.88,195.5z"/>
</g>
<ellipse class="st14" cx="53.1" cy="270.05" rx="15.35" ry="2.34"/>
<g>
	<g>
		<g>
			<linearGradient id="SVGID_5_" gradientUnits="userSpaceOnUse" x1="99.3793" y1="234.32" x2="99.3793" y2="168.27">
				<stop  offset="0" style="stop-color:#E8E8E8"/>
				<stop  offset="0.9894" style="stop-color:#00BF8C"/>
			</linearGradient>
			<path class="st15" d="M124.26,215.27c-1.14-9.49-6.18-11.93-8.78-18.54c-1.81-4.6-1.79-9.3-1.79-14.52
				c0-7.7-5.6-13.94-14.31-13.94s-14.31,6.24-14.31,13.94c0,5.22,0.02,9.92-1.79,14.52c-2.6,6.61-7.64,9.05-8.78,18.54
				c-1.45,12.08,11.14,19.05,24.88,19.05C113.12,234.32,125.7,227.35,124.26,215.27z"/>
			<linearGradient id="SVGID_6_" gradientUnits="userSpaceOnUse" x1="111.8764" y1="234.31" x2="111.8764" y2="168.27">
				<stop  offset="0" style="stop-color:#E8E8E8"/>
				<stop  offset="0.9894" style="stop-color:#00956F"/>
			</linearGradient>
			<path class="st16" d="M124.26,215.27c-1.14-9.49-6.18-11.93-8.78-18.54c-1.81-4.6-1.79-9.3-1.79-14.52
				c0-7.7-5.6-13.94-14.31-13.94v66.04C113.12,234.32,125.7,227.35,124.26,215.27z"/>
		</g>
		<path class="st17" d="M112.07,217.54c-0.15-0.35-0.56-0.51-0.9-0.36l-11.1,4.76V203.2l10.8-7.2c0.32-0.21,0.4-0.64,0.19-0.95
			c-0.21-0.32-0.64-0.4-0.96-0.19l-10.04,6.69v-24.03c0-0.38-0.31-0.69-0.69-0.69s-0.69,0.31-0.69,0.69v24.03l-10.04-6.69
			c-0.32-0.21-0.75-0.13-0.95,0.19c-0.21,0.31-0.13,0.74,0.19,0.95l10.8,7.2v18.74l-11.1-4.76c-0.35-0.15-0.75,0.01-0.9,0.36
			s0.01,0.75,0.36,0.9l11.64,4.99v46.29h1.38v-46.29l11.64-4.99C112.06,218.3,112.22,217.89,112.07,217.54z"/>
	</g>
</g>
<g>
	<path class="st17" d="M282.42,27.77c0-1.62,1.21-2.96,2.84-2.96c1.62,0,3.16,0.66,3.33,2.72c0.06,0.68,0.78,3.07,1.55,3.97
		c1.38,1.62,2.91,3.03,2.91,5.42s-2.88,5.86-6.41,4.76c-3.53-1.09-4.38-2.42-4.9-5.1C281.16,33.61,282.42,31.4,282.42,27.77z"/>
	<g>
		
			<linearGradient id="SVGID_7_" gradientUnits="userSpaceOnUse" x1="-10188.2285" y1="6327.1089" x2="-10185.4033" y2="6310.3525" gradientTransform="matrix(-0.2922 -0.9564 0.9564 -0.2922 -8743.6943 -7844.0957)">
			<stop  offset="0" style="stop-color:#2B2B75"/>
			<stop  offset="1" style="stop-color:#1A1455"/>
		</linearGradient>
		<path class="st18" d="M285.15,46.98c-4.51,1.09-15.03,4.74-18.17,5.83c-2.57,0.89-1.55,1.87-1.11,2.52
			c0.66,0.97,6.57,2.01,13.02,0.51c5.89-1.37,7.45-4.16,8.28-4.94C287.99,50.1,287.48,46.42,285.15,46.98z"/>
		<g>
			<path class="st19" d="M265.33,56.13c0.56,3.26,3.02,17.9,3.3,19.34c0.16,0.83,1.07,0.55,1.1,0.01
				c0.09-1.78,0.38-11.28,0.24-13.99c-0.07-1.33-0.92-5.12-1.46-6.21C266.99,52.25,264.74,52.67,265.33,56.13z"/>
			<path class="st20" d="M269.89,70.73c-0.06,2.18-0.12,4.05-0.16,4.75c-0.03,0.54-0.94,0.82-1.1-0.01
				c-0.09-0.45-0.38-2.16-0.76-4.41C268.55,71.05,269.23,70.93,269.89,70.73z"/>
			<g>
				<g>
					<path class="st20" d="M269.73,75.48c0.09,1.12,0.53,1.53,0.15,2.21c0,0-1.97,0.17-2.97,0.25c-0.3,0.03-0.44-0.13-0.18-0.33
						c0.23-0.18,0.53-0.31,1.01-0.5c0.91-0.35,0.98-0.63,0.9-1.64C268.55,74.45,269.67,74.7,269.73,75.48z"/>
				</g>
				<g>
					<path class="st19" d="M266.72,77.61c0.23-0.18,0.53-0.31,1.01-0.5c0.06-0.02,0.12-0.05,0.17-0.07
						c0.41,0.11,1.33,0.26,2.08-0.25c0.06,0.31,0.07,0.57-0.12,0.9c0,0-1.97,0.17-2.97,0.25C266.61,77.97,266.47,77.81,266.72,77.61
						z"/>
				</g>
			</g>
		</g>
	</g>
	<g>
		<path class="st17" d="M287.39,46.22c-4.39,1.51-14.48,6.24-17.5,7.62c-2.48,1.13-1.37,2.01-0.87,2.61
			c0.75,0.9,6.71,1.33,12.99-0.77c5.74-1.92,7.29-4.69,7.75-5.75C290.21,48.88,289.65,45.44,287.39,46.22z"/>
		<g>
			<path class="st17" d="M268.88,57.37c1.51,2.94,8.24,16.18,8.93,17.47c0.4,0.74,1.19,0.21,1.05-0.32
				c-0.45-1.73-3.01-10.87-3.96-13.42c-0.46-1.25-2.41-4.61-3.25-5.49C269.3,53.17,267.27,54.24,268.88,57.37z"/>
			<path class="st20" d="M277.59,69.94c0.6,2.1,1.09,3.91,1.27,4.58c0.13,0.52-0.65,1.06-1.05,0.32c-0.22-0.4-1.01-1.95-2.05-3.98
				C276.41,70.65,277.03,70.33,277.59,69.94z"/>
			<g>
				<g>
					<path class="st20" d="M278.86,74.52c0.42,1.04,0.96,1.3,0.8,2.07c0,0-1.83,0.75-2.76,1.13c-0.28,0.11-0.46,0.01-0.27-0.26
						c0.16-0.24,0.42-0.46,0.82-0.78c0.77-0.61,0.75-0.9,0.36-1.84C277.42,73.89,278.57,73.79,278.86,74.52z"/>
				</g>
				<g>
					<path class="st19" d="M276.63,77.45c0.16-0.24,0.42-0.46,0.82-0.78c0.05-0.04,0.1-0.08,0.15-0.12
						c0.43-0.02,1.35-0.15,1.91-0.86c0.15,0.27,0.24,0.52,0.16,0.89c0,0-1.83,0.75-2.76,1.13
						C276.62,77.82,276.44,77.72,276.63,77.45z"/>
				</g>
			</g>
		</g>
	</g>
	<g>
		
			<linearGradient id="SVGID_8_" gradientUnits="userSpaceOnUse" x1="-6293.3633" y1="3829.1357" x2="-6293.2588" y2="3825.9038" gradientTransform="matrix(-0.99 0.1413 -0.1413 -0.99 -5408.9448 4716.8877)">
			<stop  offset="0" style="stop-color:#E8557D"/>
			<stop  offset="1" style="stop-color:#CA4374"/>
		</linearGradient>
		<path class="st21" d="M281.78,35.35c-1.14,1.21-3.87,4.98-4.52,5.94s0.47,2.57,2,0.95c1.53-1.61,3.66-3.41,4.53-4.25
			C285.27,36.54,283.41,33.62,281.78,35.35z"/>
		<g>
			<g>
				
					<linearGradient id="SVGID_9_" gradientUnits="userSpaceOnUse" x1="-759.2497" y1="274.2123" x2="-754.7627" y2="275.8493" gradientTransform="matrix(1 0 -0.2345 -1 1090.8611 308)">
					<stop  offset="0" style="stop-color:#E8557D"/>
					<stop  offset="1" style="stop-color:#CA4374"/>
				</linearGradient>
				<polygon class="st22" points="279.57,34.36 274.05,34.36 272.18,26.38 277.7,26.38 				"/>
				<path class="st20" d="M275.93,35.71c-0.32-1.24-0.92-1.48-1.07-1.97c-0.16-0.5-0.09-1.84,0.3-2.26
					c0.39-0.42,0.46,0.01,0.48,0.43c0.01,0.41-0.01,1.26,0.46,1.68s0.54,0.81,0.89,1.83C277.35,36.44,276.12,36.42,275.93,35.71z"/>
			</g>
			
				<linearGradient id="SVGID_10_" gradientUnits="userSpaceOnUse" x1="-3574.3682" y1="13868.0322" x2="-3574.2639" y2="13864.7998" gradientTransform="matrix(-0.7185 -0.6955 -0.6955 0.7185 7349.6665 -12406.0244)">
				<stop  offset="0" style="stop-color:#E8557D"/>
				<stop  offset="1" style="stop-color:#CA4374"/>
			</linearGradient>
			<path class="st23" d="M277,35.41c0.33,1.12,1.9,5.49,1.78,6.65s-1.79,1.63-2.15-0.56c-0.45-2.83-0.63-4.58-0.7-5.79
				C275.89,34.99,276.88,35.02,277,35.41z"/>
			<path class="st20" d="M275.93,35.71c0.04,0.76,0.13,1.74,0.3,3.07c0.5-0.41,1.07-0.6,1.65-0.62c-0.37-1.17-0.74-2.26-0.88-2.75
				C276.88,35.02,275.89,34.99,275.93,35.71z"/>
		</g>
	</g>
	<path class="st24" d="M286.84,30.07c-0.1,0.8-0.58,2.71-0.2,3.34c0.7,1.15,2.19,0.85,3.13,1.18c1.26,0.44,0.97,1.22,0.68,2.61
		c-0.47,2.21-1.97,4.5-2.11,5.62c-0.21,1.76,0.78,2.88,1.62,4.95c0,0-1.74,0.57-4.44,0.57s-3.78-0.44-3.78-0.44
		c0.18-1.93,0.59-4.11,0.57-5.27c-0.02-1.15-0.21-1.75-0.21-1.75s-0.98-0.18-1.1-1.17c-0.12-1,0.76-2.4,0.76-2.4
		s-0.17-1.43,0.07-1.96c0.23-0.53,1.19-0.81,1.89-1.12c0.7-0.31,0.4-2.65,0.48-3.26C284.28,30.36,286.98,28.95,286.84,30.07z"/>
	<g>
		<path class="st20" d="M284.69,36.7c-1.56-0.03-1.8-2.12-1.8-2.12c0.28-0.12,0.58-0.23,0.84-0.35c0.7-0.31,0.4-2.65,0.48-3.26
			c0.08-0.61,2.78-2.01,2.64-0.9c-0.1,0.8-0.58,2.71-0.2,3.34c0.37,0.6,0.94,0.8,1.54,0.91C288.19,34.32,287.09,36.74,284.69,36.7z"
			/>
	</g>
	<g>
		<path class="st25" d="M286.13,30.84c0.07-0.73,0.1-1.01,0.15-1.46c0.14-1.11-2.01,0.98-2.08,1.59c-0.05,0.37,0.05,1.41-0.03,2.22
			C285.11,33.03,285.59,31.47,286.13,30.84z"/>
	</g>
	<g>
		<path class="st20" d="M287.86,27.77c0,1.03-0.19,1.38-0.78,2c-0.79,0.84-1.14,1.82-2.17,1.97c-1.33,0.2-2.14-1.86-2.15-3.89
			c-0.01-1.43,1.07-2.61,2.5-2.61C286.7,25.25,287.86,26.34,287.86,27.77z"/>
		<path class="st17" d="M282.68,28.74c0,0-0.91-3.95,2.91-3.68c2.95,0.21,2.39,3.36,2.29,3.73L287,29.27c0,0-0.1-0.23-0.14-0.98
			c0,0-0.82-0.66-0.86-1.23C286,27.06,284.91,28.7,282.68,28.74z"/>
		<path class="st20" d="M287.26,28.78c0.36-0.3,0.9-0.11,0.92,0.48c0.01,0.59-0.61,0.66-0.85,0.96c-0.24,0.3-0.64,0.16-0.63-0.09
			C286.72,29.67,287.02,28.98,287.26,28.78z"/>
	</g>
	<g>
		<g>
			<path class="st20" d="M285.33,47.44c-0.66,0.48-1.59,0.05-2.11,0.07s-1.02,0.17-1.29,0.68c-0.27,0.51,0.16,0.43,0.56,0.31
				s0.99-0.08,1.54,0.22c0.55,0.3,1.06,0.2,1.96-0.4C286.89,47.72,285.92,47.01,285.33,47.44z"/>
		</g>
		<path class="st24" d="M290.97,35.9c0.46,1.6,1.22,7.41,1.37,8.56s-1.58,2.07-2.22-0.06s-1.75-5.92-2.14-7.06
			C287.32,35.38,290.31,33.62,290.97,35.9z"/>
		<path class="st24" d="M285.8,48.44c1.07-0.48,5.41-2.13,6.21-2.97s0.07-2.43-1.82-1.26c-2.44,1.49-3.89,2.5-4.85,3.23
			C284.76,47.88,285.43,48.61,285.8,48.44z"/>
		<path class="st20" d="M285.33,47.44c0.61-0.46,1.41-1.04,2.53-1.77c0.01,0.65,0.23,1.2,0.6,1.66c-1.13,0.48-2.2,0.91-2.66,1.11
			C285.43,48.61,284.76,47.88,285.33,47.44z"/>
	</g>
</g>
<g>
	<polygon class="st26" points="286.74,272.43 280.77,272.43 279.42,264.73 288.09,264.73 	"/>
	<path class="st27" d="M280.26,264.73v1.05c0,0.17,0.14,0.3,0.3,0.3c0.17,0,0.3-0.14,0.3-0.3v-1.05H280.26z"/>
	<path class="st27" d="M286.01,264.73v2.68c0,0.17,0.14,0.3,0.3,0.3c0.17,0,0.3-0.14,0.3-0.3v-2.68H286.01z"/>
	<path class="st27" d="M282.46,264.73v3.28c0,0.17,0.14,0.3,0.3,0.3c0.17,0,0.3-0.14,0.3-0.3v-3.28H282.46z"/>
	<path class="st27" d="M283.66,264.73v1.55c0,0.17,0.13,0.3,0.3,0.3c0.17,0,0.3-0.14,0.3-0.3v-1.55H283.66z"/>
	<path class="st17" d="M281.44,269.21c-1.11,0-1.97-0.41-2.41-1.15c-0.52-0.87-0.42-2.1,0.26-3.39c0.04-0.07,0.12-0.09,0.19-0.06
		c0.07,0.04,0.09,0.12,0.06,0.19c-0.64,1.2-0.74,2.34-0.27,3.12c0.39,0.66,1.16,1.02,2.17,1.02c2.35,0,5.28-1.91,6.53-4.26
		c0.04-0.07,0.12-0.09,0.19-0.06c0.07,0.04,0.09,0.12,0.06,0.19C286.92,267.23,283.88,269.21,281.44,269.21z"/>
</g>
<g>
	<g>
		<rect x="202.48" y="247.65" class="st8" width="33.21" height="25.32"/>
		<rect x="185.85" y="247.65" class="st28" width="16.63" height="25.32"/>
	</g>
	<g>
		<rect x="219.12" y="260.28" class="st29" width="33.21" height="12.7"/>
		<rect x="202.48" y="260.28" class="st28" width="16.63" height="12.7"/>
	</g>
</g>
<path class="st5" d="M155.32,192.82l-30.71,12.84c-0.91,0.38-1.34,1.43-0.96,2.34s1.43,1.34,2.34,0.96l30.71-12.84
	c0.91-0.38,1.34-1.43,0.96-2.34C157.28,192.87,156.23,192.44,155.32,192.82z"/>
<g>
	<g>
		<g>
			<g>
				<g>
					<path class="st20" d="M104.24,266.88c-0.27,1.12-0.77,1.46-0.49,2.21c0,0,1.97,0.47,2.97,0.71c0.3,0.07,0.46-0.06,0.23-0.31
						c-0.2-0.22-0.49-0.4-0.95-0.66c-0.87-0.49-0.89-0.79-0.65-1.8C105.6,266.03,104.43,266.1,104.24,266.88z"/>
				</g>
				<g>
					<path class="st19" d="M106.95,269.5c-0.2-0.22-0.49-0.4-0.95-0.66c-0.06-0.03-0.11-0.07-0.16-0.1
						c-0.44,0.05-1.38,0.06-2.07-0.58c-0.11,0.3-0.16,0.57-0.02,0.93c0,0,1.97,0.47,2.97,0.71
						C107.02,269.88,107.18,269.74,106.95,269.5z"/>
				</g>
			</g>
			<path class="st20" d="M111.69,248c-1.08,3.21-5.83,17.63-6.33,19.04c-0.29,0.82-1.17,0.39-1.11-0.16
				c0.18-1.82,1.36-11.46,1.93-14.18c0.28-1.33,1.73-5.04,2.44-6.05C110.61,243.82,112.83,244.59,111.69,248z"/>
			<path class="st19" d="M108.61,246.66c-0.71,1.01-2.16,4.72-2.44,6.05c-0.43,2.09-1.87,10-2.3,13.58c0.46,0.42,1.5,0.63,2.01,0.66
				c1.44-4.31,4.93-16.29,5.81-18.94C112.83,244.59,110.61,243.82,108.61,246.66z"/>
		</g>
		
			<linearGradient id="SVGID_11_" gradientUnits="userSpaceOnUse" x1="-9167.4824" y1="476.6036" x2="-9165.1592" y2="458.8787" gradientTransform="matrix(-0.9959 -0.0905 0.0905 -0.9959 -9060.9746 -124.209)">
			<stop  offset="0" style="stop-color:#2B2B75"/>
			<stop  offset="1" style="stop-color:#1A1455"/>
		</linearGradient>
		<path class="st30" d="M115.14,227.04c-0.43,4.73-2.82,17.54-3.45,20.89c-0.52,2.74-1.67,1.85-2.38,1.5
			c-1.08-0.53-2.08-7.09-1.52-13.84c0.51-6.17,2.42-9.04,3.1-10C111.55,224.63,115.36,224.6,115.14,227.04z"/>
	</g>
	<g>
		<g>
			<g>
				<g>
					<path class="st20" d="M114.64,267.79c0,1.15-0.41,1.6,0.04,2.27c0,0,2.02,0,3.05,0c0.31,0,0.43-0.17,0.16-0.35
						c-0.25-0.17-0.57-0.27-1.08-0.42c-0.96-0.28-1.05-0.56-1.05-1.6C115.76,266.65,114.64,267,114.64,267.79z"/>
				</g>
				<g>
					<path class="st19" d="M117.89,269.71c-0.25-0.17-0.57-0.27-1.08-0.42c-0.07-0.02-0.13-0.04-0.18-0.06
						c-0.41,0.15-1.33,0.38-2.14-0.08c-0.04,0.32-0.02,0.59,0.19,0.91c0,0,2.02,0,3.05,0C118.04,270.06,118.16,269.89,117.89,269.71
						z"/>
				</g>
			</g>
			<path class="st20" d="M117.46,247.7c-0.3,3.37-1.55,18.5-1.71,19.99c-0.09,0.86-1.04,0.65-1.12,0.11
				c-0.25-1.81-1.35-11.46-1.44-14.23c-0.04-1.36,0.5-5.3,0.96-6.45C115.44,243.88,117.78,244.12,117.46,247.7z"/>
			<path class="st17" d="M114.16,247.11c-0.46,1.15-1,5.09-0.96,6.45c0.07,2.13,0.52,10.16,0.93,13.74c0.55,0.3,1.61,0.26,2.1,0.17
				c0.4-4.53,0.98-16.99,1.23-19.77C117.78,244.12,115.44,243.88,114.16,247.11z"/>
		</g>
		<path class="st17" d="M117.87,226.52c0.26,4.74-0.26,17.77-0.41,21.16c-0.12,2.78-1.38,2.07-2.14,1.82
			c-1.14-0.37-3.08-6.72-3.5-13.48c-0.38-6.18,1.09-9.3,1.62-10.34C113.98,224.65,117.74,224.07,117.87,226.52z"/>
	</g>
	<g>
		<g>
			<path class="st20" d="M121.35,209.98c0.87-0.97,0.73-1.62,1.07-2.03c0.33-0.41,1.52-1.12,2.1-1.03s0.25,0.4-0.09,0.65
				s-1.08,0.71-1.17,1.35c-0.09,0.63-0.38,0.92-1.05,1.8C121.54,211.6,120.85,210.54,121.35,209.98z"/>
			<path class="st20" d="M122.91,209.9c0.44-0.26,0.94-0.71,1.04-0.89c0.1-0.19-0.28-0.35-0.98,0.16
				C122.27,209.67,122.54,210.11,122.91,209.9z"/>
		</g>
		
			<linearGradient id="SVGID_12_" gradientUnits="userSpaceOnUse" x1="-2012.6355" y1="-2790.7356" x2="-2012.5288" y2="-2794.0405" gradientTransform="matrix(0.7503 -0.6611 -0.6611 -0.7503 -223.5716 -3210.8069)">
			<stop  offset="0" style="stop-color:#F19106"/>
			<stop  offset="1" style="stop-color:#EE7C0F"/>
		</linearGradient>
		<path class="st31" d="M109.28,213.73c1.7-0.08,6.44,0.29,7.62,0.42s1.68,2.07-0.59,2.19s-5.08,0.59-6.31,0.7
			C107.89,217.24,106.85,213.85,109.28,213.73z"/>
		
			<linearGradient id="SVGID_13_" gradientUnits="userSpaceOnUse" x1="-4899.7739" y1="-3471.2925" x2="-4899.667" y2="-3474.5977" gradientTransform="matrix(0.1781 -0.984 -0.984 -0.1781 -2430.782 -5227.647)">
			<stop  offset="0" style="stop-color:#F19106"/>
			<stop  offset="1" style="stop-color:#EE7C0F"/>
		</linearGradient>
		<path class="st32" d="M122.21,210.72c-0.77,0.92-3.59,4.74-4.64,5.29c-1.05,0.55-2.41-0.6-0.74-2.15
			c2.15-1.99,3.53-3.14,4.52-3.88C121.94,209.54,122.48,210.4,122.21,210.72z"/>
		<path class="st20" d="M121.35,209.98c-0.19,0.14-0.4,0.31-0.63,0.49c0.4,0.24,0.76,0.5,1.02,0.83c0.19-0.24,0.35-0.45,0.47-0.58
			C122.48,210.4,121.94,209.54,121.35,209.98z"/>
	</g>
	<path class="st17" d="M109.94,205.86c0,1.23,0.23,1.87,0.78,2.74c0.7,1.1,1.22,1.84,2.74,0.6c1.25-1.01,2.56-0.8,2.57-3.23
		c0.01-1.71-1.28-3.12-3-3.12C111.33,202.85,109.94,204.15,109.94,205.86z"/>
	<g>
		<g>
			<path class="st33" d="M114.39,208.52c-0.1,0.82-0.59,2.78-0.2,3.42c0.72,1.18,2.23,0.92,3.19,1.26c1.29,0.45,2.03,0.96,1.72,2.38
				c-0.48,2.26-0.88,4.05-1.05,6.17c-0.15,1.81-0.13,5.92,0.28,7.94c0,0-2.62,0.81-5.38,0.81c-2.76,0-4.44-0.78-4.44-0.78
				c0.19-1.97,0.1-6.69,0.08-7.87s-0.59-4.38-0.74-5.79s-0.33-1.62,0.3-2.07c0.48-0.35,2.33-0.89,3.05-1.21s0.41-2.71,0.49-3.33
				C111.77,208.82,114.53,207.39,114.39,208.52z"/>
			
				<linearGradient id="SVGID_14_" gradientUnits="userSpaceOnUse" x1="-9078.5713" y1="84.6041" x2="-9082.333" y2="84.5789" gradientTransform="matrix(-1 0 0 -1 -8961.3115 308)">
				<stop  offset="0" style="stop-color:#F19106"/>
				<stop  offset="1" style="stop-color:#EE7C0F"/>
			</linearGradient>
			<path class="st34" d="M108.6,221.85c-0.02-1-0.43-3.46-0.65-5.05c3.66-0.49,7.32-0.73,10.97-0.36c-0.4,1.87-0.71,3.46-0.87,5.3
				c-0.15,1.81-0.13,5.92,0.28,7.94c0,0-2.62,0.81-5.38,0.81c-2.76,0-4.44-0.78-4.44-0.78C108.7,227.75,108.62,223.03,108.6,221.85z
				"/>
		</g>
		<path class="st20" d="M110.99,212.87c0.08-0.03,0.16-0.06,0.22-0.09c0.72-0.32,0.41-2.71,0.49-3.33c0.08-0.62,2.84-2.06,2.7-0.92
			c-0.1,0.82-0.59,2.78-0.2,3.42c0.18,0.29,0.4,0.49,0.65,0.63C113.66,213.25,112.07,213.39,110.99,212.87z"/>
	</g>
	<g>
		<path class="st25" d="M116.27,207.24c0.03,1.26,0.46,1.46-0.44,1.38L116.27,207.24z"/>
		<path class="st20" d="M111,205.97c0,1.09,0.2,1.46,0.82,2.12c0.83,0.89,1.2,1.93,2.29,2.09c1.4,0.21,2.26-1.96,2.27-4.11
			c0.01-1.51-1.13-2.76-2.65-2.76C112.22,203.3,111,204.45,111,205.97z"/>
		<path class="st17" d="M110.97,207.05c-0.07-0.4-0.7-3.72,2.42-3.94c4.04-0.29,3.08,3.88,3.08,3.88c-1.08-0.07-1.5-0.85-1.5-0.85
			c-0.05,0.44-0.44,0.81-0.44,0.81c-0.04,0.79-0.29,1.2-0.29,1.2s-0.96,1.79-2.58,2.1C111.65,210.24,111.43,209.46,110.97,207.05z"
			/>
		<path class="st20" d="M114.28,207.13c-0.26-0.42-0.87-0.41-1.08,0.17s0.39,0.87,0.52,1.25c0.14,0.38,0.58,0.38,0.66,0.12
			C114.52,208.21,114.45,207.41,114.28,207.13z"/>
	</g>
	<g>
		<g>
			<path class="st20" d="M130.11,216.7c1.21-0.5,1.77-0.17,2.27-0.34c0.5-0.18,1.55-1.07,1.66-1.65c0.1-0.58-0.29-0.37-0.64-0.13
				c-0.35,0.24-1.02,0.79-1.65,0.66c-0.63-0.12-0.99,0.06-2.04,0.4C128.64,216,129.41,216.99,130.11,216.7z"/>
			<path class="st20" d="M130.69,215.26c0.39-0.33,0.98-0.66,1.19-0.69c0.21-0.04,0.24,0.37-0.47,0.87
				C130.7,215.94,130.37,215.54,130.69,215.26z"/>
		</g>
		<path class="st33" d="M118.28,213.53c1.44,0.9,5.12,3.91,6.02,4.7c0.9,0.78,0.2,2.66-1.74,1.46c-1.94-1.2-4.51-2.42-5.58-3.03
			C115.14,215.61,116.23,212.23,118.28,213.53z"/>
		<path class="st33" d="M129.69,215.65c-1.12,0.42-5.65,1.84-6.52,2.65c-0.87,0.81-0.22,2.47,1.79,1.4c2.58-1.38,4.12-2.31,5.15-3
			C130.72,216.29,130.08,215.5,129.69,215.65z"/>
		<path class="st20" d="M129.57,217.05c0.19-0.12,0.37-0.24,0.53-0.35c0.61-0.41-0.03-1.2-0.42-1.05c-0.12,0.05-0.29,0.11-0.48,0.17
			C129.48,216.13,129.65,216.52,129.57,217.05z"/>
	</g>
</g>
<g>
	<g>
		<path class="st7" d="M132.66,89.06c0.54,0.28,1.37,0.57,2.26,0.57c0.87,0,1.34-0.34,1.34-0.87c0-0.47-0.39-0.76-1.45-1.07
			c-1.43-0.41-2.47-1.11-2.47-2.44c0-1.4,1.26-2.44,3.23-2.44c1.05,0,1.77,0.19,2.33,0.45l-0.45,1.5c-0.35-0.16-1.01-0.42-1.91-0.42
			c-0.84,0-1.24,0.36-1.24,0.76c0,0.52,0.52,0.74,1.62,1.09c1.55,0.5,2.3,1.22,2.3,2.46c0,1.3-1.01,2.53-3.46,2.53
			c-1,0-2.02-0.28-2.53-0.56L132.66,89.06z"/>
		<path class="st7" d="M142.51,87.32v1.24h-3.39v-1.24H142.51z"/>
		<path class="st7" d="M151.21,90.61c-0.64,0.21-1.82,0.51-3.04,0.51c-1.66,0-2.85-0.41-3.66-1.18c-0.76-0.71-1.18-1.72-1.18-2.83
			c0-2.6,2.05-4.24,5.01-4.24c1.19,0,2.11,0.22,2.56,0.44l-0.42,1.5c-0.52-0.22-1.14-0.4-2.2-0.4c-1.68,0-2.94,0.9-2.94,2.54
			c0,1.58,1.15,2.65,2.9,2.65c0.5,0,0.91-0.06,1.09-0.14v-1.62h-1.42v-1.47h3.3V90.61z"/>
		<path class="st7" d="M154.8,88.89l-0.64,2.15h-2.01l2.7-8.08h2.56l2.83,8.08h-2.12l-0.71-2.15H154.8z M157.1,87.48l-0.58-1.73
			c-0.16-0.47-0.31-1.01-0.45-1.46h-0.02c-0.13,0.46-0.25,1-0.4,1.46l-0.55,1.72h2V87.48z"/>
		<path class="st7" d="M163.18,84.52h-2.43v-1.56h6.82v1.56h-2.47v6.52h-1.91v-6.52H163.18z"/>
		<path class="st7" d="M173.84,87.66h-3.35v1.83h3.74v1.54h-5.65v-8.08h5.47v1.54h-3.56v1.63h3.35L173.84,87.66L173.84,87.66z"/>
	</g>
</g>
<path class="st7" d="M367.06,36.82L367.06,36.82c-1.65,0-3-1.35-3-3l0,0c0-1.65,1.35-3,3-3l0,0c1.65,0,3,1.35,3,3l0,0
	C370.06,35.47,368.71,36.82,367.06,36.82z"/>
<path class="st35" d="M253.56,85.82h-55c-0.82,0-1.5-0.67-1.5-1.5v-1c0-0.82,0.68-1.5,1.5-1.5h55c0.83,0,1.5,0.68,1.5,1.5v1
	C255.06,85.14,254.39,85.82,253.56,85.82z"/>
<g>
	<g>
		<g>
			<path class="st7" d="M262.88,115.5h-63c-1.65,0-3-1.35-3-3v-17c0-1.65,1.35-3,3-3h63c1.65,0,3,1.35,3,3v17
				C265.88,114.15,264.53,115.5,262.88,115.5z"/>
			
				<linearGradient id="SVGID_15_" gradientUnits="userSpaceOnUse" x1="196.88" y1="204" x2="199.88" y2="204" gradientTransform="matrix(1 0 0 -1 0 308)">
				<stop  offset="0" style="stop-color:#00B4BD"/>
				<stop  offset="1" style="stop-color:#0095A5"/>
			</linearGradient>
			<path class="st36" d="M199.88,115.5c-1.65,0-3-1.35-3-3v-17c0-1.65,1.35-3,3-3V115.5z"/>
		</g>
	</g>
	<path class="st37" d="M259.56,98.82h-55c-0.82,0-1.5-0.67-1.5-1.5v-1c0-0.82,0.68-1.5,1.5-1.5h55c0.82,0,1.5,0.68,1.5,1.5v1
		C261.06,98.14,260.39,98.82,259.56,98.82z"/>
</g>
<g>
	<g>
		<g>
			<path class="st7" d="M262.88,142.17h-63c-1.65,0-3-1.35-3-3v-17c0-1.65,1.35-3,3-3h63c1.65,0,3,1.35,3,3v17
				C265.88,140.82,264.53,142.17,262.88,142.17z"/>
			<path class="st27" d="M199.88,142.17c-1.65,0-3-1.35-3-3v-17c0-1.65,1.35-3,3-3V142.17z"/>
		</g>
	</g>
	<path class="st37" d="M259.56,125.48h-55c-0.82,0-1.5-0.67-1.5-1.5v-1c0-0.82,0.68-1.5,1.5-1.5h55c0.82,0,1.5,0.68,1.5,1.5v1
		C261.06,124.81,260.39,125.48,259.56,125.48z"/>
</g>
<g>
	<g>
		<g>
			<path class="st7" d="M262.88,168.84h-63c-1.65,0-3-1.35-3-3v-17c0-1.65,1.35-3,3-3h63c1.65,0,3,1.35,3,3v17
				C265.88,167.49,264.53,168.84,262.88,168.84z"/>
			<path class="st38" d="M199.88,168.84c-1.65,0-3-1.35-3-3v-17c0-1.65,1.35-3,3-3V168.84z"/>
		</g>
	</g>
	<path class="st37" d="M259.56,152.15h-55c-0.82,0-1.5-0.68-1.5-1.5v-1c0-0.82,0.68-1.5,1.5-1.5h55c0.82,0,1.5,0.68,1.5,1.5v1
		C261.06,151.47,260.39,152.15,259.56,152.15z"/>
</g>
<g>
	<path class="st11" d="M345.06,226.82h-66c-3.3,0-6-2.7-6-6v-136c0-3.3,2.7-6,6-6h66c3.3,0,6,2.7,6,6v136
		C351.06,224.12,348.36,226.82,345.06,226.82z"/>
	<path class="st12" d="M351.06,88.3v-3.79c0-3.13-2.7-5.69-6-5.69h-66c-3.3,0-6,2.56-6,5.69v3.79H351.06z"/>
</g>
<path class="st35" d="M334.56,85.82h-55c-0.83,0-1.5-0.67-1.5-1.5v-1c0-0.82,0.67-1.5,1.5-1.5h55c0.82,0,1.5,0.68,1.5,1.5v1
	C336.06,85.14,335.39,85.82,334.56,85.82z"/>
<g>
	<g>
		<g>
			<path class="st7" d="M343.88,115.5h-63c-1.65,0-3-1.35-3-3v-17c0-1.65,1.35-3,3-3h63c1.65,0,3,1.35,3,3v17
				C346.88,114.15,345.53,115.5,343.88,115.5z"/>
			<path class="st39" d="M280.88,115.5c-1.65,0-3-1.35-3-3v-17c0-1.65,1.35-3,3-3V115.5z"/>
		</g>
	</g>
	<path class="st37" d="M340.56,98.82h-55c-0.83,0-1.5-0.67-1.5-1.5v-1c0-0.82,0.67-1.5,1.5-1.5h55c0.82,0,1.5,0.68,1.5,1.5v1
		C342.06,98.14,341.39,98.82,340.56,98.82z"/>
</g>
<g>
	<g>
		<g>
			<path class="st7" d="M343.88,142.17h-63c-1.65,0-3-1.35-3-3v-17c0-1.65,1.35-3,3-3h63c1.65,0,3,1.35,3,3v17
				C346.88,140.82,345.53,142.17,343.88,142.17z"/>
			<path class="st40" d="M280.88,142.17c-1.65,0-3-1.35-3-3v-17c0-1.65,1.35-3,3-3V142.17z"/>
		</g>
	</g>
	<path class="st37" d="M340.56,125.48h-55c-0.83,0-1.5-0.67-1.5-1.5v-1c0-0.82,0.67-1.5,1.5-1.5h55c0.82,0,1.5,0.68,1.5,1.5v1
		C342.06,124.81,341.39,125.48,340.56,125.48z"/>
</g>
<g>
	<g>
		<g>
			<path class="st7" d="M343.88,168.84h-63c-1.65,0-3-1.35-3-3v-17c0-1.65,1.35-3,3-3h63c1.65,0,3,1.35,3,3v17
				C346.88,167.49,345.53,168.84,343.88,168.84z"/>
			<path class="st38" d="M280.88,168.84c-1.65,0-3-1.35-3-3v-17c0-1.65,1.35-3,3-3V168.84z"/>
		</g>
	</g>
	<path class="st37" d="M340.56,152.15h-55c-0.83,0-1.5-0.68-1.5-1.5v-1c0-0.82,0.67-1.5,1.5-1.5h55c0.82,0,1.5,0.68,1.5,1.5v1
		C342.06,151.47,341.39,152.15,340.56,152.15z"/>
</g>
<g>
	<g>
		<g>
			<path class="st7" d="M343.88,195.17h-63c-1.65,0-3-1.35-3-3v-17c0-1.65,1.35-3,3-3h63c1.65,0,3,1.35,3,3v17
				C346.88,193.82,345.53,195.17,343.88,195.17z"/>
			<path class="st27" d="M280.88,195.17c-1.65,0-3-1.35-3-3v-17c0-1.65,1.35-3,3-3V195.17z"/>
		</g>
	</g>
	<path class="st37" d="M340.56,178.48h-55c-0.83,0-1.5-0.68-1.5-1.5v-1c0-0.82,0.67-1.5,1.5-1.5h55c0.82,0,1.5,0.68,1.5,1.5v1
		C342.06,177.81,341.39,178.48,340.56,178.48z"/>
</g>
<g>
	<g>
		<g>
			<path class="st7" d="M343.88,221.84h-63c-1.65,0-3-1.35-3-3v-17c0-1.65,1.35-3,3-3h63c1.65,0,3,1.35,3,3v17
				C346.88,220.49,345.53,221.84,343.88,221.84z"/>
			<path class="st40" d="M280.88,221.84c-1.65,0-3-1.35-3-3v-17c0-1.65,1.35-3,3-3V221.84z"/>
		</g>
	</g>
	<path class="st37" d="M340.56,205.15h-55c-0.83,0-1.5-0.68-1.5-1.5v-1c0-0.82,0.67-1.5,1.5-1.5h55c0.82,0,1.5,0.68,1.5,1.5v1
		C342.06,204.47,341.39,205.15,340.56,205.15z"/>
</g>
<g>
	<path class="st39" d="M281.06,113.82v3.63c0,0.13-0.13,0.24-0.28,0.24c-0.16,0-0.28-0.11-0.28-0.24v-3.63H281.06z"/>
	<path class="st39" d="M279.76,113.82v2.62c0,0.13-0.13,0.24-0.28,0.24c-0.16,0-0.28-0.11-0.28-0.24v-2.62H279.76z"/>
	<path class="st39" d="M278.63,113.82v1.24c0,0.13-0.13,0.24-0.28,0.24c-0.16,0-0.28-0.11-0.28-0.24v-1.24H278.63z"/>
</g>
<g>
	<g>
		<g>
			<g>
				<g>
					<path class="st20" d="M302.1,270.65c0.14,1.14,0.6,1.54,0.24,2.25c0,0-2.01,0.25-3.03,0.37c-0.3,0.04-0.45-0.12-0.2-0.33
						c0.23-0.2,0.53-0.34,1.02-0.55c0.92-0.39,0.98-0.68,0.85-1.72C300.85,269.65,302,269.86,302.1,270.65z"/>
				</g>
				<g>
					<path class="st19" d="M299.11,272.95c0.23-0.2,0.53-0.34,1.02-0.55c0.06-0.03,0.12-0.05,0.18-0.08
						c0.43,0.1,1.37,0.21,2.12-0.34c0.08,0.31,0.09,0.58-0.08,0.92c0,0-2.01,0.25-3.03,0.37C299,273.32,298.85,273.16,299.11,272.95
						z"/>
				</g>
			</g>
			<path class="st20" d="M296.86,251.05c0.7,3.31,3.78,18.18,4.12,19.64c0.2,0.84,1.12,0.52,1.12-0.03
				c0.03-1.83-0.05-11.54-0.3-14.3c-0.12-1.35-1.14-5.2-1.74-6.29C298.4,247.02,296.11,247.54,296.86,251.05z"/>
			<path class="st19" d="M300.06,250.06c0.59,1.09,1.61,4.93,1.74,6.29c0.19,2.12,0.72,10.15,0.74,13.75
				c-0.51,0.36-1.57,0.45-2.07,0.42c-0.94-4.45-3.04-16.75-3.62-19.48C296.11,247.54,298.4,247.02,300.06,250.06z"/>
		</g>
		
			<linearGradient id="SVGID_16_" gradientUnits="userSpaceOnUse" x1="298.0482" y1="74.0236" x2="300.3711" y2="56.2986" gradientTransform="matrix(1 0 0 -1 0 308)">
			<stop  offset="0" style="stop-color:#2B2B75"/>
			<stop  offset="1" style="stop-color:#1A1455"/>
		</linearGradient>
		<path class="st41" d="M295.31,229.96c0,4.74,1.22,17.73,1.55,21.11c0.27,2.77,1.49,1.99,2.24,1.71c1.12-0.43,2.71-6.88,2.76-13.65
			c0.05-6.19-1.59-9.22-2.18-10.24C299.1,227.88,295.31,227.5,295.31,229.96z"/>
	</g>
	<g>
		<g>
			<g>
				<g>
					<path class="st20" d="M295.44,271.17c0,1.15,0.41,1.6-0.04,2.27c0,0-2.02,0-3.05,0c-0.31,0-0.43-0.17-0.16-0.35
						c0.25-0.17,0.57-0.27,1.08-0.42c0.96-0.28,1.05-0.56,1.05-1.6C294.32,270.02,295.44,270.37,295.44,271.17z"/>
				</g>
				<g>
					<path class="st19" d="M292.19,273.08c0.25-0.17,0.57-0.27,1.08-0.42c0.06-0.02,0.13-0.04,0.18-0.06
						c0.41,0.15,1.33,0.38,2.14-0.08c0.04,0.32,0.02,0.59-0.19,0.91c0,0-2.02,0-3.05,0C292.05,273.43,291.92,273.26,292.19,273.08z"
						/>
				</g>
			</g>
			<path class="st20" d="M292.62,251.07c0.3,3.37,1.55,18.5,1.71,19.99c0.09,0.86,1.05,0.65,1.12,0.11
				c0.25-1.81,1.35-11.46,1.44-14.23c0.04-1.36-0.5-5.3-0.96-6.45C294.64,247.25,292.3,247.49,292.62,251.07z"/>
			<path class="st17" d="M295.92,250.48c0.46,1.15,1,5.09,0.96,6.45c-0.07,2.13-0.52,10.16-0.93,13.74c-0.55,0.3-1.61,0.26-2.1,0.17
				c-0.4-4.53-0.98-16.99-1.23-19.77C292.3,247.49,294.64,247.25,295.92,250.48z"/>
		</g>
		<path class="st17" d="M292.21,229.89c-0.26,4.74,0.26,17.77,0.41,21.16c0.12,2.78,1.38,2.07,2.14,1.82
			c1.14-0.37,3.08-6.72,3.5-13.48c0.38-6.18-1.09-9.3-1.62-10.34C296.1,228.02,292.34,227.44,292.21,229.89z"/>
	</g>
	<g>
		<g>
			<path class="st20" d="M288.63,210.16c-1.02-0.82-0.99-1.48-1.38-1.83c-0.4-0.35-0.9-1.18-1.46-1s-0.36,0.63,0.02,0.82
				c0.38,0.19,0.58,0.65,0.77,1.26s0.52,0.85,1.33,1.61C288.7,211.79,289.21,210.64,288.63,210.16z"/>
		</g>
		
			<linearGradient id="SVGID_17_" gradientUnits="userSpaceOnUse" x1="-6273.0811" y1="5196.5581" x2="-6272.9741" y2="5193.2529" gradientTransform="matrix(-0.3359 -0.9419 0.9419 -0.3359 -6702.1641 -3947.0132)">
			<stop  offset="0" style="stop-color:#00B4BD"/>
			<stop  offset="1" style="stop-color:#0095A5"/>
		</linearGradient>
		<path class="st42" d="M301.32,217.14c-1.45-0.89-5.78-2.86-6.87-3.32c-1.1-0.46-2.47,1-0.54,2.2c1.93,1.21,4.16,2.98,5.18,3.67
			C300.85,220.88,303.39,218.42,301.32,217.14z"/>
		
			<linearGradient id="SVGID_18_" gradientUnits="userSpaceOnUse" x1="-6267.3901" y1="5196.7417" x2="-6267.2832" y2="5193.4365" gradientTransform="matrix(-0.3359 -0.9419 0.9419 -0.3359 -6702.1641 -3947.0132)">
			<stop  offset="0" style="stop-color:#00B4BD"/>
			<stop  offset="1" style="stop-color:#0095A5"/>
		</linearGradient>
		<path class="st43" d="M287.9,211.03c0.91,0.78,4.31,4.09,5.44,4.47s2.28-0.98,0.38-2.24c-2.44-1.62-3.99-2.53-5.09-3.1
			C287.97,209.82,287.59,210.76,287.9,211.03z"/>
		<path class="st20" d="M288.63,210.16c0.21,0.11,0.45,0.24,0.7,0.38c-0.35,0.3-0.67,0.62-0.87,0.99c-0.23-0.21-0.42-0.38-0.55-0.5
			C287.59,210.76,287.97,209.82,288.63,210.16z"/>
	</g>
	<g>
		<path class="st17" d="M288.17,228.04c-0.2,0-0.38-0.15-0.4-0.36l-3.68-33.37c-0.02-0.19,0.09-0.36,0.27-0.43l5.67-1.99l-0.19-1.72
			l-1.98,0.22c-0.22,0.02-0.42-0.14-0.45-0.36c-0.02-0.22,0.14-0.42,0.36-0.45l2.38-0.26c0.11-0.01,0.21,0.02,0.3,0.09
			c0.08,0.07,0.14,0.16,0.15,0.27l0.27,2.44c0.02,0.19-0.09,0.36-0.27,0.43l-5.67,1.99l3.65,33.06c0.02,0.22-0.14,0.42-0.36,0.45
			C288.2,228.03,288.18,228.04,288.17,228.04z"/>
		<path class="st27" d="M288.82,190.83c0.04,0.36-0.22,0.69-0.58,0.73l-8,0.88c-0.36,0.04-0.69-0.22-0.73-0.58l-0.21-1.89
			c-0.04-0.36,0.22-0.69,0.58-0.73l8-0.88c0.36-0.04,0.69,0.22,0.73,0.58L288.82,190.83z"/>
	</g>
	<path class="st20" d="M287.08,210.33c-0.48-0.19-1.04-0.55-1.17-0.71c-0.13-0.17,0.22-0.39,0.99,0
		C287.67,210.01,287.48,210.49,287.08,210.33z"/>
	<path class="st17" d="M301.67,210.94c-0.5,1.13-0.97,1.62-1.82,2.19c-1.09,0.73-1.86,1.19-2.75-0.56
		c-0.73-1.43-2.02-1.76-1.05-3.99c0.68-1.57,2.43-2.34,4-1.65C301.61,207.62,302.36,209.38,301.67,210.94z"/>
	<g>
		<g>
			<path class="st39" d="M295.69,211.9c0.1,0.82,0.59,2.77,0.2,3.42c-0.72,1.18-2.23,0.92-3.19,1.26c-1.29,0.45-2.03,0.96-1.72,2.38
				c0.48,2.26,0.88,4.05,1.05,6.17c0.15,1.81,0.13,5.92-0.28,7.95c0,0,2.62,0.81,5.38,0.81s4.44-0.78,4.44-0.78
				c-0.19-1.97-0.1-6.69-0.08-7.87c0.02-1.18,0.44-2.89,0.59-4.3s0.44-2.45-0.24-3.38c-0.35-0.48-2.25-1.07-2.97-1.39
				c-0.72-0.32-0.41-2.71-0.49-3.33C298.31,212.2,295.55,210.76,295.69,211.9z"/>
			
				<linearGradient id="SVGID_19_" gradientUnits="userSpaceOnUse" x1="295.5981" y1="81.3096" x2="288.8416" y2="79.6536" gradientTransform="matrix(1 0 0 -1 0 308)">
				<stop  offset="0" style="stop-color:#00B4BD"/>
				<stop  offset="1" style="stop-color:#0095A5"/>
			</linearGradient>
			<path class="st44" d="M301.49,225.22c0.02-1,0.43-3.46,0.65-5.05c-3.66-0.48-7.32-0.73-10.97-0.36c0.4,1.87,0.71,3.46,0.87,5.3
				c0.15,1.81,0.13,5.92-0.28,7.95c0,0,2.62,0.81,5.38,0.81s4.44-0.78,4.44-0.78C301.39,231.12,301.47,226.4,301.49,225.22z"/>
		</g>
		<path class="st20" d="M299.1,216.24c-0.08-0.03-0.16-0.06-0.22-0.09c-0.72-0.32-0.41-2.71-0.49-3.33s-2.84-2.06-2.7-0.92
			c0.1,0.82,0.59,2.77,0.2,3.42c-0.18,0.29-0.4,0.49-0.65,0.63C296.42,216.62,298.01,216.76,299.1,216.24z"/>
	</g>
	<g>
		<path class="st25" d="M295.32,209.65c-0.53,1.15-1.01,1.15-0.15,1.44L295.32,209.65z"/>
		<path class="st20" d="M300.66,210.61c-0.44,0.99-0.77,1.25-1.6,1.61c-1.12,0.48-1.88,1.28-2.94,0.98
			c-1.37-0.38-1.28-2.71-0.42-4.68c0.6-1.39,2.15-2.07,3.53-1.46S301.27,209.22,300.66,210.61z"/>
		<path class="st17" d="M300.24,211.61c0.23-0.33,2.14-3.12-0.62-4.58c-3.58-1.9-4.38,2.31-4.38,2.31c1.02,0.37,1.72-0.18,1.72-0.18
			c-0.13,0.43,0.08,0.92,0.08,0.92c-0.28,0.74-0.22,1.21-0.22,1.21s0.16,2.02,1.52,2.96C298.33,214.26,298.85,213.63,300.24,211.61z
			"/>
		<path class="st20" d="M297.18,210.35c0.41-0.28,0.96-0.03,0.92,0.59c-0.04,0.62-0.7,0.64-0.98,0.93s-0.68,0.11-0.65-0.16
			C296.53,211.24,296.91,210.54,297.18,210.35z"/>
	</g>
	<g>
		<g>
			<path class="st20" d="M287.35,219.65c-0.48-1.22-1.11-1.38-1.34-1.86c-0.22-0.48-0.32-1.86,0.02-2.33
				c0.34-0.48,0.47-0.05,0.54,0.37s0.15,1.28,0.68,1.65c0.53,0.36,0.65,0.75,1.14,1.74S287.63,220.35,287.35,219.65z"/>
			<path class="st20" d="M287.97,218.22c-0.04-0.51-0.21-1.16-0.33-1.33s-0.43,0.09-0.29,0.95
				C287.48,218.69,288,218.65,287.97,218.22z"/>
		</g>
		<path class="st39" d="M290.88,218.05c-0.56,1.6-1.58,6.25-1.79,7.42c-0.22,1.17,1.5,2.21,2.27,0.07s2.03-4.7,2.49-5.84
			C294.63,217.73,291.68,215.77,290.88,218.05z"/>
		<path class="st39" d="M288.39,219.21c0.48,1.1,2.63,5.33,2.65,6.52s-1.61,1.89-2.25-0.3c-0.82-2.81-1.23-4.56-1.44-5.78
			C287.22,218.92,288.23,218.83,288.39,219.21z"/>
		<path class="st20" d="M287.47,220.28c-0.05-0.22-0.09-0.43-0.12-0.63c-0.13-0.73,0.88-0.82,1.04-0.44
			c0.05,0.12,0.13,0.28,0.21,0.47C288.19,219.7,287.8,219.85,287.47,220.28z"/>
	</g>
</g>
<g>
	<g>
		<g>
			<linearGradient id="SVGID_20_" gradientUnits="userSpaceOnUse" x1="52.9341" y1="241.7672" x2="52.9341" y2="189.4207">
				<stop  offset="0" style="stop-color:#E8E8E8"/>
				<stop  offset="0.9894" style="stop-color:#00BF8C"/>
			</linearGradient>
			<path class="st45" d="M72.65,226.67c-0.9-7.52-4.9-9.45-6.96-14.69c-1.43-3.65-1.42-7.37-1.42-11.51
				c0-6.1-4.44-11.05-11.34-11.05s-11.34,4.95-11.34,11.05c0,4.14,0.02,7.86-1.42,11.51c-2.06,5.24-6.05,7.17-6.96,14.69
				c-1.15,9.57,8.83,15.1,19.72,15.1C63.82,241.77,73.79,236.24,72.65,226.67z"/>
			<linearGradient id="SVGID_21_" gradientUnits="userSpaceOnUse" x1="62.8383" y1="241.7592" x2="62.8383" y2="189.4207">
				<stop  offset="0" style="stop-color:#E8E8E8"/>
				<stop  offset="0.9894" style="stop-color:#00956F"/>
			</linearGradient>
			<path class="st46" d="M72.65,226.67c-0.9-7.52-4.9-9.45-6.96-14.69c-1.43-3.65-1.42-7.37-1.42-11.51
				c0-6.1-4.44-11.05-11.34-11.05v52.34C63.82,241.77,73.79,236.24,72.65,226.67z"/>
		</g>
		<path class="st17" d="M62.99,228.47c-0.12-0.28-0.44-0.4-0.71-0.29l-8.8,3.77V217.1l8.56-5.71c0.25-0.17,0.32-0.51,0.15-0.75
			c-0.17-0.25-0.51-0.32-0.76-0.15l-7.96,5.3v-19.04c0-0.3-0.25-0.55-0.55-0.55c-0.3,0-0.55,0.25-0.55,0.55v19.04l-7.96-5.3
			c-0.25-0.17-0.59-0.1-0.75,0.15c-0.17,0.25-0.1,0.59,0.15,0.75l8.56,5.71v14.85l-8.8-3.77c-0.28-0.12-0.59,0.01-0.71,0.29
			c-0.12,0.28,0.01,0.59,0.29,0.71l9.23,3.95v36.69h1.09v-36.69l9.23-3.95C62.98,229.07,63.11,228.75,62.99,228.47z"/>
	</g>
</g>
<g>
	<g>
		<g>
			<linearGradient id="SVGID_22_" gradientUnits="userSpaceOnUse" x1="400.5654" y1="229.9507" x2="400.5654" y2="157.914">
				<stop  offset="0" style="stop-color:#E8E8E8"/>
				<stop  offset="0.9894" style="stop-color:#00BF8C"/>
			</linearGradient>
			<path class="st47" d="M427.7,209.17c-1.24-10.35-6.74-13.01-9.58-20.22c-1.97-5.02-1.95-10.14-1.95-15.84
				c0-8.4-6.11-15.2-15.61-15.2c-9.5,0-15.61,6.81-15.61,15.2c0,5.69,0.02,10.82-1.95,15.84c-2.84,7.21-8.33,9.87-9.58,20.22
				c-1.58,13.17,12.15,20.78,27.14,20.78C415.55,229.95,429.27,222.35,427.7,209.17z"/>
			<linearGradient id="SVGID_23_" gradientUnits="userSpaceOnUse" x1="414.1952" y1="229.9398" x2="414.1952" y2="157.914">
				<stop  offset="0" style="stop-color:#E8E8E8"/>
				<stop  offset="0.9894" style="stop-color:#00956F"/>
			</linearGradient>
			<path class="st48" d="M427.7,209.17c-1.24-10.35-6.74-13.01-9.58-20.22c-1.97-5.02-1.95-10.14-1.95-15.84
				c0-8.4-6.11-15.2-15.61-15.2v72.03C415.55,229.95,429.27,222.35,427.7,209.17z"/>
		</g>
		<path class="st17" d="M414.41,211.65c-0.16-0.38-0.61-0.56-0.98-0.39l-12.11,5.19v-20.44l11.78-7.85c0.35-0.23,0.44-0.7,0.21-1.04
			c-0.23-0.35-0.7-0.44-1.05-0.21l-10.95,7.3V168c0-0.41-0.34-0.75-0.75-0.75s-0.75,0.34-0.75,0.75v26.21l-10.95-7.3
			c-0.35-0.23-0.82-0.14-1.04,0.21c-0.23,0.34-0.14,0.81,0.21,1.04l11.78,7.85v20.44l-12.11-5.19c-0.38-0.16-0.82,0.01-0.98,0.39
			s0.01,0.82,0.39,0.98l12.7,5.44v50.49h1.51v-50.49l12.7-5.44C414.4,212.48,414.57,212.03,414.41,211.65z"/>
	</g>
</g>
<g>
	
		<image style="overflow:visible;opacity:0.16;" width="143" height="100" xlink:href="1A9193A0.png"  transform="matrix(1 0 0 1 161 130)">
	</image>
	<g>
		<g>
			<g>
				<g>
					<path class="st7" d="M264.31,189.07l-62.84,4.55c-1.65,0.12-3.09-1.13-3.21-2.78l-1.23-16.96c-0.12-1.65,1.13-3.09,2.78-3.21
						l62.84-4.55c1.65-0.12,3.09,1.13,3.21,2.78l1.23,16.96C267.2,187.51,265.95,188.95,264.31,189.07z"/>
					<path class="st39" d="M201.47,193.63c-1.65,0.12-3.09-1.13-3.21-2.78l-1.23-16.96c-0.12-1.65,1.13-3.09,2.78-3.21
						L201.47,193.63z"/>
				</g>
			</g>
			<path class="st37" d="M259.79,172.68l-54.86,3.98c-0.83,0.06-1.54-0.56-1.6-1.39l-0.07-1c-0.06-0.82,0.56-1.54,1.39-1.6
				l54.86-3.98c0.82-0.06,1.55,0.57,1.6,1.39l0.07,1C261.24,171.89,260.62,172.62,259.79,172.68z"/>
		</g>
	</g>
</g>
<g>
	<path class="st49" d="M269.67,158.64l-0.74,9.8H250.3l0.75-9.8H249l-8.76,115.26h2.05l0.83-10.86h18.62l-0.83,10.86h2.05
		l8.76-115.26L269.67,158.64L269.67,158.64z M261.88,261.04h-18.62l1.02-13.43h18.62L261.88,261.04z M263.06,245.61h-18.62
		l1.02-13.43h18.62L263.06,245.61z M264.23,230.18h-18.62l1.02-13.43h18.62L264.23,230.18z M265.4,214.74h-18.62l1.02-13.43h18.62
		L265.4,214.74z M266.58,199.31h-18.62l1.02-13.43h18.62L266.58,199.31z M267.75,183.88h-18.62l1.02-13.43h18.62L267.75,183.88z"/>
</g>
<g>
	<g>
		<g>
			<path class="st20" d="M267.62,131.7c0.81-0.99,0.65-1.61,0.95-2.03c0.31-0.42,1.43-1.16,2-1.1s0.26,0.38-0.06,0.64
				s-1.02,0.74-1.08,1.37c-0.06,0.62-0.33,0.91-0.94,1.8C267.87,133.27,267.15,132.27,267.62,131.7z"/>
		</g>
		
			<linearGradient id="SVGID_24_" gradientUnits="userSpaceOnUse" x1="-9847.0166" y1="8868.0732" x2="-9846.292" y2="8863.5303" gradientTransform="matrix(0.9998 -0.0181 -0.0181 -0.9998 10265.6572 8819.7207)">
			<stop  offset="0" style="stop-color:#E8557D"/>
			<stop  offset="1" style="stop-color:#CA4374"/>
		</linearGradient>
		<path class="st50" d="M258.94,130.95c1.32,1.02,4.61,4.3,5.41,5.14c0.8,0.85-0.06,2.61-1.83,1.26s-4.16-2.78-5.15-3.48
			C255.69,132.68,257.06,129.5,258.94,130.95z"/>
		
			<linearGradient id="SVGID_25_" gradientUnits="userSpaceOnUse" x1="-6148.8501" y1="5454.478" x2="-6148.1255" y2="5449.9346" gradientTransform="matrix(0.1337 -0.991 -0.991 -0.1337 6485.1196 -5229.3042)">
			<stop  offset="0" style="stop-color:#E8557D"/>
			<stop  offset="1" style="stop-color:#CA4374"/>
		</linearGradient>
		<path class="st51" d="M268.49,132.38c-0.71,0.93-3.29,4.79-4.3,5.38c-1,0.59-2.38-0.48-0.82-2.06c2.01-2.04,3.31-3.22,4.24-3.99
			C268.18,131.24,268.74,132.06,268.49,132.38z"/>
		<path class="st20" d="M267.62,131.7c-0.59,0.48-1.33,1.14-2.29,2.06c0.63,0.15,1.12,0.5,1.48,0.96c0.73-0.99,1.38-1.94,1.69-2.34
			C268.74,132.06,268.18,131.24,267.62,131.7z"/>
	</g>
	<g>
		<path class="st17" d="M265.61,140.28c-0.06,0-0.11-0.01-0.17-0.04c-0.2-0.09-0.29-0.33-0.2-0.54l14.13-30.46
			c0.08-0.17,0.26-0.26,0.45-0.23l5.88,1.24l0.73-1.57l-1.81-0.84c-0.2-0.09-0.29-0.33-0.2-0.54c0.09-0.2,0.33-0.29,0.54-0.2
			l2.18,1.01c0.1,0.04,0.17,0.13,0.21,0.23c0.04,0.1,0.03,0.21-0.01,0.31l-1.03,2.23c-0.08,0.17-0.26,0.26-0.45,0.23l-5.88-1.24
			l-13.99,30.17C265.91,140.2,265.77,140.28,265.61,140.28z"/>
		
			<linearGradient id="SVGID_26_" gradientUnits="userSpaceOnUse" x1="276.67" y1="202.1" x2="286.0896" y2="202.1" gradientTransform="matrix(1 0 0 -1 0 308)">
			<stop  offset="0" style="stop-color:#00B4BD"/>
			<stop  offset="1" style="stop-color:#0095A5"/>
		</linearGradient>
		<path class="st52" d="M285.22,108.73c-0.15,0.33-0.54,0.47-0.87,0.32l-7.3-3.39c-0.33-0.15-0.47-0.54-0.32-0.87l0.8-1.72
			c0.15-0.33,0.54-0.47,0.87-0.32l7.3,3.39c0.33,0.15,0.47,0.54,0.32,0.87L285.22,108.73z"/>
	</g>
	<path class="st20" d="M269.13,131.55c0.42-0.28,0.89-0.73,0.98-0.92s-0.28-0.33-0.95,0.2C268.5,131.36,268.79,131.78,269.13,131.55
		z"/>
	<g>
		
			<linearGradient id="SVGID_27_" gradientUnits="userSpaceOnUse" x1="1092.67" y1="160.3141" x2="1097.9069" y2="149.1624" gradientTransform="matrix(-1 0 0 -1 1353.5078 308)">
			<stop  offset="0" style="stop-color:#2B2B75"/>
			<stop  offset="1" style="stop-color:#1A1455"/>
		</linearGradient>
		<path class="st53" d="M261.76,142.98c0,4.64-1.19,15.72-1.51,19.03c-0.26,2.71-1.46,1.95-2.19,1.67
			c-1.09-0.42-3.44-5.92-3.49-12.54c-0.05-6.05,2.35-8.21,2.92-9.2C258.06,140.95,261.76,140.58,261.76,142.98z"/>
		<g>
			<path class="st19" d="M260.25,162.05c-0.77,3.22-4.15,17.67-4.52,19.09c-0.21,0.82-1.1,0.48-1.1-0.06
				c0.02-1.78,0.33-11.28,0.65-13.98c0.15-1.32,1.25-5.06,1.85-6.1C258.84,158.08,261.07,158.64,260.25,162.05z"/>
			<path class="st20" d="M254.78,176.34c-0.08,2.18-0.13,4.05-0.14,4.75c-0.01,0.54,0.89,0.88,1.1,0.06
				c0.11-0.44,0.52-2.13,1.04-4.35C256.1,176.75,255.42,176.58,254.78,176.34z"/>
			<g>
				<g>
					<path class="st20" d="M254.62,181.09c-0.16,1.11-0.63,1.49-0.29,2.2c0,0,1.96,0.29,2.95,0.44c0.3,0.04,0.44-0.1,0.2-0.32
						c-0.22-0.2-0.51-0.35-0.98-0.56c-0.89-0.41-0.94-0.69-0.79-1.7C255.87,180.14,254.74,180.31,254.62,181.09z"/>
				</g>
				<g>
					<path class="st19" d="M257.49,183.4c-0.22-0.2-0.51-0.35-0.98-0.56c-0.06-0.03-0.12-0.05-0.17-0.08
						c-0.42,0.08-1.34,0.18-2.06-0.38c-0.08,0.3-0.1,0.57,0.06,0.91c0,0,1.96,0.29,2.95,0.44
						C257.59,183.77,257.73,183.62,257.49,183.4z"/>
				</g>
			</g>
		</g>
	</g>
	<g>
		<path class="st17" d="M264.68,142.87c0.5,4.61,0.68,15.75,0.72,19.07c0.03,2.72-1.24,2.09-2,1.9c-1.13-0.3-4.15-5.51-4.91-12.08
			c-0.7-6.01,1.36-8.41,1.82-9.46C260.78,141.25,264.42,140.49,264.68,142.87z"/>
		<g>
			<path class="st17" d="M265.4,161.95c-0.13,3.31-0.65,18.14-0.73,19.61c-0.05,0.85-0.99,0.69-1.09,0.16
				c-0.33-1.75-1.86-11.13-2.07-13.84c-0.1-1.33,0.24-5.2,0.64-6.35C263.25,158.32,265.54,158.44,265.4,161.95z"/>
			<path class="st20" d="M262.8,177.02c0.34,2.16,0.65,4,0.78,4.69c0.1,0.53,1.04,0.69,1.09-0.16c0.03-0.45,0.09-2.19,0.18-4.47
				C264.17,177.17,263.48,177.14,262.8,177.02z"/>
			<g>
				<g>
					<path class="st20" d="M263.56,181.66c0,1.12-0.4,1.56,0.04,2.22c0,0,1.98,0,2.98,0c0.3,0,0.42-0.17,0.15-0.35
						c-0.24-0.16-0.56-0.27-1.05-0.41c-0.94-0.27-1.03-0.55-1.03-1.56C264.66,180.54,263.56,180.88,263.56,181.66z"/>
				</g>
				<g>
					<path class="st19" d="M266.74,183.53c-0.24-0.16-0.56-0.27-1.05-0.41c-0.06-0.02-0.12-0.04-0.18-0.06
						c-0.4,0.14-1.3,0.37-2.1-0.07c-0.04,0.31-0.02,0.58,0.19,0.89c0,0,1.98,0,2.98,0C266.89,183.88,267.01,183.71,266.74,183.53z"
						/>
				</g>
			</g>
		</g>
	</g>
	<path class="st54" d="M255.81,125.33c0.57,1.02,1.06,1.44,1.91,1.9c1.09,0.59,1.86,0.95,2.54-0.77c0.56-1.41,1.74-1.84,0.63-3.86
		c-0.78-1.42-2.5-1.99-3.92-1.19C255.56,122.19,255.02,123.91,255.81,125.33z"/>
	<path class="st54" d="M256.34,122.13c0.24,0.8-0.21,1.65-1.01,1.89s-1.65-0.21-1.89-1.01s0.21-1.65,1.01-1.89
		C255.25,120.88,256.1,121.33,256.34,122.13z"/>
	
		<linearGradient id="SVGID_28_" gradientUnits="userSpaceOnUse" x1="1089.9543" y1="173.307" x2="1086.199" y2="172.8663" gradientTransform="matrix(-1 0 0 -1 1353.5078 308)">
		<stop  offset="0" style="stop-color:#E8557D"/>
		<stop  offset="1" style="stop-color:#CA4374"/>
	</linearGradient>
	<path class="st55" d="M258.98,125.32c0.1,0.8,0.58,2.71,0.2,3.34c-0.7,1.15-1.14,1.15-1.74,1.52c-1.02,0.65-1.15,2.66-0.86,4.05
		c0.47,2.21,0.76,2.71,0.9,3.83c0.22,1.76,0.01,2.88-0.83,4.95c0,0,1.74,0.57,4.44,0.57s3.78-0.44,3.78-0.44
		c-0.48-2.12-1.38-4.11-1.36-5.27c0.02-1.15,0.59-1.75,0.59-1.75s0.98-0.18,1.1-1.17c0.12-1-0.76-2.4-0.76-2.4s0.17-1.43-0.07-1.96
		c-0.23-0.53-1.56-0.81-2.27-1.12s-0.4-2.65-0.48-3.26C261.54,125.61,258.84,124.21,258.98,125.32z"/>
	<g>
		<path class="st20" d="M257.59,130.1c0.52-0.3,0.94-0.38,1.59-1.44c0.38-0.63-0.1-2.54-0.2-3.34c-0.14-1.11,2.56,0.29,2.64,0.9
			c0.08,0.61-0.23,2.95,0.48,3.26c0.25,0.11,0.58,0.22,0.91,0.33c-0.41,0.17-1.18,0.42-2.21,0.43
			C258.92,130.28,257.93,130.15,257.59,130.1z"/>
	</g>
	<g>
		<path class="st25" d="M261.67,123.54c0.61,1.03,1.05,1,0.27,1.35L261.67,123.54z"/>
		<path class="st20" d="M256.73,124.92c0.5,0.9,0.84,1.11,1.66,1.37c1.1,0.35,1.88,1.04,2.86,0.66c1.26-0.48,0.96-2.67-0.02-4.45
			c-0.69-1.25-2.21-1.75-3.46-1.05C256.51,122.15,256.03,123.67,256.73,124.92z"/>
		<path class="st54" d="M257.21,125.83c-0.25-0.29-2.3-2.75,0.17-4.38c3.2-2.11,4.34,1.78,4.34,1.78c-0.93,0.44-1.63-0.01-1.63-0.01
			c0.16,0.39,0.01,0.87,0.01,0.87c0.33,0.67,0.32,1.12,0.32,1.12s0.03,1.92-1.16,2.93C259.25,128.15,258.7,127.61,257.21,125.83z"/>
		<path class="st20" d="M259.98,124.36c-0.41-0.23-0.91,0.06-0.81,0.64s0.72,0.54,1.01,0.79s0.66,0.05,0.6-0.21
			C260.68,125.14,260.25,124.51,259.98,124.36z"/>
	</g>
	<g>
		<g>
			<path class="st20" d="M272.85,127.38c0.37-1.22,0.98-1.44,1.15-1.92c0.18-0.49,0.16-1.84-0.21-2.27
				c-0.37-0.44-0.46-0.01-0.49,0.41c-0.03,0.41-0.05,1.26-0.53,1.66s-0.58,0.78-0.97,1.79C271.4,128.04,272.63,128.08,272.85,127.38
				z"/>
			<path class="st20" d="M272.13,126.04c0-0.5,0.11-1.15,0.22-1.33c0.1-0.18,0.43,0.05,0.36,0.9
				C272.64,126.45,272.13,126.45,272.13,126.04z"/>
		</g>
		<path class="st24" d="M263.83,130.08c1.61,0.42,5.92,2.16,6.99,2.63c1.06,0.47,0.96,2.42-1.2,1.87s-4.91-0.94-6.09-1.2
			C261.51,132.94,261.54,129.48,263.83,130.08z"/>
		<path class="st24" d="M271.79,127.03c-0.38,1.11-2.13,5.41-2.05,6.57c0.07,1.16,1.73,1.71,2.17-0.47
			c0.57-2.81,0.82-4.55,0.94-5.75C272.91,126.66,271.92,126.65,271.79,127.03z"/>
		<path class="st20" d="M272.85,127.38c-0.07,0.76-0.2,1.74-0.43,3.06c-0.48-0.43-1.04-0.65-1.62-0.69c0.42-1.16,0.84-2.23,1-2.71
			C271.92,126.65,272.91,126.66,272.85,127.38z"/>
	</g>
</g>
<g>
	<g>
		<g>
			<g>
				<path class="st20" d="M216.27,193.54c0.13-1.27,0.69-1.59,0.77-2.11c0.08-0.51-0.18-1.83-0.63-2.19
					c-0.45-0.36-0.45,0.08-0.41,0.49s0.19,1.25-0.21,1.73c-0.4,0.48-0.42,0.88-0.62,1.94C214.97,194.47,216.19,194.27,216.27,193.54
					z"/>
				<path class="st20" d="M215.31,192.36c-0.1-0.49-0.1-1.15-0.04-1.34c0.07-0.19,0.43-0.03,0.52,0.81
					C215.89,192.67,215.39,192.77,215.31,192.36z"/>
			</g>
			
				<linearGradient id="SVGID_29_" gradientUnits="userSpaceOnUse" x1="-9805.8398" y1="15502.0039" x2="-9805.1162" y2="15497.4609" gradientTransform="matrix(0.0793 -0.9969 0.9969 0.0793 -14455.9463 -10800.6729)">
				<stop  offset="0" style="stop-color:#E8557D"/>
				<stop  offset="1" style="stop-color:#CA4374"/>
			</linearGradient>
			<path class="st56" d="M221.02,205.28c-0.94-1.37-4.01-4.87-4.8-5.72c-0.8-0.85-2.61-0.1-1.37,1.75s2.52,4.32,3.16,5.35
				C219.1,208.42,222.36,207.24,221.02,205.28z"/>
			
				<linearGradient id="SVGID_30_" gradientUnits="userSpaceOnUse" x1="-2770.0781" y1="17398.8906" x2="-2769.3535" y2="17394.3477" gradientTransform="matrix(0.6097 -0.7926 0.7926 0.6097 -11880.4463 -12600.7539)">
				<stop  offset="0" style="stop-color:#E8557D"/>
				<stop  offset="1" style="stop-color:#CA4374"/>
			</linearGradient>
			<path class="st57" d="M215.17,193.4c-0.16,1.16-1.08,5.71-0.79,6.84c0.29,1.13,2.01,1.36,2.04-0.87
				c0.04-2.86-0.04-4.62-0.15-5.82C216.2,192.82,215.23,193,215.17,193.4z"/>
			<path class="st20" d="M216.27,193.54c0.07,0.76,0.13,1.74,0.15,3.08c-0.55-0.34-1.14-0.44-1.72-0.38
				c0.19-1.21,0.4-2.35,0.47-2.85C215.23,193,216.2,192.82,216.27,193.54z"/>
		</g>
		<g>
			<g>
				
					<linearGradient id="SVGID_31_" gradientUnits="userSpaceOnUse" x1="11965.0771" y1="534.7811" x2="11970.3135" y2="523.6296" gradientTransform="matrix(0.9999 0.0137 0.0137 -0.9999 -11754.0479 591.9636)">
					<stop  offset="0" style="stop-color:#2B2B75"/>
					<stop  offset="1" style="stop-color:#1A1455"/>
				</linearGradient>
				<path class="st58" d="M216.3,216.44c-0.06,4.64,0.98,15.73,1.25,19.05c0.22,2.71,1.43,1.97,2.17,1.7
					c1.1-0.4,3.52-5.87,3.66-12.49c0.13-6.05-2.23-8.24-2.79-9.24C220.03,214.46,216.33,214.04,216.3,216.44z"/>
				<g>
					<path class="st19" d="M218.39,237.91c1.76,2.8,9.58,15.42,10.39,16.65c0.46,0.71,1.2,0.1,1.02-0.41
						c-0.59-1.68-3.92-10.58-5.08-13.03c-0.57-1.2-2.8-4.39-3.71-5.19C218.46,233.69,216.53,234.93,218.39,237.91z"/>
					<path class="st20" d="M228.15,249.69c0.77,2.04,1.42,3.8,1.65,4.46c0.18,0.51-0.56,1.11-1.02,0.41
						c-0.25-0.38-1.17-1.85-2.38-3.79C227.03,250.5,227.62,250.13,228.15,249.69z"/>
					<g>
						<g>
							<path class="st20" d="M229.81,254.15c0.51,1,1.07,1.21,0.97,1.99c0,0-1.76,0.9-2.66,1.36c-0.27,0.14-0.45,0.05-0.29-0.24
								c0.14-0.26,0.37-0.49,0.75-0.84c0.71-0.67,0.67-0.96,0.2-1.86C228.33,253.65,229.46,253.45,229.81,254.15z"/>
						</g>
						<g>
							<path class="st19" d="M227.84,257.26c0.14-0.26,0.37-0.49,0.75-0.84c0.05-0.05,0.09-0.09,0.13-0.13
								c0.43-0.06,1.33-0.26,1.83-1.02c0.18,0.26,0.28,0.5,0.23,0.88c0,0-1.76,0.9-2.66,1.36
								C227.86,257.63,227.68,257.54,227.84,257.26z"/>
						</g>
					</g>
				</g>
			</g>
			<g>
				<path class="st17" d="M213.77,216.1c-0.45,4.62-0.53,15.75-0.54,19.08c-0.01,2.72,1.26,2.08,2.02,1.88
					c1.13-0.31,4.09-5.55,4.79-12.13c0.64-6.02-1.44-8.4-1.92-9.44C217.66,214.44,214.01,213.71,213.77,216.1z"/>
				<g>
					<path class="st17" d="M213.2,236.68c0.08,3.31,0.38,18.15,0.45,19.62c0.04,0.85,0.98,0.7,1.09,0.17
						c0.35-1.75,2.02-11.1,2.27-13.81c0.12-1.32-0.17-5.2-0.54-6.35C215.41,233.08,213.11,233.17,213.2,236.68z"/>
					<path class="st20" d="M215.59,251.79c-0.38,2.15-0.71,3.99-0.85,4.68c-0.11,0.53-1.05,0.67-1.09-0.17
						c-0.02-0.45-0.06-2.19-0.11-4.47C214.21,251.92,214.9,251.9,215.59,251.79z"/>
					<g>
						<g>
							<path class="st20" d="M214.75,256.42c-0.02,1.12,0.38,1.57-0.07,2.21c0,0-1.98-0.03-2.98-0.04c-0.3,0-0.42-0.17-0.15-0.35
								c0.25-0.16,0.56-0.26,1.06-0.39c0.94-0.26,1.04-0.53,1.05-1.55C213.67,255.29,214.76,255.64,214.75,256.42z"/>
						</g>
						<g>
							<path class="st19" d="M211.55,258.25c0.25-0.16,0.56-0.26,1.06-0.39c0.06-0.02,0.12-0.04,0.18-0.05
								c0.4,0.15,1.3,0.39,2.1-0.04c0.03,0.31,0.01,0.58-0.2,0.88c0,0-1.98-0.03-2.98-0.04
								C211.4,258.59,211.27,258.42,211.55,258.25z"/>
						</g>
					</g>
				</g>
			</g>
			
				<linearGradient id="SVGID_32_" gradientUnits="userSpaceOnUse" x1="11936.7139" y1="99.7765" x2="11932.958" y2="99.3358" gradientTransform="matrix(1 0 0 -1 -11721.9834 308)">
				<stop  offset="0" style="stop-color:#E8557D"/>
				<stop  offset="1" style="stop-color:#CA4374"/>
			</linearGradient>
			<path class="st59" d="M219.3,198.85c-0.1,0.8-0.58,2.71-0.2,3.34c0.7,1.15,1.14,1.15,1.74,1.52c1.02,0.65,1.15,2.66,0.86,4.05
				c-0.47,2.21-0.76,2.71-0.9,3.83c-0.22,1.76-0.01,2.88,0.83,4.95c0,0-1.74,0.57-4.44,0.57s-3.78-0.44-3.78-0.44
				c0.48-2.12,1.38-4.11,1.36-5.27s-0.59-1.75-0.59-1.75s-0.98-0.18-1.1-1.17c-0.12-1,0.76-2.4,0.76-2.4s-0.17-1.43,0.06-1.96
				c0.24-0.53,1.56-0.81,2.27-1.12c0.7-0.31,0.4-2.65,0.48-3.26C216.74,199.15,219.44,197.74,219.3,198.85z"/>
			<g>
				<path class="st20" d="M220.7,203.63c-0.52-0.3-0.94-0.38-1.59-1.44c-0.38-0.63,0.1-2.54,0.2-3.34c0.14-1.11-2.56,0.29-2.64,0.9
					s0.23,2.95-0.48,3.26c-0.25,0.11-0.58,0.22-0.91,0.33c0.41,0.17,1.18,0.42,2.21,0.43C219.36,203.81,220.35,203.69,220.7,203.63z
					"/>
			</g>
			<g>
				<path class="st25" d="M216.95,196.69c-0.79,0.9-1.22,0.78-0.52,1.27L216.95,196.69z"/>
				<path class="st20" d="M221.55,198.96c-0.66,0.79-1.03,0.93-1.88,1.04c-1.14,0.14-2.04,0.67-2.93,0.12
					c-1.14-0.7-0.45-2.8,0.85-4.36c0.91-1.1,2.5-1.31,3.6-0.4C222.28,196.28,222.47,197.86,221.55,198.96z"/>
				<path class="st60" d="M220.91,199.77c0.3-0.24,2.77-2.27,0.64-4.33c-2.75-2.67-4.59,0.95-4.59,0.95
					c0.83,0.61,1.61,0.29,1.61,0.29c-0.23,0.35-0.17,0.86-0.17,0.86c-0.45,0.59-0.52,1.05-0.52,1.05s-0.39,1.88,0.6,3.09
					C218.48,201.67,219.12,201.24,220.91,199.77z"/>
				<path class="st60" d="M218.48,201.67l0.34-1.83c-1.19-0.94,0.65-0.03,0.61-2.33c-0.03-1.62-1.15-3.03,0.47-3.05
					s3,1.22,3.16,2.83C223.24,199.05,221.63,202.44,218.48,201.67z"/>
				<path class="st60" d="M222.75,195.85c0.93-1.33,2.75-1.24,2.75,0.64c-0.01,1.88-0.11,6.52,2.63,7.5c0,0-3.68,1.81-5.48-3.13
					C221.72,198.31,222.39,196.35,222.75,195.85z"/>
				<path class="st20" d="M218.46,197.81c0.45-0.15,0.88,0.22,0.68,0.78c-0.2,0.55-0.81,0.4-1.14,0.59s-0.65-0.08-0.55-0.31
					C217.63,198.45,218.17,197.91,218.46,197.81z"/>
			</g>
		</g>
	</g>
	<g>
		<g>
			<path class="st20" d="M207.28,194.09c-0.39-1.22-1-1.42-1.19-1.9s-0.2-1.83,0.17-2.28c0.36-0.44,0.46-0.02,0.5,0.4
				c0.04,0.41,0.07,1.26,0.56,1.65c0.49,0.39,0.59,0.77,1,1.77C208.74,194.73,207.5,194.79,207.28,194.09z"/>
		</g>
		<path class="st24" d="M216.17,203.86c-1.22-1.13-5.01-3.83-5.98-4.48c-0.97-0.64-2.56,0.49-0.94,2.01
			c1.63,1.52,3.44,3.64,4.29,4.49C215.01,207.36,217.91,205.47,216.17,203.86z"/>
		<path class="st24" d="M208.32,193.73c0.4,1.1,2.23,5.37,2.18,6.53s-1.69,1.74-2.18-0.43c-0.62-2.79-0.91-4.53-1.05-5.73
			C207.2,193.38,208.19,193.35,208.32,193.73z"/>
		<path class="st20" d="M207.28,194.09c0.09,0.76,0.23,1.73,0.49,3.05c0.47-0.44,1.03-0.67,1.61-0.72
			c-0.44-1.15-0.88-2.21-1.05-2.69C208.19,193.35,207.2,193.38,207.28,194.09z"/>
	</g>
</g>
</svg>
