<?xml version="1.0" encoding="utf-8"?>
<!-- Generator: Adobe Illustrator 24.1.3, SVG Export Plug-In . SVG Version: 6.00 Build 0)  -->
<svg version="1.1" id="Layer_1" xmlns="http://www.w3.org/2000/svg" xmlns:xlink="http://www.w3.org/1999/xlink" x="0px" y="0px"
	 viewBox="0 0 309 112" style="enable-background:new 0 0 309 112;" xml:space="preserve">
<style type="text/css">
	.st0{fill:url(#SVGID_1_);}
	.st1{fill:url(#SVGID_2_);}
	.st2{fill:url(#SVGID_3_);}
	.st3{fill:url(#SVGID_4_);}
	.st4{fill:url(#SVGID_5_);}
	.st5{fill:url(#SVGID_6_);}
</style>
<g>
	<linearGradient id="SVGID_1_" gradientUnits="userSpaceOnUse" x1="21.7056" y1="24.2645" x2="21.7056" y2="89.6915">
		<stop  offset="0" style="stop-color:#00417F"/>
		<stop  offset="1" style="stop-color:#615ECE"/>
	</linearGradient>
	<path class="st0" d="M0.26,86.16V72.04c2.56,2.15,5.34,3.76,8.34,4.83c3,1.07,6.03,1.61,9.09,1.61c1.79,0,3.36-0.16,4.7-0.49
		c1.34-0.32,2.46-0.77,3.35-1.35c0.9-0.57,1.57-1.25,2.01-2.03c0.44-0.78,0.66-1.62,0.66-2.54c0-1.23-0.35-2.34-1.06-3.31
		c-0.71-0.97-1.67-1.87-2.89-2.69c-1.22-0.82-2.67-1.62-4.35-2.38c-1.68-0.76-3.48-1.54-5.43-2.34c-4.94-2.06-8.62-4.57-11.05-7.54
		C1.21,50.85,0,47.26,0,43.06c0-3.29,0.66-6.13,1.98-8.49s3.12-4.32,5.4-5.85c2.28-1.53,4.92-2.65,7.92-3.37
		c3-0.72,6.17-1.08,9.53-1.08c3.29,0,6.21,0.2,8.76,0.6c2.54,0.4,4.89,1.01,7.04,1.83v13.19c-1.06-0.73-2.21-1.38-3.46-1.94
		c-1.25-0.56-2.54-1.02-3.86-1.39c-1.32-0.37-2.64-0.64-3.95-0.82c-1.31-0.18-2.55-0.26-3.73-0.26c-1.62,0-3.09,0.15-4.41,0.46
		c-1.32,0.31-2.44,0.74-3.35,1.3c-0.91,0.56-1.62,1.23-2.12,2.01C15.25,40.02,15,40.9,15,41.87c0,1.06,0.28,2.01,0.84,2.84
		c0.56,0.84,1.35,1.63,2.38,2.38c1.03,0.75,2.28,1.49,3.75,2.21c1.47,0.72,3.13,1.46,4.98,2.23c2.53,1.06,4.8,2.18,6.82,3.37
		c2.01,1.19,3.74,2.54,5.19,4.04c1.44,1.5,2.54,3.21,3.31,5.14c0.76,1.93,1.15,4.17,1.15,6.73c0,3.53-0.67,6.49-2.01,8.89
		c-1.34,2.4-3.15,4.34-5.45,5.82c-2.29,1.49-4.96,2.55-8.01,3.2c-3.04,0.65-6.26,0.97-9.64,0.97c-3.47,0-6.77-0.29-9.91-0.88
		C5.27,88.22,2.56,87.34,0.26,86.16z"/>
	<linearGradient id="SVGID_2_" gradientUnits="userSpaceOnUse" x1="64.9632" y1="53.1489" x2="64.9632" y2="62.8985">
		<stop  offset="0" style="stop-color:#00417F"/>
		<stop  offset="1" style="stop-color:#615ECE"/>
	</linearGradient>
	<path class="st1" d="M77.03,62.9H52.9v-9.75h24.13V62.9z"/>
	<linearGradient id="SVGID_3_" gradientUnits="userSpaceOnUse" x1="114.3304" y1="24.2645" x2="114.3304" y2="89.6915">
		<stop  offset="0" style="stop-color:#00417F"/>
		<stop  offset="1" style="stop-color:#615ECE"/>
	</linearGradient>
	<path class="st2" d="M142.28,84.35c-6.18,3.56-13.85,5.34-23.03,5.34c-10.18,0-18.2-2.82-24.07-8.45
		c-5.87-5.63-8.8-13.39-8.8-23.27c0-9.94,3.21-18.04,9.62-24.31c6.41-6.26,14.94-9.4,25.59-9.4c6.71,0,12.62,0.93,17.73,2.78v13.37
		c-4.88-2.82-10.85-4.24-17.91-4.24c-5.91,0-10.73,1.92-14.45,5.76c-3.72,3.84-5.58,8.96-5.58,15.37c0,6.5,1.67,11.53,5.01,15.09
		c3.34,3.56,7.85,5.34,13.52,5.34c3.41,0,6.12-0.48,8.12-1.46V63.93h-12.66V52.54h26.91V84.35z"/>
	<linearGradient id="SVGID_4_" gradientUnits="userSpaceOnUse" x1="179.0076" y1="25.3226" x2="179.0076" y2="88.5874">
		<stop  offset="0" style="stop-color:#00417F"/>
		<stop  offset="1" style="stop-color:#615ECE"/>
	</linearGradient>
	<path class="st3" d="M210.22,88.59h-15.53l-4.5-14.07h-22.5l-4.46,14.07h-15.44l23.03-63.26h16.9L210.22,88.59z M186.93,63.57
		l-6.79-21.26c-0.5-1.59-0.85-3.48-1.06-5.69h-0.35c-0.15,1.85-0.51,3.69-1.1,5.51l-6.88,21.44H186.93z"/>
	<linearGradient id="SVGID_5_" gradientUnits="userSpaceOnUse" x1="237.3976" y1="25.3226" x2="237.3976" y2="88.5874">
		<stop  offset="0" style="stop-color:#00417F"/>
		<stop  offset="1" style="stop-color:#615ECE"/>
	</linearGradient>
	<path class="st4" d="M262.54,36.93H244.5v51.66h-14.29V36.93h-17.96v-11.6h50.29V36.93z"/>
	<linearGradient id="SVGID_6_" gradientUnits="userSpaceOnUse" x1="290.0293" y1="25.3226" x2="290.0293" y2="88.5874">
		<stop  offset="0" style="stop-color:#00417F"/>
		<stop  offset="1" style="stop-color:#615ECE"/>
	</linearGradient>
	<path class="st5" d="M309,88.59h-37.94V25.32h36.49v11.6h-22.24V51H306v11.56h-20.69v14.47H309V88.59z"/>
</g>
</svg>
